<?xml version="1.0" encoding="utf-8"?>
<!-- Generator: Adobe Illustrator 27.5.0, SVG Export Plug-In . SVG Version: 6.00 Build 0)  -->
<svg version="1.1" xmlns="http://www.w3.org/2000/svg" xmlns:xlink="http://www.w3.org/1999/xlink" x="0px" y="0px"
	 viewBox="0 0 3710 3710" style="enable-background:new 0 0 3710 3710;" xml:space="preserve">
<g id="Background">
	<g>
		<g>
			<rect style="fill:#FFFFFF;" width="3710" height="3710"/>
		</g>
	</g>
</g>
<g id="Illustration">
	<g>
		<linearGradient id="SVGID_1_" gradientUnits="userSpaceOnUse" x1="3419.7517" y1="3619.0376" x2="1362.1635" y2="1398.1486">
			<stop  offset="0" style="stop-color:#DAE3FE"/>
			<stop  offset="1" style="stop-color:#E9EFFD"/>
		</linearGradient>
		<path style="fill:url(#SVGID_1_);" d="M3133.013,2353.436c-282.728,660.843-1029.037,944.69-1613.782,896.294
			c-159.659-13.214-480.897-39.802-731.723-276.999c-481.693-455.522-407.508-1407.69,53.61-1968.273
			c59.383-72.191,470.419-555.867,1110.943-549.393c468.957,4.74,798.113,269.648,838.137,302.65
			c50.561,41.691,162.079,140.762,262.583,297.931C3288.931,1424.939,3309.69,1940.475,3133.013,2353.436z"/>
		<g>
			<path style="fill:#91B3FA;" d="M2223.473,3008.275l526.519-1008.699h-107.874c-19.892,0-30.832-23.127-18.215-38.505
				l561.164-683.945c24.321-29.643,72.365-10.842,70.107,27.435l-39.446,668.814c-2.259,38.287-36.208,66.823-74.313,62.462
				l-75.21-8.607l-522.413,1131.358c-13.599,29.452-43.08,48.311-75.52,48.311H2287.21L2223.473,3008.275z"/>
			<path style="fill:#7D97F4;" d="M1788.156,2300.828l371.711,825.711c22.017,48.907,70.667,80.358,124.301,80.358h191.625
				c25.425,0,48.85-13.792,61.183-36.025l6.815-12.285l0,0c-20.588,0-39.44-11.543-48.799-29.881l-495.262-970.393
				L1788.156,2300.828z"/>
			<path style="fill:#91B3FA;" d="M2049.756,2256.329L2049.756,2256.329c-37.274-29.434-91.735-20.781-118.051,18.756
				l-546.52,821.106c-43.772,65.764-117.536,105.277-196.535,105.277h-76.901l-62.585-180.289c0,0,508.075-779.041,639.029-896.887
				c0,0,130.411-117.536,258.994-28.67c33.971,23.478,59.763,56.985,75.516,95.156L2049.756,2256.329z"/>
			<path style="fill:#7D97F4;" d="M454.749,2536.3c0,0,91.483-114.35,268.759-132.138c0,0,84.198,28.686,251.939,329.257
				c167.742,300.572,279.083,437.638,409.738,362.773l-10.817,17.96c-35.648,59.189-99.694,95.38-168.789,95.38h-72.261
				c-79.559,0-148.649-122.544-195.109-187.128C807.657,2840.917,534.947,2564.473,454.749,2536.3z"/>
			
				<linearGradient id="SVGID_00000115507128524406330160000017990481910241952918_" gradientUnits="userSpaceOnUse" x1="3186.7937" y1="1494.4918" x2="3200.6094" y2="1494.4918">
				<stop  offset="0" style="stop-color:#DAE3FE"/>
				<stop  offset="1" style="stop-color:#E9EFFD"/>
			</linearGradient>
			<path style="fill:url(#SVGID_00000115507128524406330160000017990481910241952918_);" d="M3191.858,1515.879
				c-0.191,0-0.382-0.01-0.576-0.033c-2.776-0.314-4.771-2.818-4.455-5.594l3.701-32.656c0.313-2.776,2.832-4.796,5.594-4.455
				c2.776,0.314,4.771,2.818,4.455,5.594l-3.701,32.656C3196.583,1513.973,3194.396,1515.879,3191.858,1515.879z"/>
			
				<linearGradient id="SVGID_00000141416888788463070200000002631677633925622414_" gradientUnits="userSpaceOnUse" x1="2718.3582" y1="1619.1923" x2="3217.3572" y2="1619.1923">
				<stop  offset="0" style="stop-color:#DAE3FE"/>
				<stop  offset="1" style="stop-color:#E9EFFD"/>
			</linearGradient>
			<path style="fill:url(#SVGID_00000141416888788463070200000002631677633925622414_);" d="M2723.413,1928.112
				c-1.076,0-2.163-0.342-3.082-1.049c-2.212-1.704-2.627-4.88-0.922-7.094l463.381-602.101c5.426-7.048,14.267-9.45,22.505-6.113
				c8.248,3.335,12.93,11.201,11.929,20.042l-8.176,72.171c-0.313,2.774-2.841,4.784-5.594,4.455
				c-2.776-0.313-4.771-2.818-4.455-5.594l8.176-72.171c0.576-5.099-2.552-8.264-5.673-9.525c-3.115-1.264-7.566-1.164-10.698,2.906
				l-463.381,602.101C2726.429,1927.434,2724.927,1928.112,2723.413,1928.112z"/>
			
				<linearGradient id="SVGID_00000114760840273388899270000012098855434885298854_" gradientUnits="userSpaceOnUse" x1="1667.1277" y1="2368.4812" x2="1981.054" y2="2368.4812">
				<stop  offset="0" style="stop-color:#DAE3FE"/>
				<stop  offset="1" style="stop-color:#E9EFFD"/>
			</linearGradient>
			<path style="fill:url(#SVGID_00000114760840273388899270000012098855434885298854_);" d="M1672.182,2559.316
				c-0.975,0-1.959-0.28-2.825-0.864c-2.315-1.562-2.927-4.707-1.363-7.021l239.649-355.229
				c8.564-12.699,22.844-19.594,38.068-18.428c15.274,1.159,28.303,10.116,34.855,23.96c1.195,2.524,0.119,5.54-2.407,6.735
				c-2.519,1.197-5.541,0.117-6.733-2.408c-4.978-10.517-14.876-17.321-26.479-18.2c-11.55-0.871-22.409,4.351-28.922,13.998
				l-239.649,355.229C1675.402,2558.536,1673.805,2559.316,1672.182,2559.316z"/>
			<path style="fill:#FFFFFF;" d="M1609.903,2651.628c-0.974,0-1.959-0.28-2.825-0.864c-2.315-1.563-2.927-4.707-1.363-7.021
				l15.366-22.778c1.561-2.321,4.712-2.924,7.02-1.365c2.315,1.562,2.927,4.707,1.363,7.021l-15.366,22.778
				C1613.124,2650.848,1611.527,2651.628,1609.903,2651.628z"/>
		</g>
		<g>
			
				<linearGradient id="SVGID_00000020364817038868159460000016338383342130335143_" gradientUnits="userSpaceOnUse" x1="-3165.4226" y1="-667.8033" x2="-3297.4963" y2="-262.9692" gradientTransform="matrix(-0.7334 -0.6798 -0.6798 0.7334 -134.5132 14.2461)">
				<stop  offset="0" style="stop-color:#FEBBBA"/>
				<stop  offset="1" style="stop-color:#FF928E"/>
			</linearGradient>
			<path style="fill:url(#SVGID_00000020364817038868159460000016338383342130335143_);" d="M2688.323,1761.907
				c0,0-24.596,331.7-301.236,360.526l-46.174-51.554c0,0,242.078-66.035,314.165-230.72l-7.688-90.161l12.929-58.559
				C2660.83,1729.222,2669.123,1754.401,2688.323,1761.907z"/>
			<g>
				<g style="opacity:0.3;">
					
						<linearGradient id="SVGID_00000170983648915836070870000013376062992226817449_" gradientUnits="userSpaceOnUse" x1="4480.9409" y1="3483.9497" x2="4514.5093" y2="3483.9497" gradientTransform="matrix(0.4625 0.8866 0.8866 -0.4625 -2680.2275 -1495.681)">
						<stop  offset="0" style="stop-color:#FE7062"/>
						<stop  offset="1" style="stop-color:#FF928E"/>
					</linearGradient>
					<path style="fill:url(#SVGID_00000170983648915836070870000013376062992226817449_);" d="M2515.681,871.21
						c-2.552-4.891-8.093-7.732-13.782-6.604c-10.62,2.1-21.322,4.55-31.806,7.286c-6.812,1.778-10.892,8.737-9.119,15.559
						c1.753,6.832,8.746,10.895,15.559,9.119c9.99-2.607,20.19-4.943,30.324-6.949c6.903-1.362,11.393-8.072,10.036-14.984
						C2516.646,873.41,2516.231,872.265,2515.681,871.21z"/>
					
						<linearGradient id="SVGID_00000070112862024837163400000012992863334799407529_" gradientUnits="userSpaceOnUse" x1="4467.3521" y1="3106.834" x2="5125.2729" y2="3106.834" gradientTransform="matrix(0.4625 0.8866 0.8866 -0.4625 -2680.2275 -1495.681)">
						<stop  offset="0" style="stop-color:#FE7062"/>
						<stop  offset="1" style="stop-color:#FF928E"/>
					</linearGradient>
					<path style="fill:url(#SVGID_00000070112862024837163400000012992863334799407529_);" d="M2422.153,900.189
						c2.6,6.544-0.585,13.958-7.133,16.565c-16.51,6.584-32.877,14.089-48.633,22.308c-3.323,1.733-6.637,3.513-9.946,5.329
						c-6.172,3.381-13.923,1.125-17.312-5.05c-2.971-5.965-1.125-13.923,5.052-17.321c3.463-1.897,6.932-3.757,10.41-5.571
						c16.517-8.617,33.677-16.487,50.994-23.385c6.126-2.445,13.029,0.205,16.018,5.935
						C2421.802,899.381,2421.981,899.78,2422.153,900.189z M2301.666,978.943c-17.493,12.588-34.366,26.369-50.137,40.967
						c-5.173,4.784-13.229,4.472-18.02-0.698c-4.751-5.149-4.476-13.236,0.698-18.021c16.529-15.3,34.216-29.753,52.56-42.947
						c5.719-4.114,13.688-2.814,17.808,2.903c0.359,0.5,0.677,1.031,0.956,1.565
						C2308.417,968.245,2306.874,975.194,2301.666,978.943z M2206.832,1066.782c-13.856,16.464-26.818,33.971-38.542,52.047
						c-3.83,5.903-11.731,7.588-17.634,3.757c-5.925-3.848-7.604-11.722-3.764-17.638c12.289-18.954,25.899-37.319,40.419-54.585
						c4.535-5.387,12.584-6.087,17.97-1.552c1.308,1.11,2.345,2.422,3.094,3.857
						C2210.694,1057.113,2210.255,1062.707,2206.832,1066.782z M2136.477,1175.239c-9.409,19.389-17.701,39.545-24.624,59.878
						c-2.278,6.673-9.522,10.234-16.186,7.959c-6.648-2.269-10.229-9.51-7.962-16.178c7.27-21.336,15.958-42.456,25.827-62.796
						c3.072-6.336,10.71-8.979,17.046-5.907c2.548,1.248,4.505,3.224,5.727,5.566
						C2138.111,1167.223,2138.312,1171.458,2136.477,1175.239z M2094.733,1297.585c-4.409,21.086-7.55,42.635-9.349,64.067
						c-0.584,7.011-6.754,12.225-13.774,11.639c-7.02-0.587-12.243-6.746-11.639-13.775c1.881-22.458,5.18-45.05,9.791-67.149
						c1.447-6.892,8.2-11.314,15.089-9.874c3.894,0.814,7,3.323,8.706,6.591C2094.872,1291.606,2095.357,1294.583,2094.733,1297.585
						z M2083.953,1426.357c0.852,21.503,3.056,43.149,6.56,64.35c1.15,6.943-3.555,13.512-10.501,14.657
						c-6.946,1.144-13.491-3.539-14.666-10.503c-3.674-22.228-5.986-44.943-6.88-67.498c-0.271-7.036,5.202-12.967,12.235-13.245
						c5.093-0.199,9.61,2.614,11.818,6.849C2083.363,1422.585,2083.879,1424.408,2083.953,1426.357z M2104.985,1553.801
						c6.083,20.572,13.541,41.036,22.178,60.823c2.808,6.457-0.141,13.972-6.596,16.784c-6.45,2.818-13.867-0.168-16.795-6.59
						c-9.04-20.75-16.862-42.205-23.243-63.78c-1.994-6.755,1.862-13.851,8.615-15.849c5.938-1.757,12.149,1.022,14.913,6.321
						C2104.431,1552.229,2104.746,1552.993,2104.985,1553.801z M2190.666,1743.784c-5.579,4.301-13.579,3.264-17.881-2.316
						c-11.904-15.441-23.163-31.802-33.445-48.575c-1.577-2.541-3.106-5.094-4.626-7.658c-3.739-5.929-1.57-13.886,4.516-17.462
						c6.068-3.58,13.878-1.558,17.464,4.508c1.413,2.41,2.86,4.808,4.364,7.232c9.837,16.057,20.577,31.664,31.926,46.391
						c0.469,0.605,0.874,1.245,1.213,1.896C2197.004,1733.182,2195.636,1739.956,2190.666,1743.784z"/>
				</g>
				<g style="opacity:0.3;">
					
						<linearGradient id="SVGID_00000147221576075650517750000004249322126825139590_" gradientUnits="userSpaceOnUse" x1="4760.9663" y1="3737.5444" x2="5511.8789" y2="3737.5444" gradientTransform="matrix(0.4625 0.8866 0.8866 -0.4625 -2680.2275 -1495.681)">
						<stop  offset="0" style="stop-color:#FE7062"/>
						<stop  offset="1" style="stop-color:#FF928E"/>
					</linearGradient>
					<path style="fill:url(#SVGID_00000147221576075650517750000004249322126825139590_);" d="M3100.712,1157.099
						c10.024,19.836,18.915,40.459,26.453,61.29c2.387,6.621-1.034,13.933-7.662,16.329c-6.629,2.398-13.891-1.103-16.329-7.662
						c-7.177-19.867-15.667-39.535-25.229-58.459c-3.18-6.283-0.652-13.958,5.629-17.13c6.237-3.148,13.838-0.695,17.058,5.477
						C3100.657,1156.994,3100.686,1157.049,3100.712,1157.099z M3063.514,1117.083c-5.857,3.904-13.777,2.32-17.677-3.541
						c-11.752-17.628-24.687-34.722-38.457-50.807c-4.537-5.331-3.957-13.4,1.406-17.982c5.35-4.581,13.389-3.951,17.976,1.395
						c14.427,16.858,27.986,34.772,40.293,53.249c0.26,0.391,0.493,0.782,0.706,1.191
						C3070.735,1106.286,3068.997,1113.429,3063.514,1117.083z M3145.983,1282.49c4.934,21.683,8.59,43.85,10.857,65.886
						c0.719,7.006-4.381,13.276-11.382,13.992c-7.009,0.728-13.243-4.356-13.996-11.372c-2.159-21.024-5.645-42.163-10.343-62.854
						c-1.561-6.869,2.741-13.7,9.596-15.26c5.776-1.313,11.523,1.517,14.138,6.53
						C3145.35,1280.362,3145.733,1281.39,3145.983,1282.49z M2981.091,1016.165c-4.746,5.2-12.816,5.563-18.016,0.816
						c-15.642-14.285-32.314-27.746-49.568-40.011c-5.727-4.085-7.072-12.049-3.01-17.778c4.084-5.741,12.046-7.091,17.786-3.008
						c18.098,12.857,35.592,26.978,51.992,41.964c1.132,1.039,2.035,2.232,2.705,3.518
						C2985.388,1006.281,2984.8,1012.101,2981.091,1016.165z M3159.602,1415.058c-0.424,22.182-2.214,44.572-5.312,66.554
						c-0.983,6.974-7.439,11.83-14.413,10.847c-6.975-0.983-11.84-7.427-10.848-14.412c2.968-20.967,4.668-42.318,5.064-63.475
						c0.136-7.038,5.949-12.641,13-12.505c4.823,0.089,8.978,2.859,11.066,6.861
						C3159.113,1410.755,3159.642,1412.846,3159.602,1415.058z M3141.019,1547.043c-5.736,21.478-12.831,42.799-21.077,63.367
						c-2.618,6.534-10.035,9.708-16.572,7.086c-6.532-2.612-9.717-10.038-7.092-16.583c7.859-19.614,14.622-39.955,20.097-60.453
						c1.816-6.804,8.809-10.846,15.613-9.029c3.593,0.962,6.42,3.365,8.018,6.429
						C3141.429,1540.587,3141.874,1543.838,3141.019,1547.043z M3091.366,1670.791c-10.715,19.495-22.727,38.5-35.681,56.481
						c-4.124,5.718-12.089,7.008-17.804,2.89c-5.714-4.113-6.996-12.09-2.894-17.797c12.363-17.146,23.811-35.267,34.016-53.858
						c3.394-6.173,11.151-8.429,17.321-5.031c2.296,1.253,4.038,3.112,5.161,5.264
						C3093.391,1662.395,3093.497,1666.905,3091.366,1670.791z"/>
					
						<linearGradient id="SVGID_00000152958702390737358860000009035375719094891657_" gradientUnits="userSpaceOnUse" x1="4678.4194" y1="3784.5105" x2="4729.7749" y2="3784.5105" gradientTransform="matrix(0.4625 0.8866 0.8866 -0.4625 -2680.2275 -1495.681)">
						<stop  offset="0" style="stop-color:#FE7062"/>
						<stop  offset="1" style="stop-color:#FF928E"/>
					</linearGradient>
					<path style="fill:url(#SVGID_00000152958702390737358860000009035375719094891657_);" d="M2876.292,925.881
						c-1.138-2.181-2.917-4.055-5.244-5.313c-9.603-5.188-19.404-10.11-29.129-14.645c-6.382-2.97-13.974-0.211-16.951,6.173
						c-2.95,6.379-0.203,13.962,6.174,16.95c9.276,4.319,18.626,9.02,27.793,13.965c6.198,3.347,13.937,1.03,17.278-5.165
						C2878.297,933.979,2878.184,929.508,2876.292,925.881z"/>
				</g>
				<g>
					
						<linearGradient id="SVGID_00000116956034510662605650000005548057710442494866_" gradientUnits="userSpaceOnUse" x1="2562.7361" y1="1836.2769" x2="2684.1252" y2="612.2704">
						<stop  offset="0" style="stop-color:#FE7062"/>
						<stop  offset="1" style="stop-color:#FF928E"/>
					</linearGradient>
					<path style="fill:url(#SVGID_00000116956034510662605650000005548057710442494866_);" d="M2642.813,992.412
						c-2.699-0.555-5.452,0.659-6.859,3.029l-40.115,67.583c-36.689,0.971-73.487,7.801-108.946,20.812l-62.194-47.965
						c-2.182-1.682-5.189-1.795-7.492-0.281l-78.759,51.803c-2.303,1.512-3.391,4.322-2.71,6.989l19.412,76.106
						c-25.992,27.406-46.838,58.49-62.26,91.795l-77.943,10.068c-2.733,0.353-4.939,2.401-5.497,5.098l-19.062,92.322
						c-0.558,2.697,0.658,5.453,3.029,6.859l67.582,40.113c0.97,36.69,7.799,73.49,20.812,108.949l-47.966,62.193
						c-1.682,2.182-1.796,5.19-0.282,7.491l51.803,78.762c1.515,2.302,4.322,3.388,6.99,2.708l76.106-19.411
						c27.406,25.992,58.49,46.838,91.796,62.258l10.066,77.945c0.353,2.731,2.4,4.94,5.098,5.496l92.324,19.063
						c2.697,0.557,5.45-0.66,6.856-3.027l40.116-67.585c36.689-0.969,73.487-7.798,108.946-20.81l62.194,47.965
						c2.18,1.683,5.189,1.797,7.491,0.282l78.762-51.803c2.301-1.514,3.388-4.321,2.708-6.99l-19.411-76.105
						c25.991-27.406,46.837-58.492,62.259-91.797l77.943-10.067c2.732-0.352,4.939-2.399,5.497-5.099l19.062-92.322
						c0.557-2.698-0.66-5.452-3.028-6.859l-67.584-40.114c-0.97-36.69-7.8-73.488-20.811-108.948l47.966-62.193
						c1.681-2.181,1.795-5.189,0.281-7.492l-51.804-78.76c-1.514-2.301-4.321-3.39-6.99-2.708l-76.104,19.41
						c-27.406-25.992-58.492-46.836-91.796-62.258l-10.067-77.944c-0.352-2.732-2.401-4.939-5.098-5.496L2642.813,992.412z"/>
					<path style="opacity:0.7;fill:#FFFFFF;" d="M2696.388,1375.629c8.469,24.341,6.943,50.519-4.29,73.71
						c-11.221,23.187-30.809,40.618-55.15,49.075c-50.234,17.462-105.212-9.17-122.787-59.446
						c-17.449-50.248,9.219-105.321,59.445-122.772c24.338-8.462,50.513-6.94,73.703,4.286c18.85,9.128,33.896,23.781,43.411,42.02
						C2692.906,1366.694,2694.803,1371.084,2696.388,1375.629z M2628.569,1474.329c17.908-6.224,32.316-19.043,40.579-36.107
						c8.255-17.052,9.375-36.312,3.154-54.213l0,0c-6.246-17.895-19.046-32.307-36.11-40.57
						c-17.049-8.262-36.311-9.373-54.207-3.156c-36.955,12.845-56.57,53.354-43.736,90.313c1.164,3.334,2.546,6.524,4.133,9.566
						C2558.381,1470.828,2594.956,1486.013,2628.569,1474.329z"/>
					<path style="opacity:0.7;fill:#FFFFFF;" d="M2817.79,1298.279c-3.732-7.155-7.859-14.174-12.377-21.059
						c-8.983-13.665-19.365-26.431-30.89-37.969c-0.522-0.515-1.043-1.029-1.565-1.544c-4.04-3.975-10.054-4.707-14.827-2.224
						c-1.159,0.605-2.246,1.403-3.208,2.383c-4.938,5.021-4.833,13.084,0.162,18.028c10.862,10.67,20.618,22.561,29.01,35.334
						l0.003,0.006c0.463,0.699,0.917,1.41,1.367,2.11c19.586,30.41,30.851,64.551,33.452,99.692
						c1.41,19.075,0.257,38.457-3.537,57.706c-0.031,0.157-0.061,0.313-0.092,0.469c-0.101,0.481-0.19,0.956-0.293,1.432
						c-11.602,56.167-44.375,104.461-92.293,135.976c-6.199,4.084-12.555,7.814-19.047,11.201
						c-43.682,22.781-93.458,29.785-142.365,19.693c-56.169-11.601-104.452-44.381-135.964-92.294
						c-31.476-47.897-42.484-105.241-30.898-161.409c11.601-56.167,44.375-104.461,92.293-135.976
						c6.094-4.015,12.376-7.699,18.802-11.051c27.872-14.533,58.601-22.804,90.027-24.113c1.938-0.083,3.753-0.587,5.362-1.434
						c4.24-2.212,7.062-6.739,6.846-11.837c-0.313-7.035-6.229-12.505-13.281-12.21c-35.163,1.468-69.553,10.721-100.728,26.97
						c-7.199,3.755-14.222,7.875-21.041,12.36c-53.616,35.266-90.282,89.292-103.258,152.14
						c-12.968,62.836-0.754,126.962,34.561,180.574c35.258,53.613,89.278,90.283,152.128,103.251
						c54.707,11.302,110.395,3.461,159.267-22.027c7.254-3.784,14.374-7.961,21.307-12.52
						C2840.505,1541.659,2874.058,1406.141,2817.79,1298.279z"/>
				</g>
			</g>
			<g>
				<g>
					
						<linearGradient id="SVGID_00000024719226836842227030000013132259535885522607_" gradientUnits="userSpaceOnUse" x1="-3326.0781" y1="2946.0601" x2="-3082.7576" y2="2946.0601" gradientTransform="matrix(-1 0 0 1 -956.0194 0)">
						<stop  offset="0" style="stop-color:#FEBBBA"/>
						<stop  offset="1" style="stop-color:#FF928E"/>
					</linearGradient>
					<path style="fill:url(#SVGID_00000024719226836842227030000013132259535885522607_);" d="M2370.059,2721.439
						c0,0-130.162,283.692-198.454,401.196c0,0-13.563,73.936,0,97.186l11.56,5.138l-53.947-1.606c0,0-4.792-99.452-1.05-105.007
						c3.743-5.555,11.229-5.191,11.229-5.191s23.132-183.266,90.124-222.378l64.924-223.616L2370.059,2721.439z"/>
					
						<linearGradient id="SVGID_00000134967356843499077770000015770252944644801414_" gradientUnits="userSpaceOnUse" x1="-2991.6277" y1="2401.9219" x2="-3112.1274" y2="3185.1665" gradientTransform="matrix(-1 0 0 1 -956.0194 0)">
						<stop  offset="0" style="stop-color:#09005D"/>
						<stop  offset="1" style="stop-color:#1A0F91"/>
					</linearGradient>
					<path style="fill:url(#SVGID_00000134967356843499077770000015770252944644801414_);" d="M2206.204,3238.887
						c0.08,1.301-42.125,0.706-65.052,0.288c-8.465-0.155-15.683-6.105-17.487-14.377l-17.314-90.963
						c-1.646-8.644,3.844-17.041,12.422-19.001l9.664-2.209c0,0,13.787,18.912,9.447,36.718c-4.34,17.805-8.201,63.929,2.765,69.303
						s42.515,6.313,42.515,6.313S2205.483,3227.173,2206.204,3238.887z"/>
					
						<linearGradient id="SVGID_00000181772459572750005160000007320923215325066168_" gradientUnits="userSpaceOnUse" x1="-3246.5928" y1="2362.6997" x2="-3367.0925" y2="3145.9448" gradientTransform="matrix(-1 0 0 1 -956.0194 0)">
						<stop  offset="0" style="stop-color:#09005D"/>
						<stop  offset="1" style="stop-color:#1A0F91"/>
					</linearGradient>
					<path style="fill:url(#SVGID_00000181772459572750005160000007320923215325066168_);" d="M2493.43,3240.538
						c4.269,2.433,2.509,8.95-2.405,8.9c-38.367-0.385-124.341-1.599-131.98-4.776c-9.863-4.101,3.594-39.543,17.757-51.539
						l78.202,25.523L2493.43,3240.538z"/>
					
						<linearGradient id="SVGID_00000047766146018248377200000010244345097130941375_" gradientUnits="userSpaceOnUse" x1="-3473.7241" y1="2964.1526" x2="-3332.8218" y2="2964.1526" gradientTransform="matrix(-1 0 0 1 -956.0194 0)">
						<stop  offset="0" style="stop-color:#FEBBBA"/>
						<stop  offset="1" style="stop-color:#FF928E"/>
					</linearGradient>
					<path style="fill:url(#SVGID_00000047766146018248377200000010244345097130941375_);" d="M2517.705,2703.346
						c0,0-84.114,406.914-107.909,486.289l56.29,35.323c0,0-28.208-4.797-49.125-6.313c-20.917-1.516-40.158-25.523-40.158-25.523
						l6.744-10.756c0,0,21.094-404.698,15.958-450.652L2517.705,2703.346z"/>
					
						<linearGradient id="SVGID_00000124846947877819950340000015488365391945678231_" gradientUnits="userSpaceOnUse" x1="-3777.2527" y1="1907.0143" x2="-3501.4111" y2="1907.0143" gradientTransform="matrix(-1 0 0 1 -956.0194 0)">
						<stop  offset="0" style="stop-color:#FEBBBA"/>
						<stop  offset="1" style="stop-color:#FF928E"/>
					</linearGradient>
					<path style="fill:url(#SVGID_00000124846947877819950340000015488365391945678231_);" d="M2726.505,1754.218
						c0,0,11.602,211.673-181.113,319.838l46.397,105.818c0,0,174.478-105.533,168.026-393.364
						c-0.185-8.26,2.794-16.282,8.189-22.54l37.082-43.019c14.128-16.391,19.408-38.625,14.156-59.618l-4.881-19.511
						c-1.634-6.532-9.074-9.675-14.896-6.293l-3.878,2.252c-12.345,7.17-22.124,18.04-27.953,31.072l-18.209,40.702
						c-6.801,15.204-22.483,24.435-39.078,23.002l-11.259-0.972L2726.505,1754.218z"/>
					
						<linearGradient id="SVGID_00000168801574198198227890000000882477560396336050_" gradientUnits="userSpaceOnUse" x1="-13.4435" y1="-6840.8091" x2="-129.7566" y2="-6532.3262" gradientTransform="matrix(-1 0 0 1 -956.0194 0)">
						<stop  offset="0" style="stop-color:#4F52FF"/>
						<stop  offset="1" style="stop-color:#4042E2"/>
					</linearGradient>
					<path style="fill:url(#SVGID_00000168801574198198227890000000882477560396336050_);" d="M2552.1,2058.195
						c-32.241,8.941-141.469,37.674-209.657,36.5l41.867,236.259l-3.333,38.535c44.743,7.045,89.905,10.085,136.504-0.612
						c0,0,38.426-89.242,68.743-133.734c8.757-12.85,2.24-28.177-2.723-42.913l6.818-4.54c6.938-4.619,9.947-13.297,7.358-21.22
						l-33.241-101.702C2562.71,2059.641,2557.312,2056.749,2552.1,2058.195z"/>
					
						<linearGradient id="SVGID_00000140006491718709981950000009955578283729030027_" gradientUnits="userSpaceOnUse" x1="-3431.0093" y1="2042.4396" x2="-3344.7842" y2="2042.4396" gradientTransform="matrix(-1 0 0 1 -956.0194 0)">
						<stop  offset="0" style="stop-color:#FEBBBA"/>
						<stop  offset="1" style="stop-color:#FF928E"/>
					</linearGradient>
					<path style="fill:url(#SVGID_00000140006491718709981950000009955578283729030027_);" d="M2474.984,2077.236
						c0.479-0.633-28.498-87.485-28.498-87.485l-41.506,3.766l-16.215,98.529
						C2388.765,2092.046,2453.814,2105.176,2474.984,2077.236z"/>
					
						<linearGradient id="SVGID_00000082360427811212131690000009285287719466900626_" gradientUnits="userSpaceOnUse" x1="-3293.9714" y1="1931.0127" x2="-2666.3701" y2="1973.6896" gradientTransform="matrix(-1 0 0 1 -956.0194 0)">
						<stop  offset="0" style="stop-color:#FEBBBA"/>
						<stop  offset="1" style="stop-color:#FF928E"/>
					</linearGradient>
					<path style="fill:url(#SVGID_00000082360427811212131690000009285287719466900626_);" d="M2414.917,1852.784
						c2.767,1.723,88.694,37.234,70.232,126.441c-1.091,5.271-4.609,9.74-9.525,11.932c-12.609,5.625-39.755,15.255-72.224,11.955
						c-45.013-4.575-74.509-83.124-73.255-105.982C2331.4,1874.272,2387.486,1835.703,2414.917,1852.784z"/>
					
						<linearGradient id="SVGID_00000009572831854234906210000014240853451663104167_" gradientUnits="userSpaceOnUse" x1="-3164.7" y1="1910.458" x2="-3415.2852" y2="2411.6277" gradientTransform="matrix(-1 0 0 1 -956.0194 0)">
						<stop  offset="0" style="stop-color:#09005D"/>
						<stop  offset="1" style="stop-color:#1A0F91"/>
					</linearGradient>
					<path style="fill:url(#SVGID_00000009572831854234906210000014240853451663104167_);" d="M2388.765,1818.103
						c2.259,0.297,49.656,16.804,26.152,51.149c-23.504,34.344-32.321,54.562-21.205,69.644
						c10.128,13.74,32.565,5.909,30.607,34.495c-0.392,5.722,2.083,11.277,6.833,14.492c21.143,14.312,72.726,58.363,21.619,121.186
						c-4.154,5.106-5.01,12.155-1.805,17.904c28.352,50.858,17.736,135.978-19.454,180.601
						c-21.457,25.746-53.658,39.824-85.448,50.435c-27.435,9.158-55.982,16.468-84.891,15.576
						c-28.909-0.892-58.467-10.808-78.355-31.808c-7.332-7.742-13.274-16.951-16.334-27.165c-2.87-9.578-3.145-19.768-2.265-29.727
						c4.283-48.472,34.802-90.72,69.31-125.03c15.218-15.13,32.19-30.529,37.347-51.359c1.851-7.476,2.042-15.259,1.898-22.959
						c-0.314-16.861-2.249-33.943-8.616-49.558c-5.157-12.649-13.085-24.007-18.427-36.579c-12.177-28.659-9.925-62.03,1.121-91.144
						c11.696-30.826,33.089-57.849,60.259-76.498C2332.037,1814.649,2359.435,1814.257,2388.765,1818.103z"/>
				</g>
				
					<linearGradient id="SVGID_00000003089932817246348850000016177659033643979709_" gradientUnits="userSpaceOnUse" x1="2104.2424" y1="2983.0342" x2="2483.5256" y2="2421.6943">
					<stop  offset="0" style="stop-color:#09005D"/>
					<stop  offset="1" style="stop-color:#1A0F91"/>
				</linearGradient>
				<path style="fill:url(#SVGID_00000003089932817246348850000016177659033643979709_);" d="M2376.405,2362.922
					c-12.26,9.15-37.981,33.418-61.288,78.338c-32.638,101.41-59.089,275.797-85.598,449.437
					c-39.36,19.429-62.321,97.982-84.685,178.657c15.779,11.954,31.091,18.758,45.83,19.187l245.665-486.984l10.629-212.577
					C2421.471,2392.712,2390.334,2372.412,2376.405,2362.922z"/>
				
					<linearGradient id="SVGID_00000000942034925159513550000003752183889883259061_" gradientUnits="userSpaceOnUse" x1="2419.7207" y1="3508.9353" x2="2453.4358" y2="2716.6169">
					<stop  offset="0" style="stop-color:#09005D"/>
					<stop  offset="1" style="stop-color:#1A0F91"/>
				</linearGradient>
				<path style="fill:url(#SVGID_00000000942034925159513550000003752183889883259061_);" d="M2414.906,2365.599
					c49.648,9.542,67.6,5.902,101.209-2.445c5.193-1.29,10.099,2.986,9.504,8.304l0,0c45.305,189.725-22.316,466.823-93.741,744.703
					c-14.486,10.078-30.108,8.901-46.512,0l5.655-498.024C2366.558,2532.98,2396.053,2463.708,2414.906,2365.599z"/>
				
					<linearGradient id="SVGID_00000003101701565813091460000013686719722035432344_" gradientUnits="userSpaceOnUse" x1="2807.033" y1="1725.7462" x2="2436.1599" y2="2396.6899">
					<stop  offset="0" style="stop-color:#09005D"/>
					<stop  offset="1" style="stop-color:#1A0F91"/>
				</linearGradient>
				<path style="fill:url(#SVGID_00000003101701565813091460000013686719722035432344_);" d="M2383.333,2351.949
					c29.571,10.363,79.933,12.295,138.199,11.023c1.287-0.028,2.425,0.857,2.7,2.114l4.251,19.433
					c0.358,1.636-0.862,3.204-2.535,3.275c-75.227,3.215-135.491,0.562-159.422-16.341c-1.368-0.966-1.558-2.917-0.387-4.115
					l14.396-14.738C2381.267,2351.852,2382.345,2351.603,2383.333,2351.949z"/>
			</g>
		</g>
		<g>
			
				<linearGradient id="SVGID_00000068639295433799669780000013752102510526276532_" gradientUnits="userSpaceOnUse" x1="1801.6969" y1="3148.5647" x2="1805.6412" y2="2951.9712">
				<stop  offset="0" style="stop-color:#4F52FF"/>
				<stop  offset="1" style="stop-color:#4042E2"/>
			</linearGradient>
			<path style="fill:url(#SVGID_00000068639295433799669780000013752102510526276532_);" d="M1859.92,2988.877
				c-0.358-8.953,0.065-18.839-5.525-26.438c-9.678-13.159-28.26-11.412-41.462-5.134c-15.267,7.26-23.675,20.743-25.962,37.042
				c-0.268,1.914-0.09,3.641,0.395,5.198c5.613,4.889,10.427,10.577,14.236,16.946c-0.277,3.374-0.067,6.824,0.091,10.198
				c0.478,10.189,0.263,20.155-0.726,30.324c-0.872,8.96-48.216,42.991-51.103,49.583c-9.901,22.608,9.741,37.739,30.516,41.062
				c55.055,7.342,71.552-48.522,74.782-71.126C1858.085,3056.073,1860.136,2994.269,1859.92,2988.877z"/>
			
				<linearGradient id="SVGID_00000146492732272525751630000015351992560616575412_" gradientUnits="userSpaceOnUse" x1="1043.6876" y1="3196.7393" x2="1263.2092" y2="3196.7393">
				<stop  offset="0" style="stop-color:#4F52FF"/>
				<stop  offset="1" style="stop-color:#4042E2"/>
			</linearGradient>
			<path style="fill:url(#SVGID_00000146492732272525751630000015351992560616575412_);" d="M1256.626,3180.44
				c-9.603-19.192-26.929-29.519-47.674-32.007c-2.436-0.292-4.624-0.022-6.587,0.633c-12.506,14.956-29.337,25.794-49.55,29.716
				c-34.553,6.705-70.441-0.082-104.967,7.336c-0.46,0.099-0.889,0.111-1.33,0.153c-3.29,9.529-3.926,19.884-0.767,29.755
				c6.932,21.657,27.825,29.178,48.748,29.134c27.62-0.058,55.313-1.598,82.922-2.41c13.46-0.396,26.889-1.063,40.33-1.872
				c11.354-0.683,23.911-0.397,33.414-7.685C1267.62,3220.577,1264.929,3197.037,1256.626,3180.44z"/>
			<g>
				
					<linearGradient id="SVGID_00000124150068717988369290000018283174660071070592_" gradientUnits="userSpaceOnUse" x1="-640.722" y1="-1188.422" x2="-634.4426" y2="-1241.9049" gradientTransform="matrix(0.0623 0.9981 -1.437 0.0897 -525.1927 3349.7002)">
					<stop  offset="0" style="stop-color:#FEBBBA"/>
					<stop  offset="1" style="stop-color:#FF928E"/>
				</linearGradient>
				<path style="fill:url(#SVGID_00000124150068717988369290000018283174660071070592_);" d="M1219.777,2605.458
					c-0.931-12.692-33.073-18.769-57.557-16.256c-8.408,0.863-16.872,3.657-18.646,7.918c-1.737,4.173,1.884,8.049,9.732,9.783
					c1.221,0.269,4.441,1.472,1.108,0.166c0.99,0.388,2.076,0.72,3.051,1.118c0.436,0.178,0.651,0.268,0.887,0.364
					c1.037,0.582,3.158,0.529,4.379,1.102c-0.561-0.369-2.274,2.062,1.686-0.482c0.049,0.033,0.094,0.063,0.144,0.096
					c0.106,0.071-0.31,0.986-0.223,0.998c-0.107-0.015-0.503,0.395-0.606,0.371c0.736,0.467,1.293,1.167,1.923,1.669
					c3.597,2.872,7.602,4.764,13.982,6.47C1197.135,2623.454,1220.427,2614.313,1219.777,2605.458z"/>
				
					<linearGradient id="SVGID_00000012474324540263592390000007926117317782656436_" gradientUnits="userSpaceOnUse" x1="-632.322" y1="-1201.5997" x2="-632.2123" y2="-1202.5345" gradientTransform="matrix(0.0623 0.9981 -1.437 0.0897 -525.1927 3349.7002)">
					<stop  offset="0" style="stop-color:#FEBBBA"/>
					<stop  offset="1" style="stop-color:#FF928E"/>
				</linearGradient>
				<path style="fill:url(#SVGID_00000012474324540263592390000007926117317782656436_);" d="M1162.14,2610.538
					c0.298,0.196,0.773,0.419,1.296,0.542c-0.021-0.013-0.038-0.028-0.06-0.042
					C1163.051,2610.936,1162.645,2610.775,1162.14,2610.538z"/>
			</g>
			
				<linearGradient id="SVGID_00000176734100399267634240000015763039599628081299_" gradientUnits="userSpaceOnUse" x1="1163.23" y1="2642.825" x2="1186.2706" y2="2446.5825">
				<stop  offset="0" style="stop-color:#FEBBBA"/>
				<stop  offset="1" style="stop-color:#FF928E"/>
			</linearGradient>
			<path style="fill:url(#SVGID_00000176734100399267634240000015763039599628081299_);" d="M1331.095,2467.76
				c-6.155-6.182-16.638-8.308-25.621-0.868c-19.01,15.745-32.874,33.651-56.816,41.828c-23.727,8.104-85.793,42.387-149.832,45.388
				c-19.557-10.1-40.378-1.8-61.624,0.879c-13.136,1.657-7.054,13.402,6.79,14.216c10.186,0.598,9.08-0.538,17.821,2.495
				c-0.269,0.199-0.809,0.603-0.809,0.603c-11.298,22.503-18.123,19.155-47.99,33.017c-29.867,13.863,0.095,21.158,13.867,21.158
				c92.983-7.393,62.43-19.225,119.396-34.997c23.43-7.739,47.214-12.474,71.29-17.737c51.667-11.294,96.986-34.084,127.183-79.138
				C1353.016,2482.271,1342.93,2469.603,1331.095,2467.76z"/>
			
				<linearGradient id="SVGID_00000082353764365494829650000016734470334099141012_" gradientUnits="userSpaceOnUse" x1="1547.9309" y1="2118.345" x2="1560.4103" y2="1556.7632" gradientTransform="matrix(0.9776 0.2102 -0.2102 0.9776 176.3333 503.4828)">
				<stop  offset="0" style="stop-color:#4F52FF"/>
				<stop  offset="1" style="stop-color:#4042E2"/>
			</linearGradient>
			<path style="fill:url(#SVGID_00000082353764365494829650000016734470334099141012_);" d="M1423.878,2385.837
				c1.87-12.1,3.108-24.292,3.873-36.51c0.71-11.332,2.729-25.084-1.68-35.91c-4.823-11.84-15.153-16.491-25.082-14.7
				c-28.632,2.137-44.229,30.356-56.868,53.57c-9.093,16.701-18.243,33.372-27.28,50.104c-7.924,14.67-19.289,30.963-23.469,47.143
				c-1.319,5.107,25.007,26.059,34.892,31.137c11.929,6.129,23.747,13.121,36.068,18.401c25.075,10.747,25.075,10.747,39.907-38.537
				C1413.218,2436.325,1419.934,2411.366,1423.878,2385.837z"/>
			
				<linearGradient id="SVGID_00000166661139984270196460000008790636552702529465_" gradientUnits="userSpaceOnUse" x1="1658.1265" y1="3130.9863" x2="1561.3689" y2="2798.1399">
				<stop  offset="0" style="stop-color:#09005D"/>
				<stop  offset="1" style="stop-color:#1A0F91"/>
			</linearGradient>
			<path style="fill:url(#SVGID_00000166661139984270196460000008790636552702529465_);" d="M1805.149,2995.52
				c-5.514-8.446-14.365-11.777-24.087-9.888c-37.975,7.377-77.41,16.705-116.156,18.23c-31.327,1.232-65.592-6.302-79.548-37.634
				c-6.835-15.348-8.58-33.042-10.356-49.556c-2.176-20.233-4.256-40.478-6.348-60.719c-4.182-40.479-8.24-80.972-12.536-121.438
				c-1.935-18.231-3.896-37.102-20.341-48.391c-13.558-9.307-31.433-9.57-47.352-10.052c-32.711-0.991-69.285,8.933-85.699,40.033
				c-15.652,29.656-3.047,69.415,4.48,101.505c3.076,29.329,6.835,58.582,11.247,87.824c8.274,54.838,17.396,111.326,33.286,164.554
				c6.729,22.541,18.448,43.442,39.992,54.657c18.671,9.72,40.384,11.181,61.029,9.619c55.17-4.174,111.432-13.906,164.392-29.954
				c26.108-7.912,55.925-17.091,76.289-36.092C1813.198,3049.782,1820.418,3018.909,1805.149,2995.52z"/>
			<g>
				
					<linearGradient id="SVGID_00000025421379758280996940000002283540598567270331_" gradientUnits="userSpaceOnUse" x1="2158.6646" y1="826.1779" x2="2042.3511" y2="1134.6617">
					<stop  offset="0" style="stop-color:#4F52FF"/>
					<stop  offset="1" style="stop-color:#4042E2"/>
				</linearGradient>
				<path style="fill:url(#SVGID_00000025421379758280996940000002283540598567270331_);" d="M1659.874,2615.955
					c-4.002-137.031-93.812-308.046-93.812-308.046c-32.074-38.146-68.793-56.129-104.21-47.856
					c-0.784,0.362-1.508,0.752-2.229,1.143c-25.075,4.868-49.406,24.487-70.494,39.641c0,0-17.545,18.873-28.19,45.341
					c-10.645,26.468-10.23,57.847-10.639,80.743c-0.684,38.355,51.462,258.417,48.564,298.347
					c-0.376,5.184,56.247,52.428,267.849,1.427C1666.714,2726.694,1664.878,2650.315,1659.874,2615.955z"/>
			</g>
			
				<linearGradient id="SVGID_00000020399980814788265420000004498158542733931175_" gradientUnits="userSpaceOnUse" x1="1433.8087" y1="2302.3608" x2="1411.5754" y2="2192.5017">
				<stop  offset="0" style="stop-color:#FEBBBA"/>
				<stop  offset="1" style="stop-color:#FF928E"/>
			</linearGradient>
			<path style="fill:url(#SVGID_00000020399980814788265420000004498158542733931175_);" d="M1444.284,2204.873
				c-4.169-7.286-7.962-13.694-16.657-14.277c-9.688-0.649-19.557,2.896-28.113,7.32c-2.927,1.514-5.095,6.507-3.793,9.83
				c0.369,0.941,0.697,1.89,1.042,2.835c0.318,10.565,0.905,21.09,1.556,31.64c0.179,2.912,0.023,6.627,0.272,10.274
				c-0.866,1.266-1.628,2.575-2.257,3.914c-0.431,0.916-0.772,1.854-1.071,2.801c-4.781,8.375-7.592,17.787-4.004,26.573
				c6.303,15.435,24.165,21.237,38.803,17.262c13.957-3.79,26.939-15.797,33.622-29.101
				C1471.104,2259.17,1448.522,2212.278,1444.284,2204.873z"/>
			
				<linearGradient id="SVGID_00000170269391283255418090000009062306070624637332_" gradientUnits="userSpaceOnUse" x1="1311.83" y1="1321.6525" x2="1372.5151" y2="2181.3625">
				<stop  offset="0" style="stop-color:#09005D"/>
				<stop  offset="1" style="stop-color:#1A0F91"/>
			</linearGradient>
			<path style="fill:url(#SVGID_00000170269391283255418090000009062306070624637332_);" d="M1667.432,2668.025
				c-9.596-36.689-243.984,49.528-340.773,75.647c-26.607,7.18-52.943,15.642-78.494,26.741
				c-24.51,10.647-46.597,24.963-59.318,52.107c-11.929,25.451-14.993,54.198-17.821,82.392
				c-3.251,32.419-4.209,65.083-3.945,97.692c0.266,32.727,1.891,65.406,3.708,98.063c1.687,30.346,2.554,62.408,28.483,79.62
				c16.526,10.971,40.287,14.021,59.967,10.698c0.477-41.524,1.303-83.152,5.203-124.193c3.943-41.491,11.662-89.891,33.491-125.959
				c4.003-9.381,9.052-18.171,15.441-26.106c29.915-37.159,81.342-41.402,122.853-42.727c37.638-1.201,77.479,2.25,117.211,3.475
				c31.095-5.811,61.593-14.561,85.985-34.893C1688.529,2799.65,1683.124,2728.026,1667.432,2668.025z"/>
			<g>
				<g style="opacity:0.3;">
					
						<linearGradient id="SVGID_00000047044732214626030450000000653634303512994209_" gradientUnits="userSpaceOnUse" x1="-287.4003" y1="1667.9137" x2="423.6629" y2="1667.9137" gradientTransform="matrix(-0.9955 -0.0949 -0.0949 0.9955 1367.3741 427.9569)">
						<stop  offset="0" style="stop-color:#FE7062"/>
						<stop  offset="1" style="stop-color:#FF928E"/>
					</linearGradient>
					<path style="fill:url(#SVGID_00000047044732214626030450000000653634303512994209_);" d="M1453.774,2284.539
						c-3.413-13.531-7.456-27.075-12.021-40.268c-2.343-6.772,1.249-14.165,8.021-16.509c6.769-2.334,14.161,1.249,16.509,8.022
						c4.807,13.892,9.066,28.16,12.658,42.406c1.753,6.95-2.461,14.004-9.409,15.76c-1.482,0.373-2.968,0.476-4.406,0.339
						C1459.816,2293.783,1455.153,2290.007,1453.774,2284.539z M1414.968,2181.448c-6.358-12.441-13.333-24.748-20.724-36.585
						c-3.795-6.081-1.944-14.088,4.134-17.883c6.083-3.789,14.085-1.937,17.883,4.134c7.782,12.465,15.122,25.423,21.819,38.513
						c3.261,6.381,0.734,14.201-5.648,17.463c-2.283,1.167-4.75,1.594-7.128,1.368
						C1421.038,2188.051,1417.065,2185.543,1414.968,2181.448z M1354.162,2089.57c-8.941-10.691-18.468-21.154-28.317-31.086
						c-5.045-5.094-5.007-13.31,0.082-18.356c5.093-5.05,13.311-5.01,18.353,0.085c10.36,10.45,20.384,21.458,29.792,32.708
						c4.599,5.496,3.87,13.681-1.631,18.28c-2.77,2.318-6.223,3.282-9.556,2.964
						C1359.605,2093.853,1356.443,2092.298,1354.162,2089.57z M1274.543,2013.438c-11.1-8.463-22.701-16.551-34.483-24.045
						c-6.047-3.846-7.833-11.87-3.988-17.914c3.847-6.05,11.865-7.837,17.917-3.99c12.4,7.884,24.611,16.402,36.293,25.307
						c5.699,4.348,6.797,12.488,2.451,18.19c-2.823,3.703-7.248,5.461-11.565,5.049
						C1278.838,2015.813,1276.541,2014.963,1274.543,2013.438z M799.632,1931.431c-2.333-6.776,1.269-14.163,8.048-16.496
						c13.885-4.777,28.168-9.012,42.447-12.585c6.955-1.74,14.002,2.486,15.74,9.44c1.741,6.949-2.486,13.997-9.438,15.737
						c-13.559,3.393-27.119,7.416-40.304,11.954c-1.809,0.622-3.658,0.822-5.447,0.652
						C805.768,1939.665,801.34,1936.401,799.632,1931.431z M1180.086,1956.882c-12.697-5.779-25.799-11.077-38.947-15.743
						c-6.755-2.401-10.287-9.822-7.889-16.575c2.399-6.758,9.811-10.253,16.575-7.886c13.844,4.916,27.642,10.494,41.013,16.581
						c6.523,2.97,9.405,10.664,6.435,17.19c-2.354,5.174-7.684,8.057-13.044,7.546
						C1182.834,1957.862,1181.436,1957.494,1180.086,1956.882z M909.387,1904.079c-0.757-7.126,4.411-13.518,11.539-14.274
						c14.6-1.546,29.46-2.482,44.166-2.791c7.172-0.182,13.094,5.541,13.246,12.706c0.149,7.164-5.539,13.094-12.706,13.246
						c-13.976,0.292-28.099,1.181-41.973,2.653c-0.885,0.094-1.758,0.092-2.611,0.011
						C915.032,1915.057,910.047,1910.32,909.387,1904.079z M1075.378,1922.861c-13.662-2.79-27.623-5.028-41.502-6.646
						c-7.122-0.827-12.218-7.271-11.389-14.393c0.82-7.026,7.108-12.084,14.118-11.416c0.091,0.009,0.185,0.018,0.275,0.031
						c14.611,1.699,29.311,4.053,43.69,6.987c7.023,1.439,11.554,8.292,10.12,15.316c-1.338,6.559-7.412,10.945-13.932,10.323
						C1076.3,1923.02,1075.838,1922.951,1075.378,1922.861z"/>
					
						<linearGradient id="SVGID_00000088833689598345175080000014003264923285829532_" gradientUnits="userSpaceOnUse" x1="459.6493" y1="1584.4821" x2="502.8829" y2="1584.4821" gradientTransform="matrix(-0.9955 -0.0949 -0.0949 0.9955 1367.3741 427.9569)">
						<stop  offset="0" style="stop-color:#FE7062"/>
						<stop  offset="1" style="stop-color:#FF928E"/>
					</linearGradient>
					<path style="fill:url(#SVGID_00000088833689598345175080000014003264923285829532_);" d="M727.542,1977.463
						c2.544,0.243,5.186-0.259,7.583-1.609c5.831-3.284,11.828-6.496,17.824-9.56c6.383-3.256,8.919-11.076,5.66-17.458
						c-3.256-6.386-11.078-8.929-17.46-5.657c-6.308,3.218-12.614,6.599-18.752,10.052c-6.245,3.514-8.462,11.431-4.947,17.673
						C719.617,1974.757,723.455,1977.074,727.542,1977.463z"/>
				</g>
				<g style="opacity:0.3;">
					
						<linearGradient id="SVGID_00000049934398427308780250000007373414622467279769_" gradientUnits="userSpaceOnUse" x1="684.0621" y1="1914.8337" x2="713.73" y2="1914.8337" gradientTransform="matrix(-0.9955 -0.0949 -0.0949 0.9955 1367.3741 427.9569)">
						<stop  offset="0" style="stop-color:#FE7062"/>
						<stop  offset="1" style="stop-color:#FF928E"/>
					</linearGradient>
					<path style="fill:url(#SVGID_00000049934398427308780250000007373414622467279769_);" d="M485.874,2290.762
						c6.235,0.594,12.155-3.404,13.78-9.66c1.679-6.476,3.524-13.027,5.482-19.466c2.085-6.859-1.784-14.109-8.641-16.193
						c-6.887-2.093-14.109,1.787-16.193,8.641c-2.06,6.78-4.003,13.678-5.774,20.497c-1.8,6.938,2.365,14.021,9.302,15.823
						C484.512,2290.581,485.196,2290.698,485.874,2290.762z"/>
					
						<linearGradient id="SVGID_00000030474402514053370400000009442212976376405160_" gradientUnits="userSpaceOnUse" x1="-42.3961" y1="2252.2966" x2="720.0734" y2="2252.2966" gradientTransform="matrix(-0.9955 -0.0949 -0.0949 0.9955 1367.3741 427.9569)">
						<stop  offset="0" style="stop-color:#FE7062"/>
						<stop  offset="1" style="stop-color:#FF928E"/>
					</linearGradient>
					<path style="fill:url(#SVGID_00000030474402514053370400000009442212976376405160_);" d="M901.176,2918.206
						c-7.093-1.028-12.011-7.613-10.98-14.711c1.03-7.093,7.607-11.996,14.708-10.978c13.505,1.96,27.303,3.373,41.167,4.226
						c7.121,0.414,12.596,6.599,12.156,13.753c-0.44,7.154-6.597,12.596-13.751,12.159c-6.007-0.369-11.984-0.837-17.929-1.404
						C918.065,2920.442,909.529,2919.419,901.176,2918.206z M1001.298,2910.219c-0.531-7.144,4.832-13.37,11.979-13.901
						c13.723-1.024,27.55-2.634,41.099-4.794c7.066-1.149,13.731,3.693,14.862,10.772c1.128,7.074-3.695,13.729-10.772,14.856
						c-14.265,2.276-28.821,3.974-43.261,5.047c-0.749,0.056-1.489,0.047-2.211-0.022
						C1006.814,2921.587,1001.775,2916.62,1001.298,2910.219z M832.046,2903.282c-13.872-4.007-27.764-8.662-41.287-13.842
						c-6.694-2.564-10.042-10.068-7.479-16.765c2.563-6.692,10.065-10.03,16.763-7.477c12.842,4.922,26.031,9.342,39.204,13.144
						c6.886,1.991,10.858,9.184,8.869,16.073c-1.76,6.091-7.595,9.899-13.686,9.318
						C833.638,2903.658,832.839,2903.511,832.046,2903.282z M1111.204,2892.608c-2.089-6.855,1.776-14.11,8.633-16.196
						c13.144-4.002,26.272-8.617,39.021-13.711c6.661-2.665,14.207,0.575,16.867,7.235c2.66,6.655-0.578,14.204-7.233,16.864
						c-13.427,5.365-27.253,10.225-41.091,14.44c-1.673,0.508-3.368,0.667-5.009,0.511
						C1117.312,2901.268,1112.782,2897.79,1111.204,2892.608z M726.657,2859.689c-12.643-6.955-25.165-14.551-37.221-22.575
						c-5.967-3.97-7.585-12.023-3.616-17.99c3.971-5.972,12.029-7.587,17.995-3.616c11.453,7.62,23.346,14.835,35.353,21.439
						c6.281,3.456,8.571,11.349,5.115,17.629c-2.575,4.679-7.612,7.142-12.608,6.666
						C729.965,2861.078,728.256,2860.569,726.657,2859.689z M633.383,2794.038c-10.843-9.574-21.408-19.718-31.403-30.148
						c-4.958-5.178-4.783-13.391,0.393-18.352c5.184-4.965,13.397-4.788,18.349,0.395c9.497,9.909,19.537,19.549,29.84,28.649
						c5.374,4.744,5.882,12.946,1.138,18.32c-2.86,3.236-6.975,4.707-10.969,4.326
						C638.096,2796.978,635.516,2795.922,633.383,2794.038z M556.629,2709.618c-8.505-11.714-16.61-23.92-24.09-36.269
						c-3.713-6.134-1.751-14.11,4.379-17.824c6.139-3.718,14.113-1.75,17.824,4.378c7.105,11.739,14.807,23.33,22.892,34.464
						c4.211,5.8,2.923,13.917-2.877,18.126c-2.665,1.936-5.814,2.709-8.852,2.42
						C562.327,2714.572,558.907,2712.753,556.629,2709.618z M500.12,2610.466c-5.738-13.289-10.974-26.978-15.561-40.686
						c-2.275-6.796,1.39-14.152,8.189-16.427c6.786-2.271,14.149,1.395,16.424,8.191c4.356,13.014,9.327,26.011,14.779,38.636
						c2.841,6.58-0.189,14.216-6.77,17.056c-2.079,0.897-4.26,1.208-6.365,1.008C506.256,2617.809,502.066,2614.97,500.12,2610.466z
						 M466.762,2501.263c-2.662-14.192-4.751-28.686-6.209-43.084c-0.723-7.132,4.473-13.501,11.605-14.222
						c7.109-0.718,13.497,4.47,14.22,11.602c1.385,13.678,3.37,27.444,5.896,40.926c1.322,7.042-3.32,13.825-10.363,15.145
						c-1.227,0.23-2.446,0.281-3.629,0.169C472.669,2511.263,467.853,2507.081,466.762,2501.263z M458.205,2387.52
						c0.362-10.634,1.057-21.39,2.065-31.962c0.365-3.83,0.772-7.641,1.219-11.444c0.836-7.115,7.21-12.359,14.401-11.373
						c7.119,0.832,12.213,7.281,11.378,14.402c-0.423,3.611-0.812,7.24-1.159,10.879c-0.959,10.053-1.62,20.272-1.965,30.384
						c-0.243,7.162-6.25,12.771-13.412,12.527c-0.269-0.01-0.537-0.026-0.802-0.051
						C463.155,2400.235,457.968,2394.413,458.205,2387.52z"/>
					
						<linearGradient id="SVGID_00000047738884566385049300000000808915732397069464_" gradientUnits="userSpaceOnUse" x1="-118.4007" y1="2413.0295" x2="-75.7185" y2="2413.0295" gradientTransform="matrix(-0.9955 -0.0949 -0.0949 0.9955 1367.3741 427.9569)">
						<stop  offset="0" style="stop-color:#FE7062"/>
						<stop  offset="1" style="stop-color:#FF928E"/>
					</linearGradient>
					<path style="fill:url(#SVGID_00000047738884566385049300000000808915732397069464_);" d="M1224.871,2857.578
						c2.569,0.245,5.233-0.27,7.643-1.639c6.106-3.476,12.254-7.147,18.273-10.912c6.079-3.8,7.925-11.808,4.125-17.884
						c-3.803-6.076-11.802-7.929-17.884-4.125c-5.718,3.575-11.559,7.062-17.355,10.364c-6.227,3.542-8.404,11.466-4.858,17.697
						C1216.989,2854.896,1220.809,2857.191,1224.871,2857.578z"/>
				</g>
				<g>
					
						<linearGradient id="SVGID_00000165913086994605462690000000440737243855609007_" gradientUnits="userSpaceOnUse" x1="1155.5394" y1="2646.531" x2="771.1414" y2="2120.5127">
						<stop  offset="0" style="stop-color:#FE7062"/>
						<stop  offset="1" style="stop-color:#FF928E"/>
					</linearGradient>
					<path style="fill:url(#SVGID_00000165913086994605462690000000440737243855609007_);" d="M1283.974,2643.078
						c1.819-1.842,2.27-4.633,1.122-6.953l-32.723-66.178c18.004-29.403,31.449-61.888,39.338-96.479l69.606-24.461
						c2.442-0.859,4.069-3.171,4.054-5.759l-0.522-88.551c-0.014-2.588-1.67-4.882-4.121-5.71l-69.89-23.641
						c-8.295-34.497-22.121-66.823-40.471-96.01l31.942-66.557c1.119-2.333,0.635-5.12-1.205-6.938l-62.984-62.248
						c-1.84-1.819-4.633-2.271-6.953-1.122l-66.177,32.724c-29.402-18.005-61.887-31.451-96.48-39.338l-24.461-69.606
						c-0.858-2.442-3.17-4.07-5.758-4.054l-88.553,0.52c-2.588,0.016-4.88,1.672-5.709,4.122l-23.64,69.89
						c-34.497,8.295-66.823,22.121-96.01,40.472l-66.558-31.943c-2.333-1.119-5.12-0.637-6.938,1.205l-62.247,62.984
						c-1.819,1.84-2.269,4.633-1.123,6.951l32.725,66.179c-18.006,29.402-31.449,61.886-39.338,96.479l-69.606,24.462
						c-2.442,0.857-4.07,3.17-4.055,5.757l0.521,88.553c0.016,2.588,1.671,4.881,4.122,5.709l69.89,23.641
						c8.295,34.497,22.122,66.823,40.471,96.011l-31.942,66.557c-1.12,2.332-0.637,5.119,1.205,6.939l62.984,62.247
						c1.841,1.819,4.632,2.27,6.952,1.123l66.178-32.725c29.402,18.005,61.887,31.449,96.48,39.339l24.461,69.605
						c0.858,2.439,3.17,4.068,5.758,4.054l88.552-0.522c2.588-0.016,4.881-1.67,5.71-4.122l23.64-69.888
						c34.497-8.295,66.822-22.123,96.01-40.471l66.558,31.943c2.333,1.12,5.12,0.635,6.938-1.205L1283.974,2643.078z"/>
					<path style="opacity:0.7;fill:#FFFFFF;" d="M955.026,2487.693c-47.657-11.735-76.885-60.049-65.152-107.712
						c5.682-23.088,20.017-42.58,40.362-54.884c20.339-12.305,44.258-15.957,67.347-10.266
						c47.658,11.735,76.885,60.049,65.153,107.712c-10.676,43.359-51.628,71.46-94.822,67.342
						C963.631,2489.476,959.323,2488.75,955.026,2487.693z M940.982,2342.866c-15.599,9.436-26.588,24.379-30.947,42.083
						c-8.994,36.537,13.415,73.588,49.954,82.582c36.548,9.01,73.588-13.415,82.585-49.956
						c8.994-36.537-13.415-73.588-49.954-82.583c-3.314-0.815-6.644-1.377-9.98-1.695
						C968.154,2331.916,953.66,2335.199,940.982,2342.866z"/>
					<path style="opacity:0.7;fill:#FFFFFF;" d="M953.897,2617.695c7.418,0.708,14.916,1.046,22.469,1.002l0,0
						c2.377-0.013,4.755-0.066,7.132-0.156c11.717-0.446,23.381-1.824,34.81-4.111c0.156-0.031,0.312-0.062,0.467-0.093
						c0.441-0.09,0.883-0.181,1.325-0.276c0.86-0.178,1.718-0.366,2.574-0.554c2.252-0.498,3.836-2.389,4.046-4.569
						c0.051-0.53,0.019-1.078-0.102-1.624c-0.62-2.799-3.395-4.556-6.191-3.941c-14.403,3.195-29.246,4.856-44.119,4.939
						c-73.877,0.447-139.12-37.796-176.502-95.688c-20.796-32.198-32.969-70.477-33.209-111.567
						c-0.044-7.205,0.277-14.36,0.954-21.436c4.546-47.62,25.159-91.859,59.239-126.34c39.145-39.61,91.373-61.605,147.058-61.933
						c115.007-0.665,209.035,92.302,209.71,207.254c0.042,7.088-0.275,14.152-0.946,21.161
						c-2.902,30.376-12.417,59.779-27.968,86.066c-0.401,0.68-0.631,1.411-0.699,2.148c-0.185,1.938,0.735,3.905,2.524,4.961
						c2.474,1.453,5.652,0.651,7.113-1.827c16.325-27.598,26.319-58.469,29.365-90.358c0.704-7.358,1.037-14.771,0.995-22.21
						c-0.709-120.69-99.507-218.288-220.153-217.58c-58.462,0.343-113.288,23.435-154.383,65.018
						c-35.779,36.198-57.418,82.641-62.193,132.633c-0.708,7.429-1.045,14.939-1.002,22.5
						c0.346,58.465,23.435,113.293,65.016,154.387C857.436,2591.289,903.895,2612.927,953.897,2617.695z"/>
				</g>
			</g>
			<g>
				
					<linearGradient id="SVGID_00000084495628563215244860000004168816246765779130_" gradientUnits="userSpaceOnUse" x1="-149.2654" y1="3508.3145" x2="-133.6596" y2="3375.397" gradientTransform="matrix(1.4136 -0.378 0.2583 0.9661 626.4278 -811.4615)">
					<stop  offset="0" style="stop-color:#FEBBBA"/>
					<stop  offset="1" style="stop-color:#FF928E"/>
				</linearGradient>
				<path style="fill:url(#SVGID_00000084495628563215244860000004168816246765779130_);" d="M1442.231,2476.108
					c0,0-13.398,56.091-95.273,80.343c-43.039,12.749-87.383,31.462-132.5,38.773c-20.806,3.372-30.185,3.652-49.022,14.376
					c-4.396,2.503-27.884,18.949-34.899,22.101c-21.951,9.86-48.817,8.927-31.132,21.924c23.336,17.151,59.68,14.115,83.822,3.112
					c21.264-9.692,17.439-13.517,35.324-15.416c43.709-4.64,97.088-14.266,140.232-27.939
					c45.873-14.539,59.589-11.461,96.487-34.317c37.047-22.948,57.614-89.672,79.432-115.489
					C1541.557,2455.467,1442.231,2476.108,1442.231,2476.108z"/>
				
					<linearGradient id="SVGID_00000160148787428943706750000012047993485853440442_" gradientUnits="userSpaceOnUse" x1="1846.1254" y1="2309.4692" x2="743.6751" y2="2643.2385">
					<stop  offset="0" style="stop-color:#4F52FF"/>
					<stop  offset="1" style="stop-color:#4042E2"/>
				</linearGradient>
				<path style="fill:url(#SVGID_00000160148787428943706750000012047993485853440442_);" d="M1563.028,2310.711
					c-22.241-21.127-58.577-21.386-75.157,6.556c-0.522,0.88-0.881,1.765-1.154,2.648c-10.951,15.865-14.448,39.123-19.911,56.478
					c-4.315,13.706-9.684,27.713-14.38,41.801c-8.032,17.724-16.055,35.452-24.034,53.199c-5.557,12.358,49.158,39.487,68.06,42.124
					c16.708,2.331,38.403,8.496,52.492-3.543c12.853-10.983,19.795-31.252,25.95-46.601c6.901-17.211,12.277-34.774,14.595-53.211
					C1593.66,2376.986,1588.698,2335.097,1563.028,2310.711z"/>
			</g>
			<g>
				<g>
					
						<linearGradient id="SVGID_00000069394305972966317950000008629450450802731393_" gradientUnits="userSpaceOnUse" x1="1332.4091" y1="2280.5735" x2="1449.5227" y2="1863.0389">
						<stop  offset="0" style="stop-color:#09005D"/>
						<stop  offset="1" style="stop-color:#1A0F91"/>
					</linearGradient>
					<path style="fill:url(#SVGID_00000069394305972966317950000008629450450802731393_);" d="M1495.413,2021.917
						c-13.945-26.451-38.481-25.794-61.093-26.263c-52.049-1.08-115.462-6.471-158.219,38.4
						c-10.998,11.542-16.855,24.604-18.229,38.502c-1.375,13.898,90.846,70.175,97.776,85.061
						c17.33,37.226,95.779,100.334,108.622,81.697c27.423-39.791,44.022-91.216,44.202-144.055
						C1508.554,2071.139,1506.275,2042.523,1495.413,2021.917z"/>
					
						<linearGradient id="SVGID_00000015356136133011007350000017665807821047476867_" gradientUnits="userSpaceOnUse" x1="1495.5178" y1="2307.1287" x2="1440.2554" y2="2034.0662">
						<stop  offset="0" style="stop-color:#FEBBBA"/>
						<stop  offset="1" style="stop-color:#FF928E"/>
					</linearGradient>
					<path style="fill:url(#SVGID_00000015356136133011007350000017665807821047476867_);" d="M1484.574,2150.547
						c-0.771-14.412-6.95-27.183-20.579-32.904c-4.974-2.087-10.375,0.735-14.113,3.731c-0.464,0.371-0.928,0.743-1.391,1.115
						c-4.987,3.997-2.317,34.162-2.307,42.685c0.019,14.434,8.337,27.225,23,19.487
						C1480.712,2178.576,1485.225,2162.712,1484.574,2150.547z"/>
					
						<linearGradient id="SVGID_00000101076636183055481850000012831530516733371051_" gradientUnits="userSpaceOnUse" x1="1380.6304" y1="2266.3894" x2="1373.7853" y2="1807.777">
						<stop  offset="0" style="stop-color:#FEBBBA"/>
						<stop  offset="1" style="stop-color:#FF928E"/>
					</linearGradient>
					<path style="fill:url(#SVGID_00000101076636183055481850000012831530516733371051_);" d="M1441.474,2109.939
						c-6.85-12.427-18.116-22.955-31.875-29.274c-6.848-3.146-1.588-6.138-9.555-8.076c-9.048-4.126-31.923-6.897-41.888-6.953
						c-17.011-0.096-30.839,8.772-40.686,20.596c-19.37,23.258-20.52,41.898-16.429,69.596
						c4.355,29.486,16.522,100.643,43.064,118.186c26.542,17.543,48.633,10.604,61.228,1.054
						c8.488-6.435,58.936-49.333,53.263-90.651C1454.636,2155.565,1456.064,2136.406,1441.474,2109.939z"/>
				</g>
				
					<linearGradient id="SVGID_00000132054424548510725370000017106744117004400537_" gradientUnits="userSpaceOnUse" x1="1369.2782" y1="2290.9143" x2="1486.3921" y2="1873.3792">
					<stop  offset="0" style="stop-color:#09005D"/>
					<stop  offset="1" style="stop-color:#1A0F91"/>
				</linearGradient>
				<path style="fill:url(#SVGID_00000132054424548510725370000017106744117004400537_);" d="M1453.299,2087.983
					c-2.568-7.804-14.863-9.52-17.798-1.402c-2.596-5.135-5.699-9.878-9.163-13.903c-6.499-7.55-34.743-15.564-33.477-12.692
					c10.366,23.509,27.536,44.72,30.197,65.473c2.661,20.753-1.726,45.851-0.281,56.216c1.445,10.365,18.633-4.067,20.9-9.711
					c4.009-9.976,4.739-24.953,6.414-31.573C1454.034,2124.808,1458.429,2103.573,1453.299,2087.983z"/>
			</g>
		</g>
		<g>
			<g style="opacity:0.3;">
				
					<linearGradient id="SVGID_00000002375655537201594210000008701116941929827241_" gradientUnits="userSpaceOnUse" x1="4316.668" y1="-1214.9161" x2="4354.6035" y2="-1214.9161" gradientTransform="matrix(0.9846 -0.1747 -0.1747 -0.9846 -3725.9841 878.2706)">
					<stop  offset="0" style="stop-color:#FE7062"/>
					<stop  offset="1" style="stop-color:#FF928E"/>
				</linearGradient>
				<path style="fill:url(#SVGID_00000002375655537201594210000008701116941929827241_);" d="M754.04,1284.896
					c-6.138,1.089-11.082,6.097-11.798,12.613c-1.343,12.16-2.336,24.528-2.947,36.757c-0.397,7.946,5.719,14.708,13.674,15.112
					c7.96,0.43,14.714-5.727,15.112-13.674c0.583-11.653,1.528-23.441,2.807-35.046c0.876-7.903-4.832-15.022-12.743-15.905
					C756.74,1284.603,755.364,1284.661,754.04,1284.896z"/>
				
					<linearGradient id="SVGID_00000088837712222863001880000007874805815605004732_" gradientUnits="userSpaceOnUse" x1="4301.313" y1="-1641.0938" x2="5044.8501" y2="-1641.0938" gradientTransform="matrix(0.9846 -0.1747 -0.1747 -0.9846 -3725.9841 878.2706)">
					<stop  offset="0" style="stop-color:#FE7062"/>
					<stop  offset="1" style="stop-color:#FF928E"/>
				</linearGradient>
				<path style="fill:url(#SVGID_00000088837712222863001880000007874805815605004732_);" d="M753.517,1395.549
					c7.937-0.58,14.846,5.37,15.433,13.313c1.49,20.032,4.022,40.222,7.531,59.996c0.74,4.17,1.533,8.348,2.367,12.53
					c1.548,7.8-3.516,15.389-11.322,16.946c-7.439,1.177-15.389-3.516-16.954-11.328c-0.869-4.377-1.696-8.747-2.47-13.112
					c-3.679-20.73-6.335-41.898-7.89-62.907c-0.555-7.433,4.645-13.974,11.837-15.25
					C752.527,1395.653,753.017,1395.595,753.517,1395.549z M797.49,1552.163c7.628,23.13,16.753,45.996,27.132,67.953
					c3.4,7.201,0.328,15.778-6.871,19.186c-7.163,3.373-15.787,0.33-19.187-6.871c-10.879-23.011-20.451-46.984-28.444-71.238
					c-2.492-7.561,1.615-15.709,9.176-18.209c0.661-0.217,1.341-0.38,2.012-0.499C788.25,1541.254,795.216,1545.276,797.49,1552.163
					z M859.966,1684.211c13.041,20.526,27.51,40.443,43.013,59.218c5.062,6.133,4.196,15.221-1.939,20.283
					c-6.159,5.08-15.217,4.215-20.29-1.932c-16.258-19.683-31.431-40.589-45.111-62.103c-4.266-6.718-2.288-15.631,4.43-19.897
					c1.64-1.033,3.408-1.705,5.208-2.025C850.856,1676.765,856.736,1679.137,859.966,1684.211z M952.979,1796.875
					c17.704,16.726,36.614,32.509,56.18,46.875c6.419,4.721,7.798,13.739,3.083,20.149c-4.704,6.395-13.724,7.795-20.142,3.089
					c-20.529-15.081-40.344-31.618-58.916-49.162c-5.786-5.463-6.041-14.593-0.578-20.38c2.211-2.323,5.006-3.761,7.944-4.283
					C944.893,1792.392,949.527,1793.613,952.979,1796.875z M1070.679,1883.416c21.231,11.912,43.392,22.616,65.882,31.833
					c7.359,3.01,10.884,11.432,7.868,18.799c-3.016,7.368-11.429,10.906-18.801,7.868c-23.568-9.653-46.8-20.881-69.054-33.356
					c-6.938-3.9-9.411-12.681-5.519-19.617c2.199-3.921,5.958-6.417,10.061-7.145
					C1064.281,1881.236,1067.655,1881.724,1070.679,1883.416z M1205.819,1938.764c23.467,6.384,47.547,11.358,71.589,14.781
					c7.874,1.119,13.357,8.421,12.233,16.296c-1.126,7.875-8.396,13.34-16.302,12.241c-25.207-3.588-50.476-8.81-75.091-15.505
					c-7.676-2.096-12.211-10.01-10.122-17.685c1.515-5.557,6.081-9.47,11.395-10.413
					C1201.553,1938.119,1203.693,1938.182,1205.819,1938.764z M1350.331,1959.37c24.24,0.429,48.83-0.661,73.092-3.251
					c7.914-0.834,15.012,4.897,15.852,12.81c0.848,7.91-4.89,14.89-12.806,15.866c-25.435,2.698-51.218,3.844-76.64,3.395
					c-7.959-0.145-14.298-6.71-14.159-14.668c0.122-6.997,5.227-12.748,11.878-13.928
					C1348.448,1959.434,1349.378,1959.354,1350.331,1959.37z M1584.206,1931.53c2.742,7.474-1.093,15.745-8.569,18.487
					c-20.686,7.588-42.145,14.168-63.716,19.555c-3.275,0.837-6.545,1.618-9.825,2.386c-7.66,2.017-15.501-3.023-17.289-10.797
					c-1.798-7.756,3.033-15.488,10.789-17.293c3.078-0.704,6.153-1.451,9.277-2.248c20.649-5.15,41.118-11.427,60.845-18.659
					c0.812-0.301,1.638-0.519,2.455-0.664C1574.93,1921.098,1581.767,1924.873,1584.206,1931.53z"/>
			</g>
			<g style="opacity:0.3;">
				
					<linearGradient id="SVGID_00000072248688784321138260000010984323433729845170_" gradientUnits="userSpaceOnUse" x1="4633.1206" y1="-928.3087" x2="5481.7422" y2="-928.3087" gradientTransform="matrix(0.9846 -0.1747 -0.1747 -0.9846 -3725.9841 878.2706)">
					<stop  offset="0" style="stop-color:#FE7062"/>
					<stop  offset="1" style="stop-color:#FF928E"/>
				</linearGradient>
				<path style="fill:url(#SVGID_00000072248688784321138260000010984323433729845170_);" d="M1260.858,751.382
					c24.785-4.069,50.033-6.649,75.046-7.701c7.947-0.324,14.667,5.845,14.999,13.804c0.334,7.96-5.906,14.599-13.804,14.999
					c-23.852,0.989-47.934,3.461-71.58,7.343c-7.853,1.294-15.266-4.037-16.552-11.885c-1.276-7.792,3.95-15.152,11.696-16.526
					C1260.726,751.406,1260.796,751.393,1260.858,751.382z M1205.094,777.888c2.219,7.639-2.178,15.638-9.819,17.852
					c-22.991,6.681-45.81,14.819-67.823,24.199c-7.287,3.08-15.788-0.285-18.905-7.622c-3.122-7.322,0.287-15.774,7.608-18.902
					c23.07-9.826,46.984-18.358,71.079-25.349c0.51-0.148,1.01-0.266,1.523-0.357
					C1195.908,766.439,1203.017,770.738,1205.094,777.888z M1411.388,745.165c25.047,2.045,50.182,5.631,74.704,10.67
					c7.796,1.604,12.822,9.23,11.217,17.019c-1.595,7.802-9.193,12.795-17.011,11.224c-23.394-4.812-47.364-8.233-71.261-10.195
					c-7.934-0.65-13.836-7.607-13.19-15.526c0.546-6.672,5.548-11.905,11.84-13.022
					C1408.879,745.125,1410.118,745.062,1411.388,745.165z M1068.327,832.462c3.994,6.882,1.644,15.703-5.238,19.697
					c-20.709,12.009-40.88,25.409-59.959,39.842c-6.347,4.786-15.389,3.531-20.185-2.792c-4.801-6.352-3.553-15.392,2.798-20.193
					c20.004-15.142,41.165-29.203,62.887-41.792c1.504-0.867,3.097-1.435,4.71-1.721
					C1059.133,824.474,1065.207,827.083,1068.327,832.462z M1558.906,775.502c23.766,7.989,47.291,17.521,69.934,28.326
					c7.183,3.428,10.226,12.036,6.798,19.219c-3.428,7.185-12.026,10.24-19.219,6.799c-21.592-10.319-44.029-19.402-66.699-27.013
					c-7.54-2.536-11.605-10.705-9.064-18.259c1.733-5.168,6.13-8.706,11.153-9.598
					C1554.102,774.569,1556.536,774.708,1558.906,775.502z M1694.86,840.352c21.203,13.476,41.776,28.364,61.145,44.236
					c6.153,5.041,7.057,14.113,2.01,20.269c-5.033,6.154-14.119,7.065-20.283,2.013c-18.472-15.132-38.102-29.329-58.336-42.191
					c-6.717-4.267-8.699-13.178-4.431-19.895c2.257-3.546,5.807-5.777,9.652-6.46C1688.04,837.717,1691.696,838.342,1694.86,840.352
					z M1811.385,935.894c17.375,18.17,33.782,37.571,48.764,57.639c4.763,6.387,3.449,15.41-2.93,20.173
					c-6.374,4.762-15.407,3.435-20.166-2.924c-14.283-19.148-29.929-37.641-46.502-54.954c-5.502-5.755-5.299-14.882,0.458-20.378
					c2.13-2.05,4.725-3.296,7.427-3.776C1803.023,930.86,1807.92,932.278,1811.385,935.894z"/>
				
					<linearGradient id="SVGID_00000074435919244533255790000012959398881139748995_" gradientUnits="userSpaceOnUse" x1="4539.8345" y1="-875.2439" x2="4597.8711" y2="-875.2439" gradientTransform="matrix(0.9846 -0.1747 -0.1747 -0.9846 -3725.9841 878.2706)">
					<stop  offset="0" style="stop-color:#FE7062"/>
					<stop  offset="1" style="stop-color:#FF928E"/>
				</linearGradient>
				<path style="fill:url(#SVGID_00000074435919244533255790000012959398881139748995_);" d="M935.425,914.765
					c-2.737,0.486-5.361,1.767-7.508,3.848c-8.853,8.589-17.487,17.482-25.677,26.425c-5.369,5.871-4.973,14.991,0.898,20.367
					c5.874,5.346,14.981,4.96,20.367-0.899c7.805-8.532,16.048-17.013,24.491-25.215c5.712-5.544,5.843-14.672,0.3-20.378
					C944.834,915.353,939.977,913.957,935.425,914.765z"/>
			</g>
			<g>
				
					<linearGradient id="SVGID_00000062899526570554050440000009639680384505502597_" gradientUnits="userSpaceOnUse" x1="-6572.7783" y1="-4944.1143" x2="-1471.8678" y2="1918.26" gradientTransform="matrix(-0.9937 0.112 -0.112 -0.9937 -2453.3113 692.9441)">
					<stop  offset="0" style="stop-color:#FE7062"/>
					<stop  offset="1" style="stop-color:#FF928E"/>
				</linearGradient>
				<path style="fill:url(#SVGID_00000062899526570554050440000009639680384505502597_);" d="M927.853,1189.02
					c-1.515,2.72-1.141,6.101,0.935,8.421l59.224,66.19c-11.412,39.877-16.546,81.859-14.563,124.498l-72.821,50.75
					c-2.554,1.781-3.697,4.984-2.848,7.98l29.093,102.484c0.848,2.996,3.507,5.122,6.613,5.294l88.625,4.92
					c20.714,37.323,47.141,70.348,77.803,98.281l-15.616,87.432c-0.548,3.065,0.911,6.139,3.629,7.656l93.039,51.897
					c2.718,1.517,6.101,1.142,8.421-0.935l66.187-59.224c39.877,11.414,81.861,16.549,124.501,14.564l50.748,72.821
					c1.781,2.554,4.984,3.698,7.979,2.848l102.487-29.092c2.996-0.851,5.119-3.508,5.292-6.615l4.921-88.625
					c37.322-20.714,70.348-47.141,98.279-77.804l87.434,15.618c3.064,0.547,6.14-0.91,7.655-3.629l51.898-93.041
					c1.516-2.718,1.139-6.099-0.935-8.418l-59.226-66.191c11.414-39.876,16.549-81.859,14.565-124.498l72.821-50.75
					c2.555-1.778,3.698-4.983,2.848-7.979l-29.092-102.487c-0.85-2.995-3.506-5.12-6.615-5.292l-88.624-4.92
					c-20.714-37.322-47.142-70.348-77.804-98.281l15.617-87.432c0.548-3.064-0.909-6.138-3.629-7.656l-93.039-51.897
					c-2.719-1.517-6.101-1.141-8.422,0.934l-66.188,59.226c-39.877-11.414-81.86-16.548-124.5-14.564l-50.748-72.821
					c-1.781-2.553-4.984-3.697-7.98-2.847l-102.486,29.093c-2.995,0.85-5.121,3.507-5.292,6.615l-4.922,88.622
					c-37.322,20.714-70.346,47.143-98.279,77.804l-87.434-15.617c-3.064-0.548-6.139,0.911-7.655,3.629L927.853,1189.02z"/>
				<path style="opacity:0.7;fill:#FFFFFF;" d="M1359.11,1261.405c29.112-0.863,56.811,9.671,77.994,29.654
					c21.182,19.968,33.32,47.001,34.169,76.11c1.764,60.076-45.612,110.293-105.771,112.164
					c-60.086,1.745-110.393-45.701-112.148-105.765c-0.856-29.106,9.673-56.804,29.648-77.988
					c16.24-17.219,37.144-28.46,60.034-32.523C1348.296,1262.123,1353.672,1261.569,1359.11,1261.405z M1442.466,1368.022
					c-0.627-21.416-9.553-41.3-25.14-56.001c-15.578-14.688-35.956-22.435-57.364-21.809l0,0
					c-21.41,0.656-41.291,9.558-55.992,25.146c-14.695,15.572-22.434,35.956-21.809,57.357c1.296,44.195,38.299,79.093,82.495,77.81
					c3.989-0.122,7.896-0.529,11.715-1.207C1414.859,1442.487,1443.646,1408.219,1442.466,1368.022z"/>
				<path style="opacity:0.7;fill:#FFFFFF;" d="M1316.961,1104.281c-8.979,1.594-17.947,3.658-26.903,6.19
					c-17.78,5.042-35.065,11.897-51.416,20.402c-0.732,0.387-1.464,0.775-2.196,1.162c-5.657,3.005-8.487,9.239-7.432,15.227
					c0.258,1.454,0.75,2.897,1.479,4.267c3.735,7.027,12.462,9.653,19.487,5.947c15.189-8.085,31.32-14.563,47.937-19.271
					l0.007-0.001c0.911-0.261,1.831-0.509,2.739-0.757c39.43-10.785,80.054-11.334,118.816-2.205
					c21.04,4.957,41.54,12.783,60.999,23.408c0.159,0.086,0.316,0.172,0.475,0.258c0.485,0.273,0.966,0.53,1.444,0.802
					c56.602,31.578,97.528,83.304,115.225,145.656c2.297,8.068,4.159,16.186,5.605,24.334c9.721,54.82,0.368,110.852-27.117,160.14
					c-31.578,56.604-83.307,97.516-145.652,115.212c-62.316,17.663-127.865,10.056-184.473-21.507
					c-56.602-31.577-97.528-83.304-115.226-145.656c-2.258-7.932-4.096-15.954-5.527-24.018c-6.2-34.977-4.68-70.909,4.58-105.227
					c0.568-2.116,0.642-4.244,0.275-6.266c-0.944-5.321-4.866-9.9-10.434-11.399c-7.69-2.052-15.594,2.467-17.671,10.169
					c-10.358,38.4-12.063,78.611-5.135,117.731c1.603,9.035,3.659,18.004,6.178,26.877
					c19.806,69.767,65.589,127.636,128.925,162.963c63.326,35.316,136.594,43.926,206.374,24.066
					c69.761-19.798,127.631-65.573,162.952-128.915c30.76-55.129,41.218-117.818,30.34-179.151
					c-1.616-9.104-3.701-18.197-6.26-27.218C1587.009,1162.443,1452.33,1080.257,1316.961,1104.281z"/>
			</g>
		</g>
		<g>
			<g style="opacity:0.3;">
				
					<linearGradient id="SVGID_00000075149963451711131410000004196251803401890992_" gradientUnits="userSpaceOnUse" x1="4341.0732" y1="3032.3572" x2="4354.8535" y2="3032.3572" gradientTransform="matrix(0.5022 0.8648 0.8648 -0.5022 -2820.2249 -1594.3087)">
					<stop  offset="0" style="stop-color:#FE7062"/>
					<stop  offset="1" style="stop-color:#FF928E"/>
				</linearGradient>
				<path style="fill:url(#SVGID_00000075149963451711131410000004196251803401890992_);" d="M1996.536,638.579
					c-1.137-1.958-3.463-3.021-5.775-2.452c-4.316,1.059-8.66,2.262-12.908,3.579c-2.761,0.856-4.305,3.786-3.45,6.55
					c0.846,2.769,3.789,4.305,6.55,3.45c4.048-1.255,8.188-2.403,12.307-3.414c2.806-0.687,4.522-3.522,3.837-6.332
					C1996.973,639.464,1996.781,639.002,1996.536,638.579z"/>
				
					<linearGradient id="SVGID_00000008135886919850115650000017813653959591362992_" gradientUnits="userSpaceOnUse" x1="4335.4951" y1="2877.5513" x2="4605.5728" y2="2877.5513" gradientTransform="matrix(0.5022 0.8648 0.8648 -0.5022 -2820.2249 -1594.3087)">
					<stop  offset="0" style="stop-color:#FE7062"/>
					<stop  offset="1" style="stop-color:#FF928E"/>
				</linearGradient>
				<path style="fill:url(#SVGID_00000008135886919850115650000017813653959591362992_);" d="M1958.719,652.203
					c1.188,2.635,0.02,5.735-2.617,6.926c-6.649,3.007-13.221,6.389-19.53,10.053c-1.33,0.773-2.657,1.564-3.98,2.371
					c-2.468,1.501-5.689,0.72-7.194-1.749c-1.329-2.391-0.72-5.689,1.75-7.197c1.385-0.842,2.773-1.67,4.165-2.478
					c6.614-3.841,13.505-7.387,20.478-10.538c2.467-1.117,5.347-0.158,6.679,2.136
					C1958.56,651.878,1958.641,652.038,1958.719,652.203z M1910.771,686.74c-6.94,5.487-13.603,11.453-19.8,17.733
					c-2.033,2.058-5.342,2.08-7.403,0.049c-2.044-2.023-2.082-5.345-0.049-7.403c6.494-6.582,13.479-12.838,20.757-18.59
					c2.269-1.793,5.561-1.409,7.357,0.859c0.156,0.198,0.297,0.41,0.421,0.624C1913.34,682.227,1912.837,685.105,1910.771,686.74z
					 M1873.512,724.526c-5.376,7.009-10.367,14.43-14.839,22.061c-1.461,2.492-4.67,3.33-7.162,1.868
					c-2.501-1.468-3.336-4.666-1.872-7.163c4.688-8.002,9.927-15.786,15.562-23.137c1.76-2.293,5.048-2.73,7.341-0.97
					c0.557,0.431,1.007,0.95,1.341,1.524C1874.916,720.489,1874.84,722.791,1873.512,724.526z M1846.675,770.312
					c-3.498,8.127-6.524,16.547-8.985,25.014c-0.81,2.779-3.715,4.374-6.49,3.565c-2.769-0.807-4.372-3.71-3.566-6.487
					c2.585-8.885,5.755-17.708,9.424-26.233c1.142-2.656,4.225-3.881,6.881-2.739c1.068,0.465,1.908,1.239,2.452,2.176
					C1847.196,766.994,1847.357,768.728,1846.675,770.312z M1831.83,821.263c-1.416,8.729-2.304,17.625-2.643,26.448
					c-0.109,2.886-2.543,5.139-5.432,5.029c-2.89-0.11-5.146-2.539-5.029-5.433c0.354-9.245,1.287-18.572,2.767-27.72
					c0.465-2.853,3.153-4.792,6.005-4.33c1.612,0.261,2.932,1.232,3.693,2.541C1831.776,818.808,1832.03,820.02,1831.83,821.263z
					 M1829.803,874.273c0.749,8.803,2.056,17.639,3.886,26.268c0.6,2.826-1.207,5.608-4.034,6.206
					c-2.827,0.598-5.599-1.201-6.21-4.035c-1.92-9.048-3.29-18.32-4.076-27.553c-0.242-2.88,1.892-5.415,4.771-5.659
					c2.085-0.176,3.99,0.893,4.974,2.589C1829.491,872.737,1829.736,873.475,1829.803,874.273z M1840.797,926.147
					c2.877,8.323,6.316,16.577,10.226,24.532c1.271,2.596,0.202,5.733-2.393,7.006c-2.593,1.276-5.69,0.189-7.01-2.39
					c-4.093-8.341-7.7-16.995-10.718-25.724c-0.943-2.733,0.506-5.715,3.238-6.66c2.403-0.831,5.001,0.193,6.234,2.315
					C1840.541,925.513,1840.684,925.82,1840.797,926.147z M1879.467,1002.467c-2.208,1.868-5.508,1.591-7.376-0.617
					c-5.169-6.111-10.091-12.612-14.619-19.299c-0.694-1.013-1.369-2.031-2.04-3.055c-1.643-2.362-0.902-5.666,1.527-7.245
					c2.422-1.581,5.662-0.897,7.246,1.524c0.624,0.962,1.262,1.919,1.924,2.885c4.333,6.402,9.027,12.603,13.955,18.432
					c0.204,0.239,0.381,0.494,0.533,0.755C1881.869,998.001,1881.434,1000.805,1879.467,1002.467z"/>
			</g>
			<g style="opacity:0.3;">
				
					<linearGradient id="SVGID_00000102519320675977177290000015632119988622899843_" gradientUnits="userSpaceOnUse" x1="4456.0239" y1="3136.4587" x2="4764.2739" y2="3136.4587" gradientTransform="matrix(0.5022 0.8648 0.8648 -0.5022 -2820.2249 -1594.3087)">
					<stop  offset="0" style="stop-color:#FE7062"/>
					<stop  offset="1" style="stop-color:#FF928E"/>
				</linearGradient>
				<path style="fill:url(#SVGID_00000102519320675977177290000015632119988622899843_);" d="M2241.774,744.948
					c4.48,7.949,8.509,16.241,11.988,24.643c1.102,2.671-0.165,5.733-2.839,6.839c-2.674,1.107-5.717-0.194-6.839-2.839
					c-3.313-8.014-7.16-15.922-11.434-23.505c-1.421-2.518-0.527-5.712,1.99-7.13c2.499-1.407,5.662-0.542,7.097,1.929
					C2241.75,744.906,2241.762,744.928,2241.774,744.948z M2225.775,729.229c-2.329,1.71-5.607,1.208-7.315-1.123
					c-5.147-7.011-10.77-13.781-16.716-20.121c-1.96-2.102-1.872-5.422,0.243-7.401c2.109-1.978,5.417-1.869,7.398,0.238
					c6.23,6.645,12.124,13.74,17.514,21.089c0.114,0.155,0.217,0.311,0.312,0.475
					C2228.536,724.667,2227.956,727.628,2225.775,729.229z M2262.671,795.53c2.427,8.801,4.338,17.823,5.677,26.818
					c0.425,2.86-1.55,5.526-4.407,5.95c-2.861,0.429-5.512-1.54-5.951-4.404c-1.276-8.582-3.099-17.186-5.41-25.584
					c-0.768-2.788,0.87-5.67,3.652-6.437c2.344-0.646,4.754,0.408,5.919,2.415C2262.372,794.669,2262.548,795.084,2262.671,795.53z
					 M2190.097,689.374c-1.85,2.221-5.153,2.519-7.373,0.67c-6.68-5.568-13.768-10.778-21.072-15.487
					c-2.425-1.569-3.125-4.81-1.565-7.235c1.568-2.43,4.808-3.132,7.238-1.564c7.661,4.936,15.098,10.402,22.102,16.243
					c0.484,0.405,0.876,0.878,1.175,1.392C2191.676,685.241,2191.543,687.639,2190.097,689.374z M2270.72,849.643
					c0.239,9.105-0.079,18.32-0.941,27.393c-0.274,2.878-2.831,4.99-5.709,4.716c-2.879-0.273-4.994-2.826-4.717-5.709
					c0.827-8.654,1.128-17.442,0.897-26.125c-0.075-2.889,2.205-5.295,5.099-5.37c1.979-0.053,3.735,1.006,4.666,2.608
					C2270.44,847.888,2270.696,848.736,2270.72,849.643z M2265.553,904.117c-1.953,8.915-4.466,17.791-7.466,26.379
					c-0.952,2.728-3.935,4.168-6.665,3.214c-2.727-0.95-4.172-3.936-3.217-6.669c2.858-8.19,5.254-16.658,7.118-25.165
					c0.618-2.824,3.411-4.612,6.235-3.993c1.491,0.328,2.695,1.261,3.408,2.487C2265.601,901.461,2265.844,902.786,2265.553,904.117
					z M2247.49,955.789c-4.032,8.194-8.604,16.212-13.583,23.827c-1.585,2.422-4.827,3.099-7.248,1.516
					c-2.42-1.581-3.094-4.828-1.518-7.245c4.751-7.261,9.109-14.906,12.949-22.72c1.277-2.595,4.416-3.664,7.01-2.385
					c0.965,0.471,1.714,1.201,2.215,2.063C2248.165,952.308,2248.292,954.156,2247.49,955.789z"/>
				
					<linearGradient id="SVGID_00000067235991477636491200000003509133615767804567_" gradientUnits="userSpaceOnUse" x1="4422.1382" y1="3155.7378" x2="4443.2192" y2="3155.7378" gradientTransform="matrix(0.5022 0.8648 0.8648 -0.5022 -2820.2249 -1594.3087)">
					<stop  offset="0" style="stop-color:#FE7062"/>
					<stop  offset="1" style="stop-color:#FF928E"/>
				</linearGradient>
				<path style="fill:url(#SVGID_00000067235991477636491200000003509133615767804567_);" d="M2145.44,654.297
					c-0.507-0.873-1.271-1.609-2.25-2.081c-4.035-1.949-8.146-3.786-12.218-5.464c-2.673-1.1-5.735,0.173-6.837,2.847
					c-1.092,2.671,0.176,5.73,2.847,6.836c3.884,1.599,7.806,3.353,11.657,5.211c2.604,1.257,5.735,0.163,6.99-2.439
					C2146.413,657.58,2146.284,655.749,2145.44,654.297z"/>
			</g>
			<g>
				
					<linearGradient id="SVGID_00000103959612245854460840000016253169788272465044_" gradientUnits="userSpaceOnUse" x1="3261.1304" y1="-532.5197" x2="1895.5048" y2="1025.3029">
					<stop  offset="0" style="stop-color:#FE7062"/>
					<stop  offset="1" style="stop-color:#FF928E"/>
				</linearGradient>
				<path style="fill:url(#SVGID_00000103959612245854460840000016253169788272465044_);" d="M2050.927,685.922
					c-1.117-0.178-2.224,0.372-2.757,1.37l-15.195,28.462c-15.028,1.08-29.992,4.565-44.292,10.56l-26.398-18.515
					c-0.926-0.649-2.161-0.64-3.078,0.024l-31.336,22.709c-0.917,0.663-1.31,1.835-0.981,2.917l9.376,30.85
					c-10.15,11.722-18.121,24.858-23.827,38.803l-31.777,5.578c-1.114,0.195-1.981,1.076-2.16,2.193l-6.101,38.216
					c-0.179,1.117,0.371,2.224,1.37,2.756l28.461,15.194c1.08,15.029,4.565,29.993,10.56,44.293l-18.515,26.397
					c-0.649,0.926-0.64,2.162,0.024,3.077l22.709,31.338c0.664,0.916,1.835,1.309,2.917,0.98l30.851-9.375
					c11.722,10.15,24.858,18.121,38.803,23.826l5.577,31.778c0.196,1.114,1.076,1.981,2.193,2.159l38.217,6.101
					c1.116,0.178,2.223-0.372,2.756-1.369l15.195-28.463c15.028-1.08,29.992-4.564,44.292-10.56l26.398,18.515
					c0.925,0.65,2.161,0.64,3.077-0.024l31.338-22.709c0.916-0.664,1.309-1.835,0.98-2.917l-9.375-30.85
					c10.15-11.722,18.121-24.858,23.826-38.803l31.778-5.577c1.114-0.195,1.981-1.076,2.159-2.193l6.101-38.216
					c0.178-1.117-0.372-2.224-1.369-2.757l-28.462-15.195c-1.08-15.029-4.565-29.992-10.56-44.293l18.515-26.397
					c0.649-0.926,0.639-2.162-0.024-3.078l-22.709-31.337c-0.664-0.915-1.835-1.31-2.917-0.98l-30.85,9.375
					c-11.722-10.15-24.858-18.12-38.803-23.826l-5.577-31.778c-0.195-1.114-1.077-1.981-2.193-2.159L2050.927,685.922z"/>
				<path style="opacity:0.7;fill:#FFFFFF;" d="M2080.021,842.085c3.926,9.825,3.787,20.589-0.389,30.309
					c-4.171,9.718-11.88,17.23-21.705,21.151c-20.276,8.095-43.318-1.805-51.461-22.096c-8.09-20.282,1.823-43.364,22.096-51.454
					c9.824-3.923,20.587-3.785,30.305,0.388c7.9,3.393,14.343,9.123,18.584,16.426
					C2078.427,838.485,2079.287,840.25,2080.021,842.085z M2054.043,883.822c7.229-2.885,12.899-8.41,15.97-15.562
					c3.068-7.147,3.169-15.066,0.286-22.292l0,0c-2.894-7.223-8.412-12.895-15.563-15.967c-7.146-3.071-15.066-3.169-22.289-0.287
					c-14.917,5.955-22.208,22.932-16.257,37.851c0.539,1.346,1.165,2.628,1.873,3.846
					C2025.194,883.691,2040.476,889.239,2054.043,883.822z"/>
				<path style="opacity:0.7;fill:#FFFFFF;" d="M2128.371,808.106c-1.664-2.865-3.486-5.667-5.468-8.406
					c-3.938-5.437-8.433-10.479-13.374-14.997c-0.223-0.201-0.447-0.403-0.67-0.604c-1.731-1.555-4.211-1.743-6.122-0.636
					c-0.464,0.27-0.895,0.617-1.271,1.037c-1.932,2.151-1.739,5.456,0.402,7.39c4.653,4.174,8.875,8.869,12.554,13.951l0.001,0.002
					c0.203,0.278,0.402,0.561,0.6,0.84c8.598,12.107,13.852,25.899,15.572,40.262c0.933,7.797,0.82,15.767-0.378,23.731
					c-0.01,0.065-0.019,0.129-0.029,0.194c-0.032,0.199-0.06,0.396-0.094,0.593c-3.714,23.25-16.257,43.665-35.322,57.48
					c-2.466,1.79-5.003,3.438-7.603,4.948c-17.491,10.154-37.774,13.952-58.018,10.723c-23.251-3.714-43.661-16.259-57.475-35.323
					c-13.799-19.057-19.38-42.37-15.672-65.62c3.713-23.25,16.256-43.665,35.322-57.48c2.424-1.76,4.932-3.387,7.505-4.882
					c11.16-6.478,23.609-10.441,36.472-11.562c0.793-0.07,1.528-0.31,2.172-0.688c1.698-0.986,2.771-2.895,2.588-4.982
					c-0.259-2.879-2.787-5.012-5.673-4.76c-14.393,1.256-28.325,5.69-40.807,12.933c-2.882,1.674-5.686,3.494-8.399,5.46
					c-21.333,15.46-35.365,38.297-39.518,64.313c-4.15,26.01,2.051,52.081,17.53,73.412c15.456,21.331,38.292,35.366,64.308,39.516
					c22.646,3.618,45.338-0.633,64.906-11.994c2.905-1.687,5.747-3.532,8.505-5.531
					C2142.211,907.495,2153.452,851.294,2128.371,808.106z"/>
			</g>
		</g>
	</g>
</g>
</svg>
