<?xml version="1.0" encoding="utf-8"?>
<!-- Generator: Adobe Illustrator 27.5.0, SVG Export Plug-In . SVG Version: 6.00 Build 0)  -->
<svg version="1.1" xmlns="http://www.w3.org/2000/svg" xmlns:xlink="http://www.w3.org/1999/xlink" x="0px" y="0px"
	 viewBox="0 0 500 500" style="enable-background:new 0 0 500 500;" xml:space="preserve">
<g id="Floor">
	<g id="Floor_1_">
		<ellipse id="Floor_16_" style="fill:#E6E6E6;" cx="249.343" cy="337.469" rx="239.657" ry="135.316"/>
		<ellipse id="Floor_3_" style="opacity:0.8;fill:#E6E6E6;" cx="249.343" cy="337.469" rx="239.657" ry="135.316"/>
	</g>
</g>
<g id="Shadows">
	<path id="Shadow_7_" style="opacity:0.1;" d="M270.439,324.083l45.287-26.144c0.567-0.327,1.486-0.327,2.052,0.001l66.236,38.312
		c0.567,0.328,0.566,0.859,0,1.186l-45.286,26.146c-0.567,0.327-1.486,0.327-2.052-0.001l-66.237-38.313
		C269.872,324.941,269.872,324.41,270.439,324.083z"/>
	<g id="Shadows_1_" style="opacity:0.1;">
		<path id="Shadow_12_" d="M62.992,371.187l-19.005-10.972c-1.134-0.655-1.134-1.716,0-2.371l230.838-133.287
			c1.134-0.655,2.972-0.655,4.106,0l19.016,10.979c1.134,0.655,1.134,1.716,0,2.371L67.098,371.187
			C65.964,371.842,64.126,371.842,62.992,371.187z"/>
		<path id="Shadow_37_" d="M260.169,222.326l40.92-23.636c0.907-0.524,2.377-0.524,3.284,0l50.273,29.032
			c0.907,0.524,0.907,1.373,0,1.897l-40.92,23.637c-0.907,0.524-2.378,0.524-3.285,0l-50.273-29.033
			C259.263,223.699,259.263,222.85,260.169,222.326z"/>
	</g>
	<path id="Shadow_36_" style="opacity:0.1;" d="M159.373,419.5l51.576-29.947c1.099-0.635,2.881-0.635,3.98,0l60.919,35.18
		c1.099,0.635,1.099,1.664,0,2.299l-51.576,29.948c-1.099,0.635-2.881,0.635-3.98,0l-60.919-35.181
		C158.274,421.164,158.274,420.134,159.373,419.5z"/>
	<path id="Shadow_35_" style="opacity:0.1;" d="M93.953,404.567l-11.302-6.525c-1.134-0.655-1.134-1.716,0-2.371l69.077-39.882
		c1.134-0.655,2.972-0.655,4.106,0l11.302,6.525c1.134,0.655,1.134,1.716,0,2.371l-69.077,39.882
		C96.925,405.222,95.087,405.222,93.953,404.567z"/>
	<path id="Shadow_34_" style="opacity:0.1;" d="M182.185,354.091l-11.302-6.525c-1.134-0.655-1.134-1.716,0-2.371l75.194-43.494
		c1.134-0.655,2.972-0.655,4.106,0l11.302,6.525c1.134,0.655,1.134,1.716,0,2.37l-75.194,43.494
		C185.157,354.746,183.319,354.746,182.185,354.091z"/>
	<path id="Shadow_14_" style="opacity:0.1;" d="M400.402,381.577c-5.621,0.04-11.372-0.647-16.387-3.178
		c-1.595-0.805-3.3-2.179-3.094-3.954c0.185-1.594,1.842-2.578,3.388-3.008c3.125-0.868,6.45-0.507,9.671-0.892
		c5.104-0.611,9.78-3.069,14.715-4.509c0.995-0.29,2.003-0.54,3.018-0.752c3.883-0.809,7.85-1.039,11.809-0.985
		c1.749,0.024,3.119,0.034,4.864,0.408c1.985,0.425,3.973,0.838,5.968,1.212c7.896,1.482,16.038,2.4,24.025,1.075
		c2.083-0.346,4.221-0.841,6.279-0.365c1.456,0.336,3.667,1.718,3.702,3.443c0.027,1.343-2.018,3.089-2.95,3.916
		c-6.169,5.479-14.777,7.371-23.025,7.588c-8.248,0.218-16.479-1.029-24.729-0.897c-5.688,0.091-11.352,0.837-17.04,0.896
		C400.544,381.576,400.473,381.577,400.402,381.577z"/>
</g>
<g id="Plant">
	<g id="Plants_19_">
		<g id="XMLID_3911_">
			<g id="XMLID_3914_">
				<path id="XMLID_3916_" style="fill:#27DEBF;" d="M67.831,332.926c0.728-8.295-3.762-26.003-11.424-37.529
					c-7.661-11.526-20.503-20.59-30.405-18.145c-9.222,2.277-9.284,14.108,0.895,22.845c10.179,8.737,25.649,19.949,29.245,33.824
					l8.573,17.388L67.831,332.926z"/>
				<path id="XMLID_3915_" style="opacity:0.1;" d="M67.831,332.926c0.728-8.295-3.762-26.003-11.424-37.529
					c-7.661-11.526-20.503-20.59-30.405-18.145c-9.222,2.277-9.284,14.108,0.895,22.845c10.179,8.737,25.649,19.949,29.245,33.824
					l8.573,17.388L67.831,332.926z"/>
			</g>
			<g id="XMLID_3912_">
				<path id="XMLID_3913_" style="fill:#FFFFFF;" d="M67.446,344.33c-0.263-0.045-0.474-0.259-0.503-0.535
					c-3.068-28.802-23.952-53.829-37.215-60.118c-0.303-0.144-0.433-0.507-0.289-0.81c0.142-0.302,0.5-0.439,0.81-0.289
					c13.516,6.408,34.79,31.849,37.903,61.089c0.036,0.334-0.206,0.633-0.539,0.669C67.555,344.341,67.499,344.34,67.446,344.33z"/>
			</g>
		</g>
		<g id="XMLID_3906_">
			<g id="XMLID_3909_">
				<path id="XMLID_3910_" style="fill:#27DEBF;" d="M61.631,362.084c-0.923-4.78-5.942-12.974-14.595-20.139
					c-9.572-7.926-22.183-12.292-24.676-18.025c-2.994-6.887,3.093-12.612,13.446-10.395c10.353,2.217,27.502,18.115,28.555,39.874
					L61.631,362.084z"/>
			</g>
			<g id="XMLID_3907_">
				<path id="XMLID_3908_" style="fill:#FFFFFF;" d="M64.087,357.369c-0.229-0.039-0.424-0.207-0.487-0.446
					c-6.553-25.02-24.312-35.159-32.786-37.025c-0.328-0.072-0.535-0.397-0.464-0.725c0.072-0.329,0.384-0.538,0.725-0.464
					c9.371,2.063,27.014,12.367,33.702,37.905c0.085,0.324-0.11,0.658-0.435,0.743C64.256,357.38,64.169,357.383,64.087,357.369z"/>
			</g>
		</g>
	</g>
</g>
<g id="Boxes">
	<g id="Box_1_">
		<polygon id="XMLID_3747_" style="fill:#27DEBF;" points="312.085,249.122 312.085,220.324 349.493,198.727 349.493,227.524 		"/>
		<polygon id="XMLID_3746_" style="fill:#27DEBF;" points="312.085,220.324 265.323,193.327 265.323,222.124 312.085,249.122 		"/>
		<polygon id="XMLID_3745_" style="opacity:0.15;" points="312.085,220.324 265.323,193.327 265.323,222.124 312.085,249.122 		"/>
		<polygon id="XMLID_3734_" style="fill:#27DEBF;" points="312.085,220.324 350.601,198.077 302.732,170.433 264.215,192.681 		"/>
		<polygon id="XMLID_3732_" style="opacity:0.45;fill:#FFFFFF;" points="312.085,220.324 350.601,198.077 302.732,170.433 
			264.215,192.681 		"/>
		<polygon id="XMLID_3731_" style="fill:#27DEBF;" points="312.085,220.324 312.085,227.524 350.601,205.286 350.601,198.077 		"/>
		<polygon id="XMLID_3730_" style="opacity:0.2;" points="312.085,227.524 349.493,205.926 349.493,207.508 312.085,229.107 		"/>
		<polygon id="XMLID_3729_" style="fill:#27DEBF;" points="264.215,192.681 312.085,220.324 312.085,227.524 264.215,199.886 		"/>
		<polygon id="XMLID_3728_" style="opacity:0.2;" points="264.215,192.681 312.085,220.324 312.085,227.524 264.215,199.886 		"/>
		<polygon id="XMLID_3727_" style="opacity:0.2;" points="312.085,227.524 265.323,200.526 265.324,202.109 312.084,229.107 		"/>
		<path id="XMLID_3726_" style="fill:#455A64;" d="M324.4,224.701l12.779-7.378c0.551-0.318,0.997-0.06,0.997,0.576v7.556
			c0,0.636-0.446,1.409-0.997,1.727l-12.779,7.377c-0.551,0.318-0.997,0.06-0.997-0.576v-7.555
			C323.403,225.792,323.849,225.019,324.4,224.701z"/>
		<path id="XMLID_3725_" style="fill:#F5F5F5;" d="M325.218,225.558l11.141-6.432c0.367-0.212,0.665-0.04,0.665,0.384v5.664
			c0,0.424-0.298,0.939-0.665,1.151l-11.141,6.432c-0.367,0.212-0.665,0.04-0.665-0.384l0-5.664
			C324.554,226.285,324.851,225.77,325.218,225.558z"/>
		<g style="opacity:0.5;">
			<g>
				<path style="fill:#455A64;" d="M325.529,227.054c-0.056,0-0.11-0.029-0.14-0.081c-0.044-0.077-0.018-0.177,0.059-0.221
					l10.52-6.073c0.076-0.045,0.176-0.019,0.221,0.059c0.044,0.077,0.018,0.177-0.059,0.221l-10.52,6.073
					C325.585,227.047,325.556,227.054,325.529,227.054z"/>
			</g>
			<g>
				<path style="fill:#455A64;" d="M325.529,228.444c-0.056,0-0.11-0.029-0.14-0.081c-0.044-0.077-0.018-0.177,0.059-0.221
					l10.52-6.073c0.076-0.045,0.176-0.018,0.221,0.059c0.044,0.077,0.018,0.177-0.059,0.221l-10.52,6.073
					C325.585,228.437,325.556,228.444,325.529,228.444z"/>
			</g>
			<g>
				<path style="fill:#455A64;" d="M325.529,229.835c-0.056,0-0.11-0.029-0.14-0.081c-0.044-0.077-0.018-0.177,0.059-0.221
					l10.52-6.073c0.076-0.044,0.176-0.019,0.221,0.059c0.044,0.077,0.018,0.177-0.059,0.221l-10.52,6.073
					C325.585,229.828,325.556,229.835,325.529,229.835z"/>
			</g>
			<g>
				<path style="fill:#455A64;" d="M325.529,231.226c-0.056,0-0.11-0.029-0.14-0.081c-0.044-0.077-0.018-0.177,0.059-0.221
					l10.52-6.073c0.076-0.044,0.176-0.018,0.221,0.059c0.044,0.077,0.018,0.177-0.059,0.221l-10.52,6.073
					C325.585,231.219,325.556,231.226,325.529,231.226z"/>
			</g>
		</g>
	</g>
	<g id="Box">
		<polygon id="XMLID_3724_" style="fill:#27DEBF;" points="312.085,216.705 312.085,187.908 349.493,166.31 349.493,195.107 		"/>
		<polygon id="XMLID_3723_" style="fill:#27DEBF;" points="312.085,187.908 265.323,160.91 265.323,189.707 312.085,216.705 		"/>
		<polygon id="XMLID_3721_" style="opacity:0.15;" points="312.085,187.908 265.323,160.91 265.323,189.707 312.085,216.705 		"/>
		<polygon id="XMLID_3720_" style="fill:#27DEBF;" points="312.085,187.908 350.601,165.66 302.732,138.017 264.215,160.264 		"/>
		<polygon id="XMLID_3719_" style="opacity:0.6;fill:#FFFFFF;" points="312.085,187.908 350.601,165.66 302.732,138.017 
			264.215,160.264 		"/>
		<polygon id="XMLID_3718_" style="fill:#27DEBF;" points="312.085,187.908 312.085,195.107 350.601,172.869 350.601,165.66 		"/>
		<polygon id="XMLID_3717_" style="opacity:0.2;" points="312.085,195.107 349.493,173.509 349.493,175.092 312.085,196.69 		"/>
		<polygon id="XMLID_3669_" style="fill:#27DEBF;" points="264.215,160.264 312.085,187.908 312.085,195.107 264.215,167.47 		"/>
		<polygon id="XMLID_3668_" style="opacity:0.2;" points="264.215,160.264 312.085,187.908 312.085,195.107 264.215,167.47 		"/>
		<polygon id="XMLID_3667_" style="opacity:0.2;" points="312.085,195.107 265.323,168.11 265.324,169.693 312.084,196.69 		"/>
		<path id="XMLID_3666_" style="fill:#455A64;" d="M324.4,192.284l12.779-7.378c0.551-0.318,0.997-0.06,0.997,0.576v7.556
			c0,0.636-0.446,1.409-0.997,1.727l-12.779,7.377c-0.551,0.318-0.997,0.06-0.997-0.576v-7.555
			C323.403,193.375,323.849,192.602,324.4,192.284z"/>
		<path id="XMLID_3665_" style="fill:#F5F5F5;" d="M325.218,193.141l11.141-6.432c0.367-0.212,0.665-0.04,0.665,0.384v5.664
			c0,0.424-0.298,0.939-0.665,1.151l-11.141,6.432c-0.367,0.212-0.665,0.04-0.665-0.384l0-5.664
			C324.554,193.868,324.851,193.353,325.218,193.141z"/>
		<g style="opacity:0.5;">
			<g>
				<path style="fill:#455A64;" d="M325.529,194.637c-0.056,0-0.11-0.029-0.14-0.081c-0.044-0.078-0.018-0.177,0.059-0.221
					l10.52-6.073c0.076-0.045,0.176-0.019,0.221,0.059c0.044,0.077,0.018,0.177-0.059,0.221l-10.52,6.073
					C325.585,194.63,325.556,194.637,325.529,194.637z"/>
			</g>
			<g>
				<path style="fill:#455A64;" d="M325.529,196.028c-0.056,0-0.11-0.029-0.14-0.081c-0.044-0.077-0.018-0.177,0.059-0.221
					l10.52-6.073c0.076-0.045,0.176-0.018,0.221,0.059c0.044,0.077,0.018,0.177-0.059,0.221l-10.52,6.073
					C325.585,196.021,325.556,196.028,325.529,196.028z"/>
			</g>
			<g>
				<path style="fill:#455A64;" d="M325.529,197.419c-0.056,0-0.11-0.029-0.14-0.081c-0.044-0.077-0.018-0.177,0.059-0.221
					l10.52-6.073c0.076-0.044,0.176-0.019,0.221,0.059c0.044,0.077,0.018,0.177-0.059,0.221l-10.52,6.073
					C325.585,197.411,325.556,197.419,325.529,197.419z"/>
			</g>
			<g>
				<path style="fill:#455A64;" d="M325.529,198.809c-0.056,0-0.11-0.029-0.14-0.081c-0.044-0.077-0.018-0.177,0.059-0.221
					l10.52-6.073c0.076-0.044,0.176-0.018,0.221,0.059c0.044,0.077,0.018,0.177-0.059,0.221l-10.52,6.073
					C325.585,198.802,325.556,198.809,325.529,198.809z"/>
			</g>
		</g>
	</g>
</g>
<g id="Window_1_">
	<g id="Window">
		<path id="XMLID_3891_" style="fill:#27DEBF;" d="M64.938,187.872c-1.035-0.598-4.071-3.363-4.071-4.638l-0.001-12.046
			c0-1.275,0.895-2.825,1.999-3.463L280.167,42.275c1.104-0.638,2.508-1.083,6.07,1.175c1.01,0.64,1.876,2.116,1.876,3.391
			l0.001,12.047c0,1.275-0.895,2.825-1.999,3.463L68.812,187.801C67.707,188.438,65.973,188.47,64.938,187.872z"/>
		<path id="XMLID_3890_" style="opacity:0.5;fill:#FFFFFF;" d="M288.09,46.515c-0.138-1.034-0.979-1.413-1.976-0.831L68.811,171.135
			c-0.545,0.323-1.044,0.868-1.413,1.496l-5.945-3.416c0.369-0.628,0.859-1.163,1.413-1.487L280.169,42.276
			c1.099-0.637,2.627-1.035,6.065,1.173C287.16,44.044,287.97,45.314,288.09,46.515z"/>
		<path id="XMLID_3889_" style="fill:#E6E6E6;" d="M68.432,366.176c-0.028,0.009-0.055,0.028-0.083,0.028
			c-0.065,0.037-0.129,0.055-0.194,0.074c-0.046,0.018-0.092,0.037-0.148,0.046c-0.083,0.028-0.175,0.055-0.277,0.065
			c-0.055,0.018-0.12,0.037-0.185,0.037c-0.092,0.018-0.203,0.037-0.305,0.046c-0.822,0.092-1.641-0.116-2.299-0.397
			c-3.748-1.604-4.07-3.361-4.07-4.635l-0.009-163.727l5.954,3.416v163.718c0,0.905,0.452,1.431,1.108,1.431
			c0.092,0,0.176-0.009,0.268-0.037c0.018,0,0.028,0,0.046-0.009C68.303,366.222,68.367,366.204,68.432,366.176z"/>
		<path id="XMLID_3888_" style="opacity:0.1;fill:#263238;" d="M67.398,172.631c-0.36,0.619-0.582,1.33-0.582,1.967v26.53
			l-5.954-3.416v-26.521c0-0.083,0-0.157,0.009-0.24c0.019-0.166,0.046-0.332,0.083-0.499c0.102-0.416,0.277-0.85,0.499-1.237
			L67.398,172.631z"/>
		<g id="XMLID_3885_">
			<path id="XMLID_3886_" style="fill:#F0F0F0;" d="M288.118,237.086c0,1.274-0.896,2.826-2.004,3.463L68.811,366.001
				c-1.099,0.637-1.995,0.12-1.995-1.154V185.282l5.504-3.176c1.099-0.637,2.89-10.333,3.998-10.97l47.696-27.539
				c1.108-0.637,3.711,6.522,4.81,5.885l159.285-91.959v15.846L288.118,237.086z"/>
		</g>
		<g id="XMLID_3844_">
			<path id="XMLID_3884_" style="fill:#FAFAFA;" d="M76.316,231.774l41.011-23.679c1.104-0.637,1.999-0.121,1.999,1.154v116.658
				c0,1.275-0.895,2.825-1.999,3.463l-41.011,23.678c-1.104,0.638-1.999,0.121-1.999-1.154l0-116.657
				C74.317,233.962,75.212,232.411,76.316,231.774z"/>
		</g>
		<g id="XMLID_3828_">
			<path id="XMLID_3832_" style="fill:#FAFAFA;" d="M128.828,240.435l69.951-40.461c1.104-0.638,1.999-0.121,1.999,1.154v77.677
				c0,1.275-0.895,2.825-1.999,3.463L128.83,322.73c-1.104,0.638-1.999,0.121-1.999-1.154l-0.002-77.678
				C126.829,242.623,127.724,241.073,128.828,240.435z"/>
		</g>
		<g id="XMLID_3833_">
			<path id="XMLID_3835_" style="fill:#FAFAFA;" d="M208.669,193.977l69.951-40.461c1.104-0.638,1.999-0.121,1.999,1.154v77.677
				c0,1.275-0.895,2.825-1.999,3.463l-69.949,40.463c-1.104,0.637-1.999,0.121-1.999-1.154l-0.002-77.678
				C206.669,196.164,207.564,194.614,208.669,193.977z"/>
		</g>
		<g id="XMLID_3773_">
			<path id="XMLID_3827_" style="fill:#455A64;" d="M76.316,201.455L278.62,84.652c1.104-0.637,1.999-0.121,1.999,1.154
				l-0.001,21.371c0,1.275-0.895,2.825-1.999,3.463L76.316,227.442c-1.104,0.637-1.999,0.121-1.999-1.154l0-21.37
				C74.317,203.643,75.212,202.092,76.316,201.455z"/>
			<g id="XMLID_3774_">
				<path id="XMLID_3826_" style="fill:#FAFAFA;" d="M205.6,137.943l0.001,3.727c0,0.762,0.54,1.074,1.2,0.693l58.815-33.957
					l0-6.497l-58.816,33.957C206.139,136.246,205.599,137.181,205.6,137.943z"/>
				<path id="XMLID_3825_" style="fill:#27DEBF;" d="M271.918,98.269c0.662-0.382,1.2-0.072,1.2,0.692v3.727
					c0,0.765-0.537,1.695-1.2,2.078l-6.303,3.639l0-6.497L271.918,98.269z"/>
				<path id="XMLID_3775_" style="fill:#FAFAFA;" d="M271.452,103.379l-0.703-0.219c0.072-0.298,0.113-0.605,0.113-0.906
					c0-0.719-0.233-1.266-0.641-1.501c-0.303-0.175-0.667-0.157-1.025,0.05c-0.788,0.455-1.405,1.739-1.405,2.923
					c0,0.719,0.234,1.266,0.641,1.501c0.138,0.079,0.289,0.119,0.446,0.119c0.187,0,0.384-0.056,0.579-0.169
					c0.474-0.273,0.882-0.849,1.135-1.52l0.704,0.22c0.026,0.008,0.052,0.012,0.078,0.012c0.111,0,0.214-0.071,0.249-0.183
					C271.666,103.568,271.589,103.422,271.452,103.379z M269.195,104.726c-0.195,0.113-0.364,0.13-0.503,0.049
					c-0.234-0.135-0.38-0.537-0.38-1.05c0-0.982,0.524-2.114,1.144-2.472c0.115-0.066,0.22-0.099,0.316-0.099
					c0.068,0,0.13,0.017,0.187,0.05c0.234,0.136,0.38,0.537,0.38,1.05C270.339,103.236,269.816,104.368,269.195,104.726z"/>
			</g>
		</g>
		<g id="XMLID_3770_">
			<path id="XMLID_3772_" style="fill:#FAFAFA;" d="M126.829,204.918v25.701c0,1.275,0.895,1.792,1.999,1.154l149.792-86.481
				c1.104-0.637,1.999-2.188,1.999-3.463l0-25.702c0-1.275-0.895-1.792-1.999-1.154l-149.792,86.482
				C127.724,202.092,126.829,203.643,126.829,204.918z"/>
		</g>
		<path id="XMLID_3769_" style="fill:#E0E0E0;" d="M288.108,57.522v15.846L66.816,201.129v-15.846l4.11-2.38
			c1.099-0.637,1.468-1.606,1.995-3.463l1.393-4.841c0.44-1.681,0.896-2.826,2.004-3.463l47.696-27.539
			c1.108-0.637,1.973-0.707,2.815,0.686l1.71,3.103c0.627,1.084,0.941,1.721,2.04,1.084L288.108,57.522z"/>
		<g id="XMLID_3765_">
			<path id="XMLID_3768_" style="fill:#FFFFFF;" d="M278.735,53.974c1.181-0.682,2.138-0.129,2.138,1.235
				c0,1.364-0.957,3.022-2.138,3.704c-1.181,0.682-2.138,0.129-2.138-1.235S277.554,54.656,278.735,53.974z"/>
			<path id="XMLID_3767_" style="fill:#FFFFFF;" d="M269.677,59.196c1.181-0.682,2.138-0.129,2.138,1.235
				c0,1.364-0.957,3.022-2.138,3.704c-1.181,0.682-2.138,0.129-2.138-1.235C267.539,61.536,268.496,59.878,269.677,59.196z"/>
			<path id="XMLID_3766_" style="fill:#FFFFFF;" d="M260.62,64.418c1.181-0.682,2.138-0.129,2.138,1.235s-0.957,3.022-2.138,3.704
				c-1.181,0.682-2.138,0.129-2.138-1.235S259.439,65.1,260.62,64.418z"/>
		</g>
		<path id="XMLID_3760_" style="fill:#FAFAFA;" d="M93.069,180.191v-3.098c0-1.275,0.895-2.825,1.999-3.463L274.86,69.882
			c1.104-0.638,1.999-0.121,1.999,1.154l0,3.097c0,1.275-0.895,2.825-1.999,3.463L95.068,181.345
			C93.964,181.982,93.069,181.466,93.069,180.191z"/>
		<g id="XMLID_3759_">
			<path style="fill:#455A64;" d="M272.274,78.169c-0.059,0-0.114-0.012-0.162-0.032c-0.154-0.064-0.306-0.24-0.27-0.545
				l0.177-1.478l-0.693-0.501c-0.121-0.087-0.189-0.229-0.192-0.401c-0.003-0.238,0.116-0.491,0.298-0.631l1.058-0.815
				c0.009-0.008,0.033-0.038,0.046-0.083l0.473-1.551c0.087-0.285,0.301-0.486,0.534-0.503c0.18-0.016,0.336,0.083,0.415,0.249
				l0.397,0.844l0.894-0.343c0.175-0.067,0.359-0.025,0.477,0.11c0.154,0.174,0.163,0.467,0.023,0.728l-0.765,1.437
				c-0.021,0.039-0.027,0.076-0.026,0.087l0.18,1.301c0.036,0.253-0.087,0.508-0.225,0.648c-0.121,0.124-0.273,0.184-0.42,0.163
				l-0.864-0.107l-0.934,1.192C272.561,78.108,272.408,78.169,272.274,78.169z M271.764,75.161l0.692,0.5
				c0.142,0.1,0.212,0.287,0.186,0.499l-0.118,0.984l0.625-0.799c0.131-0.168,0.305-0.249,0.476-0.228l0.864,0.107
				c0.018-0.031,0.033-0.074,0.031-0.096l-0.18-1.302c-0.021-0.145,0.012-0.315,0.093-0.466l0.67-1.257l-0.689,0.265
				c-0.221,0.08-0.451-0.009-0.548-0.219l-0.312-0.663l-0.421,1.379c-0.049,0.161-0.145,0.305-0.264,0.396l-1.057,0.815
				C271.793,75.09,271.774,75.127,271.764,75.161z M273.547,76.736c0.001,0,0.001,0,0.002,0H273.547z M274.569,76.234h0.002
				C274.569,76.234,274.569,76.234,274.569,76.234z M272.09,76.165c0.001,0.001,0.003,0.002,0.003,0.003L272.09,76.165z
				 M271.69,75.106L271.69,75.106C271.691,75.107,271.691,75.107,271.69,75.106z M273.391,72.144
				C273.392,72.144,273.392,72.144,273.391,72.144L273.391,72.144z"/>
		</g>
		<g style="opacity:0.3;">
			<path id="XMLID_3764_" d="M75.987,188.116l-3.139,1.812l1.197-2.302c0.105-0.202,0.116-0.454,0.024-0.562
				c-0.092-0.11-0.251-0.032-0.356,0.169l-1.703,3.275c-0.002,0.004-0.003,0.008-0.005,0.012c-0.019,0.038-0.033,0.079-0.046,0.121
				c-0.004,0.014-0.011,0.026-0.014,0.04c-0.014,0.056-0.022,0.113-0.022,0.169s0.008,0.104,0.022,0.144
				c0.003,0.01,0.01,0.015,0.014,0.024c0.013,0.027,0.027,0.052,0.046,0.068c0.002,0.002,0.003,0.005,0.005,0.007l1.703,1.309
				c0.048,0.037,0.107,0.034,0.166,0c0.07-0.04,0.14-0.125,0.19-0.242c0.092-0.215,0.081-0.454-0.024-0.535l-1.197-0.92l3.139-1.812
				c0.139-0.081,0.253-0.32,0.253-0.535C76.239,188.144,76.126,188.036,75.987,188.116z"/>
			<path id="XMLID_3763_" d="M78.608,186.602l3.139-1.812l-1.197-0.92c-0.105-0.081-0.116-0.32-0.024-0.535
				c0.092-0.215,0.251-0.322,0.356-0.242l1.703,1.309c0.002,0.002,0.003,0.005,0.005,0.007c0.019,0.016,0.033,0.041,0.046,0.068
				c0.004,0.009,0.011,0.014,0.014,0.024c0.014,0.04,0.022,0.088,0.022,0.144c0,0.056-0.008,0.113-0.022,0.169
				c-0.003,0.014-0.01,0.026-0.014,0.04c-0.013,0.042-0.027,0.083-0.046,0.121c-0.002,0.004-0.003,0.009-0.005,0.012l-1.703,3.275
				c-0.048,0.092-0.107,0.158-0.166,0.192c-0.07,0.041-0.14,0.036-0.19-0.023c-0.092-0.109-0.081-0.36,0.024-0.562l1.197-2.302
				l-3.139,1.812c-0.139,0.08-0.252-0.028-0.252-0.243C78.356,186.922,78.469,186.683,78.608,186.602z"/>
			<path id="XMLID_3762_" d="M88.904,177.564c-0.019-0.19-0.184-0.165-0.268,0.04l-0.43,1.051c-0.733-0.08-1.621,0.636-2.221,1.906
				c-0.777,1.646-0.777,3.593,0,4.341c0.389,0.374,0.899,0.378,1.41,0.083c0.51-0.295,1.021-0.889,1.409-1.711
				c0.099-0.209,0.099-0.455,0-0.55c-0.099-0.095-0.258-0.003-0.357,0.206c-0.58,1.227-1.525,1.774-2.105,1.215
				c-0.58-0.559-0.58-2.013,0-3.242c0.413-0.874,1.007-1.391,1.526-1.423l-0.324,0.792c-0.084,0.206-0.007,0.397,0.125,0.311
				l1.28-0.835c0.09-0.059,0.156-0.222,0.143-0.351L88.904,177.564z"/>
			<path id="XMLID_3761_" d="M123.641,150.03l1.144-2.422c0.135-0.286,0.135-0.624,0-0.754c-0.135-0.13-0.354-0.004-0.49,0.283
				l-1.144,2.422l-1.144-1.101c-0.135-0.13-0.354-0.004-0.49,0.283c-0.135,0.286-0.135,0.624,0,0.754l1.144,1.101l-1.144,2.422
				c-0.135,0.286-0.135,0.624,0,0.754c0.068,0.065,0.156,0.066,0.245,0.015c0.089-0.051,0.177-0.154,0.245-0.298l1.144-2.422
				l1.144,1.101c0.068,0.065,0.156,0.066,0.245,0.015c0.088-0.051,0.177-0.154,0.245-0.298c0.135-0.286,0.135-0.624,0-0.754
				L123.641,150.03z"/>
			<g id="XMLID_3752_">
				<g id="XMLID_3757_">
					<path id="XMLID_3758_" d="M279.217,68.791c-0.24,0-0.473-0.124-0.6-0.346c-0.191-0.331-0.077-0.755,0.253-0.946l5.626-3.249
						c0.333-0.192,0.755-0.077,0.946,0.253c0.191,0.331,0.078,0.755-0.253,0.946l-5.626,3.249
						C279.453,68.761,279.334,68.791,279.217,68.791z"/>
				</g>
				<g id="XMLID_3755_">
					<path id="XMLID_3756_" d="M279.217,72.041c-0.24,0-0.473-0.124-0.6-0.346c-0.191-0.331-0.077-0.755,0.253-0.946l5.626-3.249
						c0.333-0.193,0.755-0.078,0.946,0.253c0.191,0.331,0.078,0.755-0.253,0.946l-5.626,3.249
						C279.453,72.011,279.334,72.041,279.217,72.041z"/>
				</g>
				<g id="XMLID_3753_">
					<path id="XMLID_3754_" d="M279.217,75.29c-0.24,0-0.473-0.124-0.6-0.346c-0.191-0.331-0.077-0.755,0.253-0.946l5.626-3.249
						c0.333-0.193,0.755-0.078,0.946,0.253c0.191,0.331,0.078,0.755-0.253,0.946l-5.626,3.249
						C279.453,75.26,279.334,75.29,279.217,75.29z"/>
				</g>
			</g>
		</g>
		<polygon id="XMLID_3751_" style="fill:#E0E0E0;" points="66.816,185.282 66.816,201.129 60.862,197.712 60.862,181.875 		"/>
		<polygon id="XMLID_1348_" style="opacity:0.15;" points="66.816,185.282 66.816,201.129 60.862,197.712 60.862,181.875 		"/>
		<g>
			<g>
				<path style="fill:#27DEBF;" d="M105.249,263.169l0,25.072l-16.855,9.732l0-25.072L105.249,263.169 M105.249,262.306
					c-0.149,0-0.298,0.039-0.431,0.116l-16.855,9.732c-0.267,0.154-0.432,0.439-0.432,0.747l0,25.072
					c0,0.308,0.164,0.593,0.431,0.747c0.134,0.077,0.283,0.116,0.432,0.116c0.149,0,0.298-0.039,0.431-0.116l16.855-9.732
					c0.267-0.154,0.432-0.439,0.432-0.747l0-25.072c0-0.308-0.165-0.593-0.432-0.747
					C105.548,262.345,105.398,262.306,105.249,262.306L105.249,262.306z"/>
			</g>
			<g>
				<path style="fill:#27DEBF;" d="M102.721,268.866v7.264l-0.528,0.293c0,0,0-0.996,0-2.225c0-0.893-0.425-1.418-1.039-1.418
					c-0.23,0-0.487,0.074-0.758,0.23l-2.492,1.439v10.796c0,1.126,0.438,1.831,1.048,1.831c0.162,0,0.336-0.05,0.518-0.155
					c0.865-0.499,1.566-0.904,1.566-0.904v0.771l-8.428,4.866v-0.771l1.566-0.904c0.865-0.499,1.566-2.059,1.566-3.485v-10.796
					l-2.492,1.439c-0.992,0.573-1.797,2.034-1.797,3.263v2.225l-0.528,0.318v-7.264L102.721,268.866 M102.721,268.003
					c-0.149,0-0.298,0.039-0.431,0.116l-11.799,6.812c-0.267,0.154-0.431,0.439-0.431,0.747v7.264c0,0.311,0.167,0.598,0.438,0.751
					c0.132,0.075,0.278,0.112,0.425,0.112c0.154,0,0.308-0.041,0.445-0.124l0.528-0.318c0.259-0.156,0.418-0.437,0.418-0.74v-2.225
					c0-0.92,0.638-2.095,1.365-2.515l1.197-0.691v9.301c0,1.192-0.599,2.428-1.134,2.738l-1.566,0.904
					c-0.267,0.154-0.431,0.439-0.431,0.747v0.771c0,0.308,0.164,0.593,0.431,0.747c0.134,0.077,0.283,0.116,0.432,0.116
					s0.298-0.039,0.431-0.116l8.428-4.866c0.267-0.154,0.432-0.439,0.432-0.747v-0.771c0-0.308-0.165-0.593-0.432-0.747
					c-0.134-0.077-0.283-0.116-0.432-0.116c-0.149,0-0.298,0.038-0.432,0.116l-1.566,0.904c-0.024,0.014-0.043,0.023-0.057,0.028
					c-0.07-0.086-0.214-0.369-0.214-0.958v-10.298l2.061-1.19c0.179-0.104,0.288-0.115,0.327-0.115c0.095,0,0.176,0.254,0.176,0.555
					v2.225c0,0.306,0.162,0.588,0.425,0.743c0.135,0.08,0.287,0.12,0.438,0.12c0.144,0,0.288-0.036,0.418-0.108l0.528-0.292
					c0.274-0.152,0.445-0.441,0.445-0.755v-7.264c0-0.308-0.164-0.593-0.431-0.747C103.019,268.042,102.87,268.003,102.721,268.003
					L102.721,268.003z"/>
			</g>
		</g>
		<g>
			<g id="XMLID_3842_">
				<path style="fill:#27DEBF;" d="M152.365,273.018c-0.065,0-0.13-0.014-0.191-0.044c-0.214-0.106-0.302-0.364-0.196-0.578
					l5.007-10.151c0.176-0.271,0.413-0.419,0.678-0.455c0.27-0.035,0.532,0.045,0.733,0.219l4.264,2.801l0.56,0.114l-0.399-0.164
					l5.069-12.342c0.189-0.305,0.434-0.456,0.711-0.488c0.28-0.033,0.551,0.062,0.751,0.254l6.32,6.514
					c0.167,0.17,0.162,0.444-0.009,0.609c-0.169,0.167-0.443,0.163-0.609-0.009l-6.31-6.503l-5.124,12.293
					c-0.111,0.27-0.335,0.474-0.614,0.56c-0.28,0.087-0.577,0.043-0.82-0.118l-4.408-2.885l-5.025,10.131
					C152.677,272.93,152.523,273.018,152.365,273.018z"/>
			</g>
			<g id="XMLID_3837_">
				<path style="fill:#27DEBF;" d="M176.074,242.895h0.005H176.074 M175.173,243.415v22.737l-22.738,13.137v-22.735
					c0,0,0.001-0.001,0.002-0.002L175.173,243.415 M175.818,242.094c-0.053,0-0.113,0.017-0.176,0.054l-0.864,0.498l-22.813,13.181
					c-0.109,0.063-0.207,0.173-0.277,0.297c-0.072,0.121-0.115,0.259-0.115,0.386v23.819c0,0.178,0.089,0.281,0.217,0.281
					c0.053,0,0.112-0.017,0.174-0.053l23.678-13.679c0.219-0.127,0.395-0.432,0.395-0.683v-23.819
					C176.036,242.198,175.947,242.094,175.818,242.094L175.818,242.094z"/>
			</g>
			<g id="XMLID_3836_">
				<path style="fill:#27DEBF;" d="M159.559,259.561c-0.226,0-0.438-0.055-0.63-0.165c-0.439-0.254-0.681-0.752-0.681-1.403
					c0-1.169,0.793-2.543,1.805-3.127c0.562-0.324,1.115-0.366,1.556-0.111c0.44,0.254,0.681,0.752,0.681,1.403
					c0,1.169-0.794,2.543-1.806,3.127C160.167,259.469,159.852,259.561,159.559,259.561z M160.979,255.454
					c-0.141,0-0.311,0.055-0.494,0.16c-0.745,0.429-1.373,1.519-1.373,2.379c0,0.325,0.091,0.564,0.249,0.656
					c0.16,0.089,0.411,0.05,0.693-0.112c0.745-0.43,1.374-1.519,1.374-2.379c0-0.325-0.091-0.564-0.25-0.656
					C161.122,255.471,161.055,255.454,160.979,255.454z"/>
			</g>
		</g>
		<g>
			<g>
				<g>
					<path style="fill:#27DEBF;" d="M247.575,202.152L247.575,202.152c2.758,0,4.54,2.723,4.54,6.937
						c0,3.452-1.174,7.466-3.221,11.012c-0.749,1.297-1.582,2.478-2.477,3.511c-1.15,1.328-2.349,2.357-3.565,3.059
						c-1.107,0.639-2.163,0.963-3.139,0.963c-2.759,0-4.541-2.723-4.541-6.937c0-3.452,1.174-7.466,3.222-11.013
						c1.721-2.981,3.867-5.314,6.04-6.569C245.542,202.476,246.598,202.152,247.575,202.152 M247.574,201.289
						c-1.095,0-2.303,0.347-3.571,1.079c-2.303,1.33-4.56,3.775-6.356,6.885c-2.121,3.674-3.338,7.845-3.338,11.445
						c0,4.882,2.226,7.8,5.404,7.8c1.095,0,2.303-0.347,3.571-1.079c1.302-0.752,2.588-1.859,3.786-3.242
						c0.921-1.064,1.79-2.292,2.571-3.644c2.12-3.674,3.337-7.845,3.337-11.444C252.979,204.207,250.752,201.289,247.574,201.289
						L247.574,201.289z"/>
				</g>
			</g>
			<g>
				<g>
					<path style="fill:#27DEBF;" d="M241.321,212.034h0.005H241.321 M241.309,212.04l6.689,0.597
						c-0.039,0.06-0.087,0.127-0.146,0.201l-6.796,8.454v-8.473C241.057,212.37,241.226,212.096,241.309,212.04 M241.294,211.176
						c-0.613,0-1.1,0.716-1.1,1.644v9.179c0,0.539,0.164,0.817,0.421,0.817c0.203,0,0.465-0.173,0.75-0.528l7.161-8.908
						c0.646-0.804,0.646-1.503,0-1.561l-7.161-0.64C241.341,211.177,241.317,211.176,241.294,211.176L241.294,211.176z"/>
				</g>
			</g>
		</g>
	</g>
</g>
<g id="Sheets">
	<g id="Sheets_1_">
		<g id="Character_13_">
			<g>
				<g>
					<g>
						<polygon style="fill:#EBEBEB;" points="275.733,323.951 336.557,359.133 336.557,321.826 275.732,286.643 						"/>
					</g>
					<g>
						<polygon style="fill:#F5F5F5;" points="378.72,334.79 336.557,359.133 336.557,321.826 378.722,297.482 						"/>
					</g>
					<polygon style="fill:#FAFAFA;" points="275.732,286.644 317.898,262.301 378.722,297.483 336.557,321.826 					"/>
				</g>
			</g>
		</g>
		<polygon style="opacity:0.1;" points="307.43,317.49 336.557,334.306 354.033,324.216 336.557,335.348 		"/>
		<polygon style="opacity:0.1;" points="289.954,316.799 336.557,343.705 371.51,323.526 336.557,344.723 		"/>
		<path style="opacity:0.1;" d="M281.584,300.486c0,0-0.963,5.442-0.48,8.196c0,0,7.628-0.188,20.5,3.363L281.584,300.486z"/>
		<polygon style="fill:#FAFAFA;" points="281.584,300.486 301.604,312.045 279.453,305.651 		"/>
		<path style="opacity:0.1;" d="M307.43,332.733l21.949,20.18c0,0,0.609-2.774,4.822-4.724L307.43,332.733z"/>
		<polygon style="fill:#FAFAFA;" points="307.43,332.733 328.043,350.09 334.201,348.19 		"/>
		<path style="opacity:0.1;" d="M371.696,312.319c-0.115-0.177-0.186-0.273-0.186-0.273l-13.871,8.008l15.612-1.282
			C373.789,315.873,372.245,313.167,371.696,312.319z"/>
		<polygon style="fill:#FAFAFA;" points="357.639,320.053 371.51,312.045 376.128,314.481 		"/>
		<g style="opacity:0.3;">
			<g>
				<path style="fill:#455A64;" d="M286.449,289.238c-0.185,0-0.366-0.096-0.466-0.269c-0.148-0.257-0.06-0.586,0.198-0.735
					l34.952-20.181c0.256-0.146,0.586-0.06,0.735,0.197c0.148,0.257,0.06,0.586-0.198,0.735l-34.952,20.18
					C286.634,289.215,286.54,289.238,286.449,289.238z"/>
			</g>
			<g>
				<path style="fill:#455A64;" d="M292.274,292.601c-0.185,0-0.365-0.097-0.466-0.269c-0.149-0.257-0.06-0.586,0.197-0.734
					l34.952-20.18c0.255-0.147,0.586-0.06,0.735,0.197c0.148,0.257,0.06,0.586-0.197,0.735l-34.952,20.18
					C292.459,292.578,292.365,292.601,292.274,292.601z"/>
			</g>
			<g>
				<path style="fill:#455A64;" d="M298.1,295.964c-0.185,0-0.365-0.096-0.466-0.269c-0.149-0.257-0.06-0.586,0.197-0.735
					l34.952-20.18c0.256-0.148,0.585-0.06,0.735,0.197c0.148,0.257,0.06,0.586-0.198,0.735l-34.952,20.18
					C298.285,295.941,298.191,295.964,298.1,295.964z"/>
			</g>
			<g>
				<path style="fill:#455A64;" d="M303.926,299.328c-0.185,0-0.365-0.096-0.466-0.269c-0.149-0.257-0.06-0.586,0.197-0.735
					l34.951-20.18c0.251-0.147,0.583-0.063,0.735,0.197c0.148,0.257,0.06,0.586-0.198,0.735l-34.951,20.18
					C304.111,299.305,304.017,299.328,303.926,299.328z"/>
			</g>
			<g>
				<path style="fill:#455A64;" d="M309.751,302.692c-0.185,0-0.366-0.097-0.466-0.269c-0.148-0.257-0.06-0.586,0.198-0.735
					l34.952-20.18c0.255-0.148,0.585-0.06,0.735,0.197c0.149,0.257,0.06,0.586-0.197,0.735l-34.952,20.18
					C309.936,302.668,309.841,302.692,309.751,302.692z"/>
			</g>
			<g>
				<path style="fill:#455A64;" d="M315.577,306.055c-0.185,0-0.365-0.097-0.466-0.269c-0.148-0.257-0.06-0.586,0.198-0.735
					l34.951-20.18c0.256-0.148,0.585-0.059,0.735,0.197c0.148,0.257,0.06,0.586-0.197,0.734l-34.951,20.18
					C315.762,306.032,315.668,306.055,315.577,306.055z"/>
			</g>
			<g>
				<path style="fill:#455A64;" d="M321.401,309.419c-0.185,0-0.366-0.097-0.466-0.269c-0.148-0.257-0.06-0.586,0.197-0.734
					l34.952-20.18c0.256-0.147,0.585-0.06,0.735,0.197c0.148,0.257,0.06,0.586-0.198,0.735l-34.952,20.18
					C321.586,309.396,321.492,309.419,321.401,309.419z"/>
			</g>
			<g>
				<path style="fill:#455A64;" d="M327.227,312.782c-0.185,0-0.365-0.097-0.466-0.269c-0.148-0.257-0.06-0.586,0.198-0.735
					l34.952-20.18c0.255-0.147,0.585-0.06,0.735,0.197c0.148,0.257,0.06,0.586-0.197,0.734l-34.952,20.18
					C327.412,312.759,327.319,312.782,327.227,312.782z"/>
			</g>
			<g>
				<path style="fill:#455A64;" d="M333.052,316.146c-0.185,0-0.366-0.097-0.466-0.269c-0.148-0.257-0.06-0.586,0.197-0.734
					l34.952-20.18c0.256-0.146,0.585-0.059,0.735,0.197c0.148,0.257,0.06,0.586-0.197,0.735l-34.952,20.18
					C333.237,316.122,333.143,316.146,333.052,316.146z"/>
			</g>
		</g>
	</g>
</g>
<g id="Video_1_">
	<g id="Video">
		<g id="XMLID_630_">
			<path id="XMLID_1258_" style="fill:#27DEBF;" d="M249.813,237.546L180.108,277.8c-0.9,0.52-1.629,1.783-1.629,2.822v66.411
				c0,1.039,0.73,2.302,1.63,2.822l2.679,1.547c0.9,0.519,2.359,0.519,3.259,0l69.705-40.254c0.9-0.52,1.629-1.783,1.629-2.822
				l-0.002-66.411c0-1.039-0.73-2.303-1.63-2.822l-2.678-1.547C252.172,237.026,250.713,237.026,249.813,237.546z"/>
			<path id="XMLID_667_" style="opacity:0.3;" d="M249.813,237.546L180.108,277.8c-0.9,0.52-1.629,1.783-1.629,2.822v66.411
				c0,1.039,0.73,2.302,1.63,2.822l2.679,1.547c0.9,0.519,2.359,0.519,3.259,0l69.705-40.254c0.9-0.52,1.629-1.783,1.629-2.822
				l-0.002-66.411c0-1.039-0.73-2.303-1.63-2.822l-2.678-1.547C252.172,237.026,250.713,237.026,249.813,237.546z"/>
			<path id="XMLID_1257_" style="fill:#27DEBF;" d="M257.316,241.43c-0.201-0.677-0.828-0.89-1.568-0.452l-69.697,40.254
				c-0.452,0.251-0.853,0.702-1.154,1.217l-5.932-3.432c0.288-0.514,0.69-0.953,1.141-1.217l69.71-40.254
				c0.891-0.514,2.358-0.514,3.262,0l2.67,1.551C256.513,239.536,257.152,240.514,257.316,241.43z"/>
			<path id="XMLID_656_" style="opacity:0.2;" d="M257.316,241.43c-0.201-0.677-0.828-0.89-1.568-0.452l-69.697,40.254
				c-0.452,0.251-0.853,0.702-1.154,1.217l-5.932-3.432c0.288-0.514,0.69-0.953,1.141-1.217l69.71-40.254
				c0.891-0.514,2.358-0.514,3.262,0l2.67,1.551C256.513,239.536,257.152,240.514,257.316,241.43z"/>
			<path id="XMLID_635_" style="fill:#27DEBF;" d="M255.75,240.974l-69.703,40.254c-0.9,0.52-1.629,1.783-1.629,2.823l0,66.411
				c0,1.039,0.73,1.46,1.63,0.941l69.705-40.254c0.9-0.52,1.629-1.783,1.629-2.822l-0.002-66.411
				C257.379,240.876,256.65,240.455,255.75,240.974z"/>
			<g>
				<g>
					<g>
						<path style="fill:#FFFFFF;" d="M214.871,321.167c-1.798,0-3.491-0.438-5.016-1.317c-4.186-2.417-6.586-7.901-6.586-15.047
							c0-6.592,2.043-13.913,5.606-20.084c1.183-2.048,2.525-3.943,3.988-5.633l0,0c2.085-2.408,4.333-4.316,6.681-5.671
							c4.491-2.593,8.895-2.908,12.399-0.886c4.186,2.417,6.586,7.901,6.586,15.046c0,6.591-2.043,13.911-5.606,20.083
							c-2.876,4.98-6.665,8.995-10.669,11.305C219.716,320.428,217.206,321.167,214.871,321.167z M214.702,280.677
							c-1.364,1.575-2.615,3.344-3.72,5.258c-3.356,5.812-5.281,12.69-5.281,18.868c0,6.254,1.957,10.971,5.37,12.94
							c2.719,1.569,6.258,1.254,9.967-0.887c3.64-2.1,7.113-5.798,9.778-10.414c3.356-5.814,5.281-12.69,5.281-18.867
							c0-6.253-1.958-10.97-5.37-12.939c-2.718-1.57-6.259-1.256-9.968,0.886C218.646,276.741,216.608,278.475,214.702,280.677
							L214.702,280.677z"/>
					</g>
				</g>
				<g>
					<path style="fill:#FFFFFF;" d="M230.226,292.415l-13.683,17.022c-1.236,1.537-2.237,1.29-2.237-0.552v-17.54
						c0-1.842,1.002-3.246,2.237-3.135l13.683,1.222C231.461,289.543,231.461,290.878,230.226,292.415z"/>
				</g>
			</g>
		</g>
	</g>
</g>
<g id="Photo">
	<g id="Image">
		<path style="fill:#263238;" d="M159.866,291.865v60.502c0,0.637-0.446,1.412-1.002,1.734L98.72,388.847
			c-0.549,0.315-0.995,0.059-0.995-0.578v-3.161l58.943-34.052v-58.504l2.195-1.266
			C159.419,290.965,159.866,291.228,159.866,291.865z"/>
		<path style="fill:#27DEBF;" d="M156.668,292.553v58.504l-58.943,34.052v-57.341c0-0.322,0.11-0.673,0.293-0.98
			c0.176-0.315,0.424-0.593,0.702-0.754L156.668,292.553z"/>
		<path style="opacity:0.8;fill:#FFFFFF;" d="M156.668,292.553v58.504l-58.943,34.052v-57.341c0-0.322,0.11-0.673,0.293-0.98
			c0.176-0.315,0.424-0.593,0.702-0.754L156.668,292.553z"/>
		<g id="XMLID_4022_">
			<path id="XMLID_4037_" style="fill:#27DEBF;" d="M142.129,317.569c-0.063-0.061-0.132-0.11-0.202-0.155l0.002-0.002l-0.02-0.011
				c-0.008-0.005-0.017-0.009-0.025-0.014l-3.738-2.16v0l-0.026-0.015l-0.002,0.002c-0.565-0.319-1.308-0.163-1.681,0.411
				l-13.28,32.739l-8.818-5.802c-0.057-0.05-0.12-0.089-0.183-0.126l0.002-0.003l-0.04-0.023c-0.005-0.002-0.009-0.005-0.014-0.008
				l-3.69-2.131l-0.003,0.004c-0.568-0.345-1.325-0.198-1.707,0.376l-12.859,26.071l0.002,17.298l3.751,2.167l57.871-33.426
				c0.665-0.384,1.075-1.093,1.075-1.861v-16.413L142.129,317.569z"/>
			<path id="XMLID_4036_" style="opacity:0.15;" d="M142.129,317.569c-0.063-0.061-0.132-0.11-0.202-0.155l0.002-0.002l-0.02-0.011
				c-0.008-0.005-0.017-0.009-0.025-0.014l-3.738-2.16v0l-0.026-0.015l-0.002,0.002c-0.565-0.319-1.308-0.163-1.681,0.411
				l-13.28,32.739l-8.818-5.802c-0.057-0.05-0.12-0.089-0.183-0.126l0.002-0.003l-0.04-0.023c-0.005-0.002-0.009-0.005-0.014-0.008
				l-3.69-2.131l-0.003,0.004c-0.568-0.345-1.325-0.198-1.707,0.376l-12.859,26.071l0.002,17.298l3.751,2.167l57.871-33.426
				c0.665-0.384,1.075-1.093,1.075-1.861v-16.413L142.129,317.569z"/>
			<path id="XMLID_4035_" style="fill:#27DEBF;" d="M99.6,386.188l-0.001-17.299l12.859-26.071c0.423-0.634,1.306-0.754,1.882-0.255
				l12.34,8.119l13.51-32.89c0.433-0.667,1.366-0.774,1.939-0.223l16.416,16.918v16.413c0,0.768-0.41,1.477-1.075,1.861
				L99.6,386.188z"/>
			<polygon id="XMLID_4023_" style="opacity:0.15;" points="126.68,350.682 122.791,360.149 125.259,349.747 			"/>
		</g>
		<g id="XMLID_4013_">
			<path id="XMLID_4017_" style="fill:#37474F;" d="M162.288,288.143c-0.005-0.042-0.014-0.088-0.023-0.125
				c-0.102-0.568-0.499-1.173-0.965-1.446l-1.755-1.011c-0.55-0.319-1.446-0.319-2,0l-64.447,37.223
				c-0.277,0.162-0.527,0.434-0.711,0.748c-0.18,0.314-0.292,0.665-0.292,0.983v75.681c0,0.637,0.449,1.416,1.003,1.735l1.75,1.008
				c0.48,0.277,1.224,0.314,1.769,0.106c0.023-0.009,0.046-0.018,0.069-0.028c0.051-0.018,0.106-0.046,0.162-0.078l64.452-37.223
				c0.55-0.319,0.998-1.095,0.998-1.732v-75.68C162.297,288.249,162.292,288.194,162.288,288.143z M159.868,352.368
				c0,0.637-0.448,1.413-1.002,1.732l-60.143,34.746c-0.549,0.319-0.997,0.06-0.997-0.577v-60.501c0-0.319,0.111-0.67,0.291-0.984
				c0.18-0.314,0.43-0.591,0.707-0.748l60.143-34.746c0.554-0.323,1.002-0.065,1.002,0.577V352.368z"/>
			<path id="XMLID_4016_" style="fill:#263238;" d="M96.617,403.046c-0.546,0.206-1.29,0.17-1.769-0.107l-1.751-1.008
				c-0.558-0.316-1.003-1.098-1.003-1.735v-75.681c0-0.316,0.11-0.669,0.292-0.982c1.1,0.633,2.37,1.365,3.751,2.164
				c-0.182,0.313-0.293,0.668-0.293,0.989v75.674C95.845,402.908,96.178,403.176,96.617,403.046z"/>
			<g id="XMLID_4014_">
				<path style="fill:#455A64;" d="M162.288,288.141c-0.007-0.036-0.015-0.088-0.022-0.124c-0.124-0.417-0.512-0.556-0.966-0.285
					l-64.452,37.227c-0.278,0.154-0.527,0.432-0.71,0.739c-0.183,0.315-0.293,0.673-0.293,0.988v75.676
					c0,0.549,0.336,0.812,0.768,0.688c0.029-0.015,0.051-0.022,0.073-0.029c0.051-0.022,0.102-0.051,0.161-0.081l64.452-37.22
					c0.549-0.322,0.995-1.098,0.995-1.734v-75.684C162.295,288.25,162.295,288.192,162.288,288.141z M159.866,352.366
					c0,0.637-0.446,1.412-1.002,1.734L98.72,388.847c-0.549,0.315-0.995,0.059-0.995-0.578v-60.501c0-0.322,0.11-0.673,0.293-0.98
					c0.176-0.315,0.424-0.593,0.702-0.754l57.948-33.481l2.195-1.266c0.556-0.322,1.002-0.058,1.002,0.578V352.366z"/>
			</g>
		</g>
		<g id="XMLID_4008_">
			<g id="XMLID_4010_">
				<path id="XMLID_4012_" style="fill:#27DEBF;" d="M121.263,326.76l1.456-2.472l-2.983-1.734c0,0-0.001,0-0.001,0l-0.002-0.001
					l0,0c-0.73-0.42-1.739-0.359-2.852,0.284c-2.23,1.287-4.037,4.418-4.037,6.993c0,1.27,0.441,2.165,1.154,2.594l-0.001,0.002
					l0.022,0.013c0.005,0.003,0.01,0.006,0.015,0.009l2.891,1.678l1.39-2.359C119.746,330.543,120.878,328.616,121.263,326.76z"/>
				<path id="XMLID_4011_" style="opacity:0.15;" d="M121.263,326.76l1.456-2.472l-2.983-1.734c0,0-0.001,0-0.001,0l-0.002-0.001
					l0,0c-0.73-0.42-1.739-0.359-2.852,0.284c-2.23,1.287-4.037,4.418-4.037,6.993c0,1.27,0.441,2.165,1.154,2.594l-0.001,0.002
					l0.022,0.013c0.005,0.003,0.01,0.006,0.015,0.009l2.891,1.678l1.39-2.359C119.746,330.543,120.878,328.616,121.263,326.76z"/>
			</g>
			<path id="XMLID_4009_" style="fill:#27DEBF;" d="M119.818,324.542c2.23-1.287,4.037-0.244,4.037,2.331
				c0,2.575-1.808,5.705-4.037,6.993c-2.23,1.287-4.037,0.244-4.037-2.331C115.781,328.96,117.588,325.829,119.818,324.542z"/>
		</g>
	</g>
</g>
<g id="Box_3_">
	<g id="Box_2_">
		<g id="XMLID_1298_">
			<polygon id="XMLID_1323_" style="fill:#27DEBF;" points="270.163,425.209 221.557,453.27 166.824,421.599 215.429,393.538 			"/>
			<polygon id="XMLID_1322_" style="opacity:0.5;" points="270.163,425.209 221.557,453.27 166.824,421.599 215.429,393.538 			"/>
			<polygon id="XMLID_1321_" style="fill:#27DEBF;" points="215.43,355.499 215.429,393.538 166.824,421.599 166.824,383.56 			"/>
			<polygon id="XMLID_1320_" style="opacity:0.23;" points="215.43,355.499 215.429,393.538 166.824,421.599 166.824,383.56 			"/>
			<polygon id="XMLID_1317_" style="fill:#27DEBF;" points="270.163,387.167 270.163,425.209 215.429,393.538 215.43,355.499 			"/>
			<polygon id="XMLID_1316_" style="opacity:0.4;" points="270.163,387.167 270.163,425.209 215.429,393.538 215.43,355.499 			"/>
			<polygon id="XMLID_1313_" style="fill:#27DEBF;" points="215.43,355.499 215.497,334.439 270.096,366.148 270.163,387.167 			"/>
			<polygon id="XMLID_1312_" style="opacity:0.2;" points="215.43,355.499 215.497,334.439 270.096,366.148 270.163,387.167 			"/>
			<polygon id="XMLID_1309_" style="fill:#27DEBF;" points="166.824,383.56 161.027,364.452 209.631,336.39 215.43,355.499 			"/>
			<polygon id="XMLID_1308_" style="opacity:0.1;" points="166.824,383.56 161.027,364.452 209.631,336.39 215.43,355.499 			"/>
		</g>
		<g id="Document_4_">
			<path id="XMLID_3882_" style="fill:#F0F0F0;" d="M178.407,420.127c-0.523-0.306-0.978-1.06-1.016-1.683l-4.079-66.954
				c-0.038-0.624,0.353-1.371,0.873-1.668l41.669-23.918c0.52-0.298,1.366-0.291,1.889,0.015c0.523,0.306,0.979,1.06,1.017,1.683
				l4.08,66.954c0.038,0.624-0.353,1.371-0.873,1.668l-41.67,23.918C179.776,420.439,178.93,420.433,178.407,420.127z"/>
			<g id="XMLID_3881_">
				<path style="fill:#FAFAFA;" d="M179.884,420.016c-0.298,0-0.344-0.367-0.351-0.479l-4.08-66.955
					c-0.032-0.529,0.31-1.187,0.748-1.437l41.669-23.919c0.102-0.058,0.202-0.089,0.288-0.089c0.298,0,0.344,0.367,0.351,0.48
					l4.08,66.954c0.032,0.529-0.31,1.187-0.748,1.438l-41.67,23.918C180.07,419.985,179.971,420.016,179.884,420.016
					C179.884,420.016,179.884,420.016,179.884,420.016z"/>
				<path style="fill:#EBEBEB;" d="M218.16,327.385c0.064,0,0.097,0.147,0.103,0.246l4.08,66.954
					c0.027,0.438-0.265,1.001-0.624,1.207l-41.669,23.918c-0.089,0.051-0.145,0.057-0.165,0.057c-0.064,0-0.097-0.147-0.103-0.246
					l-4.08-66.954c-0.027-0.438,0.265-1.001,0.624-1.207l41.669-23.918C218.084,327.391,218.14,327.385,218.16,327.385
					 M218.16,326.888c-0.127,0-0.267,0.039-0.412,0.122l-41.67,23.918c-0.52,0.298-0.91,1.045-0.872,1.668l4.08,66.954
					c0.027,0.45,0.27,0.713,0.598,0.713c0.127,0,0.267-0.039,0.412-0.122l41.67-23.918c0.52-0.298,0.911-1.045,0.873-1.668
					l-4.08-66.954C218.731,327.151,218.488,326.888,218.16,326.888L218.16,326.888z"/>
			</g>
			<path id="XMLID_3880_" style="fill:#E0E0E0;" d="M180.173,420.203c-0.521,0.235-1.281,0.21-1.765-0.077
				c-0.524-0.307-0.977-1.06-1.015-1.682l-4.079-66.953c-0.019-0.314,0.069-0.654,0.224-0.958l1.897,1.109
				c-0.16,0.299-0.248,0.645-0.23,0.953l4.079,66.958C179.32,420.125,179.708,420.394,180.173,420.203z"/>
			<g>
				<path id="XMLID_3877_" style="fill:#E0E0E0;" d="M197.117,345.483l14.686-8.539c0.458-0.262,0.857-0.029,0.891,0.52l0.021,0.344
					c0.034,0.55-0.311,1.208-0.769,1.471l-14.687,8.539c-0.458,0.262-0.857,0.029-0.89-0.521l-0.021-0.344
					C196.314,346.404,196.658,345.746,197.117,345.483z"/>
				<path id="XMLID_3876_" style="fill:#E0E0E0;" d="M197.472,351.314l14.686-8.539c0.458-0.262,0.857-0.029,0.891,0.521
					l0.021,0.344c0.033,0.55-0.311,1.208-0.769,1.471l-14.687,8.539c-0.458,0.262-0.857,0.029-0.89-0.521l-0.021-0.344
					C196.669,352.235,197.014,351.576,197.472,351.314z"/>
				<path id="XMLID_3874_" style="fill:#E0E0E0;" d="M197.827,357.144l14.686-8.539c0.458-0.262,0.857-0.029,0.891,0.521
					l0.021,0.344c0.034,0.55-0.311,1.208-0.769,1.471l-14.687,8.539c-0.458,0.262-0.857,0.029-0.89-0.521l-0.021-0.344
					C197.024,358.065,197.369,357.407,197.827,357.144z"/>
				<path id="XMLID_3872_" style="fill:#E0E0E0;" d="M183.012,377.657l30.212-17.391c0.458-0.262,0.857-0.029,0.891,0.521
					l0.021,0.344c0.034,0.55-0.311,1.208-0.769,1.471l-30.212,17.391c-0.458,0.262-0.857,0.029-0.89-0.521l-0.021-0.344
					C182.209,378.577,182.554,377.919,183.012,377.657z"/>
				<path id="XMLID_3871_" style="fill:#E0E0E0;" d="M182.657,371.826l30.212-17.391c0.458-0.262,0.857-0.029,0.891,0.521
					l0.021,0.344c0.033,0.55-0.311,1.208-0.769,1.471l-30.212,17.391c-0.458,0.262-0.857,0.029-0.89-0.521l-0.021-0.344
					C181.854,372.747,182.198,372.089,182.657,371.826z"/>
				<path id="XMLID_3868_" style="fill:#E0E0E0;" d="M183.37,383.53l30.212-17.391c0.458-0.262,0.857-0.029,0.891,0.521l0.021,0.344
					c0.034,0.55-0.311,1.208-0.769,1.471l-30.212,17.391c-0.458,0.262-0.857,0.029-0.89-0.521L182.6,385
					C182.567,384.45,182.911,383.792,183.37,383.53z"/>
				<path id="XMLID_3867_" style="fill:#E0E0E0;" d="M183.725,389.36l30.212-17.391c0.458-0.262,0.857-0.029,0.891,0.521
					l0.021,0.344c0.033,0.55-0.311,1.208-0.769,1.471l-30.212,17.391c-0.458,0.262-0.857,0.029-0.89-0.52l-0.021-0.344
					C182.922,390.281,183.267,389.622,183.725,389.36z"/>
				<path id="XMLID_3866_" style="fill:#E0E0E0;" d="M184.08,395.19l30.212-17.391c0.458-0.262,0.857-0.029,0.891,0.521l0.021,0.344
					c0.033,0.55-0.311,1.208-0.769,1.471l-30.212,17.391c-0.458,0.262-0.857,0.029-0.89-0.521l-0.021-0.344
					C183.277,396.111,183.622,395.453,184.08,395.19z"/>
				<path id="XMLID_3865_" style="fill:#E0E0E0;" d="M184.435,401.021l30.212-17.391c0.458-0.262,0.857-0.029,0.891,0.521
					l0.021,0.344c0.034,0.55-0.311,1.208-0.769,1.471l-30.212,17.391c-0.458,0.262-0.857,0.029-0.89-0.521l-0.021-0.344
					C183.633,401.942,183.977,401.283,184.435,401.021z"/>
				<path id="XMLID_3857_" style="fill:#E0E0E0;" d="M184.791,406.851l30.212-17.391c0.458-0.262,0.857-0.029,0.891,0.521
					l0.021,0.344c0.034,0.55-0.311,1.208-0.769,1.471l-30.212,17.391c-0.458,0.262-0.857,0.029-0.89-0.52l-0.021-0.344
					C183.988,407.772,184.332,407.114,184.791,406.851z"/>
			</g>
			<g id="XMLID_3847_">
				<g id="XMLID_3851_">
					<polygon id="XMLID_3855_" style="fill:#27DEBF;" points="180.928,353.818 193.129,346.834 194.02,361.47 181.82,368.455 					
						"/>
				</g>
				<path style="fill:#FAFAFA;" d="M182.914,355.332l0.268,4.391l0.382-0.227l-0.082-1.345c-0.045-0.743,0.5-1.679,1.218-2.09
					l1.804-1.033l0.398,6.526c0.053,0.862-0.412,1.851-1.038,2.209l-1.133,0.649l0.028,0.466l6.1-3.492l-0.028-0.466
					c0,0-0.507,0.29-1.133,0.649c-0.626,0.358-1.176-0.05-1.228-0.911l-0.398-6.526l1.804-1.033
					c0.718-0.411,1.337-0.142,1.383,0.601c0.045,0.743,0.082,1.345,0.082,1.345l0.383-0.211l-0.268-4.391L182.914,355.332z"/>
			</g>
		</g>
		<g id="Document_7_">
			<path id="XMLID_4043_" style="fill:#F0F0F0;" d="M195.765,430.145c-0.523-0.306-0.978-1.059-1.016-1.683l-4.079-66.954
				c-0.038-0.624,0.353-1.371,0.873-1.668l41.669-23.918c0.52-0.298,1.366-0.291,1.889,0.015c0.523,0.306,0.979,1.06,1.017,1.683
				l4.08,66.954c0.038,0.624-0.353,1.371-0.873,1.668l-41.67,23.918C197.134,430.458,196.288,430.451,195.765,430.145z"/>
			<g id="XMLID_4041_">
				<path style="fill:#FAFAFA;" d="M197.243,430.034c-0.298,0-0.344-0.367-0.351-0.48l-4.08-66.954
					c-0.032-0.529,0.31-1.188,0.748-1.438l41.67-23.918c0.102-0.059,0.202-0.089,0.288-0.089c0.298,0,0.344,0.367,0.351,0.479
					l4.079,66.955c0.032,0.529-0.31,1.187-0.748,1.437l-41.669,23.919C197.429,430.003,197.329,430.034,197.243,430.034z"/>
				<path style="fill:#EBEBEB;" d="M235.518,337.404c0.064,0,0.097,0.147,0.103,0.246l4.08,66.954
					c0.027,0.438-0.265,1.002-0.624,1.207l-41.669,23.918c-0.089,0.051-0.145,0.057-0.165,0.057c-0.064,0-0.096-0.147-0.103-0.246
					l-4.08-66.955c-0.027-0.438,0.265-1.001,0.624-1.207l41.669-23.918C235.442,337.409,235.498,337.404,235.518,337.404
					 M235.518,336.907c-0.127,0-0.267,0.039-0.412,0.122l-41.67,23.918c-0.52,0.298-0.911,1.045-0.872,1.668l4.08,66.954
					c0.027,0.45,0.27,0.713,0.598,0.713c0.127,0,0.267-0.039,0.412-0.122l41.669-23.918c0.52-0.298,0.911-1.044,0.873-1.668
					l-4.08-66.954C236.089,337.17,235.846,336.907,235.518,336.907L235.518,336.907z"/>
			</g>
			<path id="XMLID_4040_" style="fill:#E0E0E0;" d="M197.531,430.221c-0.521,0.235-1.281,0.21-1.765-0.077
				c-0.524-0.307-0.977-1.06-1.015-1.682l-4.079-66.953c-0.019-0.314,0.069-0.654,0.224-0.958l1.897,1.109
				c-0.16,0.299-0.248,0.645-0.23,0.953l4.079,66.958C196.678,430.144,197.066,430.413,197.531,430.221z"/>
			<g>
				<path id="XMLID_4039_" style="fill:#E0E0E0;" d="M214.475,355.502l14.686-8.539c0.458-0.262,0.857-0.029,0.891,0.521
					l0.021,0.344c0.034,0.55-0.311,1.208-0.769,1.471l-14.687,8.539c-0.458,0.262-0.857,0.029-0.89-0.521l-0.021-0.344
					C213.672,356.423,214.016,355.764,214.475,355.502z"/>
				<path id="XMLID_4015_" style="fill:#E0E0E0;" d="M214.83,361.332l14.686-8.539c0.458-0.262,0.857-0.029,0.891,0.521l0.021,0.344
					c0.033,0.55-0.311,1.208-0.769,1.471l-14.687,8.539c-0.458,0.262-0.857,0.029-0.89-0.521l-0.021-0.344
					C214.027,362.253,214.372,361.595,214.83,361.332z"/>
				<path id="XMLID_4007_" style="fill:#E0E0E0;" d="M215.185,367.163l14.686-8.539c0.458-0.262,0.857-0.029,0.891,0.521
					l0.021,0.344c0.033,0.55-0.311,1.208-0.769,1.471l-14.687,8.539c-0.458,0.262-0.857,0.029-0.89-0.521l-0.021-0.344
					C214.382,368.084,214.727,367.425,215.185,367.163z"/>
				<path id="XMLID_4006_" style="fill:#E0E0E0;" d="M200.37,387.675l30.212-17.391c0.458-0.262,0.857-0.029,0.891,0.521
					l0.021,0.344c0.034,0.55-0.311,1.208-0.769,1.471l-30.212,17.391c-0.458,0.262-0.857,0.029-0.89-0.521l-0.021-0.344
					C199.567,388.596,199.912,387.938,200.37,387.675z"/>
				<path id="XMLID_4005_" style="fill:#E0E0E0;" d="M200.015,381.845l30.212-17.391c0.458-0.262,0.857-0.029,0.891,0.521
					l0.021,0.344c0.034,0.55-0.311,1.208-0.769,1.471l-30.212,17.391c-0.458,0.262-0.857,0.029-0.89-0.52l-0.021-0.344
					C199.212,382.766,199.556,382.107,200.015,381.845z"/>
				<path id="XMLID_4004_" style="fill:#E0E0E0;" d="M200.728,393.548l30.212-17.391c0.458-0.262,0.857-0.029,0.891,0.521
					l0.021,0.344c0.034,0.55-0.311,1.208-0.769,1.471l-30.212,17.391c-0.458,0.262-0.857,0.029-0.89-0.521l-0.021-0.344
					C199.925,394.469,200.269,393.811,200.728,393.548z"/>
				<path id="XMLID_4003_" style="fill:#E0E0E0;" d="M201.083,399.379l30.212-17.391c0.458-0.262,0.857-0.029,0.891,0.521
					l0.021,0.344c0.033,0.55-0.311,1.208-0.769,1.471l-30.212,17.391c-0.458,0.262-0.857,0.029-0.89-0.52l-0.021-0.344
					C200.28,400.3,200.625,399.641,201.083,399.379z"/>
				<path id="XMLID_4002_" style="fill:#E0E0E0;" d="M201.438,405.209l30.212-17.391c0.458-0.262,0.857-0.029,0.891,0.52
					l0.021,0.344c0.033,0.55-0.311,1.208-0.769,1.471l-30.212,17.391c-0.458,0.262-0.857,0.029-0.89-0.521l-0.021-0.344
					C200.635,406.13,200.98,405.472,201.438,405.209z"/>
				<path id="XMLID_3987_" style="fill:#E0E0E0;" d="M201.793,411.04l30.212-17.391c0.458-0.262,0.857-0.029,0.891,0.521
					l0.021,0.344c0.034,0.55-0.311,1.208-0.769,1.471l-30.212,17.391c-0.458,0.262-0.857,0.029-0.89-0.521l-0.021-0.344
					C200.99,411.96,201.335,411.302,201.793,411.04z"/>
				<path id="XMLID_3986_" style="fill:#E0E0E0;" d="M202.149,416.87l30.212-17.391c0.458-0.262,0.857-0.029,0.891,0.521
					l0.021,0.344c0.034,0.55-0.311,1.208-0.769,1.471l-30.212,17.391c-0.458,0.262-0.857,0.029-0.89-0.521l-0.021-0.344
					C201.346,417.791,201.69,417.132,202.149,416.87z"/>
			</g>
			<g id="XMLID_3883_">
				<g id="XMLID_3904_">
					<polygon id="XMLID_3984_" style="fill:#27DEBF;" points="198.286,363.837 210.487,356.853 211.378,371.489 199.178,378.474 
											"/>
				</g>
				<path style="fill:#FAFAFA;" d="M200.272,365.35l0.268,4.391l0.382-0.227l-0.082-1.345c-0.045-0.743,0.5-1.678,1.219-2.09
					l1.804-1.033l0.398,6.526c0.053,0.862-0.412,1.851-1.038,2.209l-1.133,0.649l0.028,0.466l6.1-3.492l-0.028-0.466
					c0,0-0.507,0.29-1.133,0.649c-0.626,0.358-1.176-0.05-1.228-0.911l-0.398-6.526l1.804-1.033
					c0.718-0.411,1.337-0.142,1.383,0.601c0.045,0.743,0.082,1.345,0.082,1.345l0.383-0.211l-0.268-4.391L200.272,365.35z"/>
			</g>
		</g>
		<g id="Document_8_">
			<path id="XMLID_4092_" style="fill:#F0F0F0;" d="M213.084,440.155c-0.523-0.306-0.978-1.06-1.016-1.683l-4.079-66.954
				c-0.038-0.624,0.353-1.371,0.873-1.668l41.669-23.918c0.52-0.298,1.366-0.291,1.889,0.015c0.523,0.306,0.979,1.06,1.017,1.683
				l4.08,66.954c0.038,0.624-0.353,1.371-0.873,1.668l-41.67,23.918C214.453,440.468,213.607,440.461,213.084,440.155z"/>
			<g id="XMLID_4077_">
				<path style="fill:#FAFAFA;" d="M214.561,440.044c-0.298,0-0.343-0.367-0.35-0.479l-4.08-66.955
					c-0.032-0.529,0.31-1.187,0.748-1.437l41.67-23.919c0.102-0.058,0.201-0.089,0.288-0.089c0.298,0,0.344,0.367,0.351,0.479
					l4.079,66.954c0.032,0.528-0.31,1.187-0.748,1.438l-41.669,23.918C214.747,440.013,214.648,440.044,214.561,440.044
					C214.561,440.044,214.561,440.044,214.561,440.044z"/>
				<path style="fill:#EBEBEB;" d="M252.837,347.413c0.064,0,0.097,0.147,0.103,0.246l4.08,66.954
					c0.027,0.438-0.265,1.001-0.624,1.207l-41.669,23.918c-0.089,0.051-0.145,0.057-0.165,0.057c-0.064,0-0.097-0.147-0.103-0.246
					l-4.08-66.954c-0.027-0.438,0.265-1.001,0.624-1.207l41.669-23.918C252.761,347.419,252.817,347.413,252.837,347.413
					 M252.837,346.916c-0.127,0-0.267,0.039-0.412,0.122l-41.67,23.918c-0.52,0.298-0.911,1.045-0.873,1.668l4.08,66.955
					c0.027,0.45,0.27,0.713,0.599,0.713c0.127,0,0.267-0.039,0.412-0.122l41.67-23.918c0.52-0.298,0.911-1.044,0.873-1.668
					l-4.08-66.954C253.408,347.179,253.165,346.916,252.837,346.916L252.837,346.916z"/>
			</g>
			<path id="XMLID_4076_" style="fill:#E0E0E0;" d="M214.849,440.231c-0.521,0.235-1.281,0.21-1.765-0.077
				c-0.524-0.307-0.977-1.059-1.015-1.682l-4.079-66.953c-0.019-0.314,0.069-0.654,0.224-0.958l1.897,1.109
				c-0.16,0.299-0.248,0.645-0.23,0.953l4.079,66.958C213.997,440.154,214.385,440.422,214.849,440.231z"/>
			<g>
				<path id="XMLID_4074_" style="fill:#E0E0E0;" d="M231.794,365.512l14.686-8.539c0.458-0.262,0.857-0.029,0.891,0.521
					l0.021,0.344c0.034,0.55-0.311,1.208-0.769,1.471l-14.687,8.539c-0.458,0.262-0.857,0.029-0.89-0.52l-0.021-0.344
					C230.991,366.432,231.335,365.774,231.794,365.512z"/>
				<path id="XMLID_4069_" style="fill:#E0E0E0;" d="M232.149,371.342l14.686-8.539c0.458-0.262,0.857-0.029,0.891,0.521
					l0.021,0.344c0.033,0.55-0.311,1.208-0.769,1.471l-14.687,8.539c-0.458,0.262-0.857,0.029-0.89-0.521l-0.021-0.344
					C231.346,372.263,231.691,371.604,232.149,371.342z"/>
				<path id="XMLID_4066_" style="fill:#E0E0E0;" d="M232.504,377.173l14.686-8.539c0.458-0.262,0.857-0.029,0.891,0.521
					l0.021,0.344c0.033,0.55-0.311,1.208-0.769,1.471l-14.687,8.539c-0.458,0.262-0.857,0.029-0.89-0.52l-0.021-0.344
					C231.701,378.093,232.046,377.435,232.504,377.173z"/>
				<path id="XMLID_4059_" style="fill:#E0E0E0;" d="M217.689,397.685l30.212-17.391c0.458-0.262,0.857-0.029,0.891,0.521
					l0.021,0.344c0.034,0.55-0.311,1.208-0.769,1.471L217.83,400.02c-0.458,0.262-0.857,0.029-0.89-0.521l-0.021-0.344
					C216.886,398.606,217.23,397.947,217.689,397.685z"/>
				<path id="XMLID_4058_" style="fill:#E0E0E0;" d="M217.333,391.854l30.212-17.391c0.458-0.262,0.857-0.029,0.891,0.521
					l0.021,0.344c0.034,0.55-0.311,1.208-0.769,1.471l-30.212,17.391c-0.458,0.262-0.857,0.029-0.89-0.52l-0.021-0.344
					C216.531,392.775,216.875,392.117,217.333,391.854z"/>
				<path id="XMLID_4057_" style="fill:#E0E0E0;" d="M218.047,403.558l30.212-17.391c0.458-0.262,0.857-0.029,0.891,0.521
					l0.021,0.344c0.033,0.55-0.311,1.208-0.769,1.471l-30.212,17.391c-0.458,0.262-0.857,0.029-0.89-0.52l-0.021-0.344
					C217.244,404.479,217.588,403.82,218.047,403.558z"/>
				<path id="XMLID_4054_" style="fill:#E0E0E0;" d="M218.402,409.388l30.212-17.391c0.458-0.262,0.857-0.029,0.891,0.52
					l0.021,0.344c0.034,0.55-0.311,1.208-0.769,1.471l-30.212,17.391c-0.458,0.262-0.857,0.029-0.89-0.521l-0.021-0.344
					C217.599,410.309,217.943,409.651,218.402,409.388z"/>
				<path id="XMLID_4053_" style="fill:#E0E0E0;" d="M218.757,415.219l30.212-17.391c0.458-0.262,0.857-0.029,0.891,0.521
					l0.021,0.344c0.033,0.55-0.311,1.208-0.769,1.471l-30.212,17.391c-0.458,0.262-0.857,0.029-0.89-0.521l-0.021-0.344
					C217.954,416.14,218.299,415.481,218.757,415.219z"/>
				<path id="XMLID_4052_" style="fill:#E0E0E0;" d="M219.112,421.049l30.212-17.391c0.458-0.262,0.857-0.029,0.891,0.521
					l0.021,0.344c0.034,0.55-0.311,1.208-0.769,1.471l-30.212,17.391c-0.458,0.262-0.857,0.029-0.89-0.521l-0.021-0.344
					C218.309,421.97,218.654,421.312,219.112,421.049z"/>
				<path id="XMLID_4051_" style="fill:#E0E0E0;" d="M219.467,426.88l30.212-17.391c0.458-0.262,0.857-0.029,0.891,0.52l0.021,0.344
					c0.034,0.55-0.311,1.208-0.769,1.471l-30.212,17.391c-0.458,0.262-0.857,0.029-0.89-0.521l-0.021-0.344
					C218.665,427.801,219.009,427.142,219.467,426.88z"/>
			</g>
			<g id="XMLID_4044_">
				<g id="XMLID_4045_">
					<polygon id="XMLID_4047_" style="fill:#27DEBF;" points="215.605,373.846 227.805,366.862 228.697,381.499 216.497,388.483 
											"/>
				</g>
				<path style="fill:#FAFAFA;" d="M217.591,375.36l0.268,4.391l0.382-0.226l-0.082-1.345c-0.045-0.743,0.5-1.678,1.219-2.09
					l1.804-1.033l0.398,6.526c0.053,0.862-0.412,1.851-1.038,2.209l-1.133,0.649l0.028,0.466l6.1-3.492l-0.028-0.466
					c0,0-0.507,0.29-1.133,0.649c-0.626,0.358-1.176-0.05-1.228-0.911l-0.398-6.526l1.804-1.033
					c0.718-0.411,1.337-0.142,1.383,0.601c0.045,0.743,0.082,1.345,0.082,1.345l0.383-0.211l-0.268-4.391L217.591,375.36z"/>
			</g>
		</g>
		<g>
			<g>
				<polygon id="XMLID_1319_" style="fill:#27DEBF;" points="221.557,415.229 221.557,453.27 166.824,421.599 166.824,383.56 				
					"/>
				<polygon id="XMLID_1318_" style="opacity:0.38;" points="221.557,415.229 221.557,453.27 166.824,421.599 166.824,383.56 				
					"/>
			</g>
			<g>
				<polygon id="XMLID_1315_" style="fill:#27DEBF;" points="270.163,425.209 270.163,387.167 221.557,415.229 221.557,453.27 				
					"/>
				<polygon id="XMLID_1314_" style="opacity:0.23;" points="270.163,425.209 270.163,387.167 221.557,415.229 221.557,453.27 				
					"/>
				<polygon style="opacity:0.7;fill:#FFFFFF;" points="270.163,387.167 221.557,415.229 221.557,453.27 222.464,415.993 				"/>
			</g>
			<g>
				<polygon id="XMLID_1311_" style="fill:#27DEBF;" points="221.557,415.229 226.115,396.806 274.28,368.998 270.163,387.167 				
					"/>
				<polygon id="XMLID_1310_" style="opacity:0.3;" points="221.557,415.229 226.115,396.806 274.28,368.998 270.163,387.167 				
					"/>
			</g>
			<g>
				<polygon id="XMLID_1307_" style="fill:#27DEBF;" points="166.824,383.56 155.388,367.768 210.127,399.436 221.557,415.229 				
					"/>
				<polygon id="XMLID_1306_" style="opacity:0.45;" points="166.824,383.56 155.388,367.768 210.127,399.436 221.557,415.229 				
					"/>
				<polygon style="opacity:0.7;fill:#FFFFFF;" points="155.388,367.768 210.127,399.436 221.557,415.229 209.518,399.993 				"/>
			</g>
		</g>
		<g>
			<g id="XMLID_1265_" style="opacity:0.7;">
				<g id="XMLID_1293_">
					<g id="XMLID_1296_">
						<path id="XMLID_1297_" style="fill:#FFFFFF;" d="M235.868,441.956c-0.165,0-0.299-0.134-0.299-0.299v-6.694
							c0-0.165,0.134-0.299,0.299-0.299s0.299,0.134,0.299,0.299v6.694C236.167,441.822,236.033,441.956,235.868,441.956z"/>
					</g>
					<g id="XMLID_1294_">
						<path id="XMLID_1295_" style="fill:#FFFFFF;" d="M234.993,437.282c-0.04,0-0.08-0.008-0.118-0.024
							c-0.152-0.065-0.221-0.242-0.156-0.393l1.064-2.456l1.186,1.37c0.108,0.125,0.094,0.314-0.03,0.422
							c-0.124,0.105-0.313,0.095-0.421-0.03l-0.564-0.651l-0.685,1.583C235.219,437.215,235.109,437.282,234.993,437.282z"/>
					</g>
				</g>
				<g id="XMLID_1266_">
					<g id="XMLID_1291_">
						<path id="XMLID_1292_" style="fill:#FFFFFF;" d="M238.63,440.381c-0.165,0-0.299-0.134-0.299-0.299v-6.693
							c0-0.165,0.134-0.299,0.299-0.299s0.299,0.134,0.299,0.299v6.693C238.929,440.247,238.796,440.381,238.63,440.381z"/>
					</g>
					<g id="XMLID_1267_">
						<path id="XMLID_1290_" style="fill:#FFFFFF;" d="M237.757,435.707c-0.04,0-0.08-0.008-0.118-0.025
							c-0.152-0.065-0.221-0.242-0.156-0.393l1.063-2.454l1.186,1.368c0.108,0.125,0.095,0.314-0.03,0.421
							c-0.125,0.108-0.313,0.095-0.421-0.029l-0.564-0.651l-0.685,1.584C237.982,435.639,237.872,435.707,237.757,435.707z"/>
					</g>
				</g>
			</g>
			<g id="XMLID_723_" style="opacity:0.7;">
				<g id="XMLID_1263_">
					<path id="XMLID_1264_" style="fill:#FFFFFF;" d="M227.904,446.499c-0.117,0-0.228-0.028-0.326-0.084
						c-0.228-0.13-0.358-0.391-0.358-0.718v-0.819c0-0.165,0.134-0.299,0.299-0.299c0.165,0,0.299,0.134,0.299,0.299v0.819
						c0,0.122,0.034,0.186,0.057,0.198c0.021,0.016,0.092,0.009,0.195-0.051c0.263-0.154,0.555-0.746,0.555-1.35v-3.427
						c0-0.165,0.134-0.299,0.299-0.299c0.165,0,0.299,0.134,0.299,0.299v3.427c0,0.78-0.365,1.581-0.85,1.866
						C228.215,446.452,228.054,446.499,227.904,446.499z"/>
				</g>
				<g id="XMLID_724_">
					<path id="XMLID_736_" style="fill:#FFFFFF;" d="M224.758,443.739v-0.517c0-2.433,1.714-5.403,3.82-6.619
						c1.078-0.621,2.107-0.713,2.895-0.257c0.79,0.456,1.225,1.392,1.225,2.636v0.173L224.758,443.739z M230.366,436.658
						c-0.45,0-0.957,0.156-1.49,0.463c-1.79,1.033-3.272,3.44-3.493,5.567l6.714-3.876c-0.035-0.935-0.359-1.623-0.923-1.949
						C230.936,436.727,230.664,436.658,230.366,436.658z"/>
				</g>
			</g>
		</g>
	</g>
</g>
<g id="Character_1_">
	<g id="Character">
		<g id="XMLID_4479_">
			<g>
				<path style="fill:#37474F;" d="M386.038,372.354c-0.396-0.049-0.387,1.131-0.264,1.642c0.122,0.51,1.687,2.256,4.546,2.945
					c2.859,0.689,6.852,0.274,8.559,0.257c1.708-0.016,4.625,0.904,6.319,1.206c1.694,0.301,4.773-0.18,5.812-1.108
					c0.407-0.364,0.461-0.916,0.461-1.393c0.001-1.132-0.096-1.363-0.227-1.358L386.038,372.354z"/>
				<g id="XMLID_4489_">
					<g id="XMLID_4545_">
						<path id="XMLID_4546_" style="fill:#455A64;" d="M410.943,371.161c0.043,0.225,0.082,0.451,0.116,0.678
							c0.165,1.121,0.297,2.362,0.101,3.485c-0.381,0.832-1.349,1.258-2.122,1.468c-2.04,0.555-3.573,0.387-5.788-0.13
							c-1.327-0.31-2.774-0.643-4.379-0.602c-1.763,0.045-4.197,0.28-5.948,0.044c-1.496-0.201-2.965-0.421-4.33-1.074
							c-1.153-0.552-1.871-1.264-2.558-2.466c-0.017-2.205,1.137-3.222,2.374-3.877c1.307-0.693,2.978-0.829,4.456-0.764
							c1.663,0.072,2.91,0.339,4.389,0.289c1.002-0.034,2.048-0.148,2.959-0.596c0.434-0.214,0.762-0.857,0.973-1.279
							c0.257-0.514,0.36-0.977,0.834-1.008c0,0,6.97,0.121,7.672,0.21c0.811,0.102,0.84,2.919,0.918,3.471
							c0.061,0.433,0.056,0.894,0.153,1.314C410.828,370.601,410.889,370.881,410.943,371.161z"/>
					</g>
				</g>
				<path style="fill:#FAFAFA;" d="M395.978,367.876c-0.109-0.068-0.23-0.121-0.357-0.145c-0.671-0.127-1.212,0.518-1.518,1.027
					c-0.188,0.313-0.286,0.649-0.39,0.997c-0.127,0.424-0.195,0.882-0.073,1.315c0.031,0.11,0.111,0.239,0.223,0.216
					c0.102-0.021,0.133-0.148,0.147-0.251c0.082-0.613,0.277-1.211,0.573-1.754c0.131-0.241,0.227-0.446,0.437-0.632
					c0.2-0.177,0.433-0.317,0.688-0.398c0.103-0.033,0.555-0.016,0.454-0.217c-0.019-0.038-0.053-0.067-0.087-0.093
					C396.041,367.917,396.009,367.896,395.978,367.876z"/>
				<path style="fill:#FAFAFA;" d="M397.93,367.949c-0.31-0.042-0.645,0.032-0.904,0.218c-0.306,0.22-0.422,0.539-0.563,0.871
					c-0.274,0.648-0.503,1.612-0.134,2.267c0.118,0.21,0.302,0.109,0.38-0.074c0.087-0.203,0.073-0.481,0.106-0.698
					c0.084-0.513,0.268-1.01,0.473-1.486c0.081-0.188,0.17-0.375,0.298-0.536c0.085-0.108,0.189-0.203,0.31-0.269
					c0.059-0.032,0.121-0.058,0.186-0.071c0.06-0.012,0.126-0.012,0.186-0.017c0.004-0.095-0.103-0.154-0.195-0.177
					C398.026,367.965,397.978,367.956,397.93,367.949z"/>
				<path style="fill:#FAFAFA;" d="M399.918,367.46c-0.226,0.07-0.436,0.187-0.587,0.367c-0.143,0.169-0.224,0.38-0.289,0.591
					c-0.147,0.475-0.294,0.972-0.321,1.472c-0.019,0.353,0.034,0.719,0.212,1.024c0.071,0.121,0.204,0.244,0.334,0.19
					c0.142-0.059,0.136-0.281,0.152-0.409c0.031-0.236,0.018-0.481,0.028-0.718c0.037-0.875,0.355-1.707,0.895-2.4
					c0.027-0.035,0.056-0.076,0.045-0.118c-0.017-0.064-0.103-0.072-0.168-0.063C400.117,367.409,400.016,367.43,399.918,367.46z"/>
				<path style="fill:#FAFAFA;" d="M393.896,367.991c-0.685-0.034-2.163,0.853-2.939,2.938s-0.47,4.755-0.47,4.755
					s-2.025-0.2-3.756-1.932c-0.482-0.482-0.766-0.883-0.916-1.239c-0.133-1.388,0.23-2.532,0.824-3.194
					c1.041-1.16,2.607-1.891,5.044-1.938c2.734-0.053,2.945,0.681,2.945,0.681L393.896,367.991z"/>
			</g>
			<path id="XMLID_4480_" style="fill:#FFA8A7;" d="M410.055,360.84c0,0-0.217,3.584-0.495,5.242
				c-0.157,0.935-1.075,2.378-3.975,2.319c-2.037-0.041-3.147-1.214-3.412-2.245c-0.265-1.03-0.163-6.549-0.163-6.549
				L410.055,360.84z"/>
		</g>
		<g>
			<path style="fill:#FFA8A7;" d="M459.246,352.043l-4.324-10.765l-9.43,3.236c0,0,6.578,9.497,7.36,10.532
				C454.14,356.748,459.246,352.043,459.246,352.043z"/>
			<g>
				<path id="XMLID_16854_" style="fill:#455A64;" d="M463.532,355.027c0.07,0.426,0.038,0.868,0.006,1.301
					c-0.113,1.505-0.226,3.009-0.339,4.514c-0.046,0.614-0.106,1.18-0.245,1.773c-0.156,0.666-0.067,1.457-0.083,2.139
					c-0.018,0.748-0.035,1.497-0.046,2.245c-0.004,0.293-0.069,0.67,0.003,0.959c0.078,0.31-4.741,3.072-6.686,4.136
					c-0.113,0.063-0.226,0.113-0.352,0.169c-1.775,0.698-3.156-0.74-3.156-0.74c-1.367-3.621,1.31-5.904,1.31-5.904
					s0.247,0.014,0.197-1.888c0-1.354-0.017-2.729-0.145-4.077c-0.081-0.853-0.32-1.686-0.641-2.472
					c-0.294-0.72-0.857-1.481-0.826-2.288c0.024-0.646,0.452-1.069,0.758-1.593c0.296-0.507,0.721-0.904,1.178-1.276
					c0.991-0.808,2.165-1.392,3.41-1.683c0.251-0.059,0.518-0.105,0.765-0.028c0.386,0.121,0.615,0.501,0.872,0.813
					c0.578,0.701,1.411,1.13,2.176,1.62c0.765,0.49,1.521,1.115,1.778,1.986C463.494,354.829,463.516,354.928,463.532,355.027z"/>
				<path id="XMLID_4168_" style="fill:#FAFAFA;" d="M453.944,365.619c-0.24,0.296-0.451,0.599-0.627,0.909h-0.007
					c-0.859,1.472-1.071,3.142-0.676,4.995c-3.403-0.31-4.298-2.276-4.298-2.276s-0.19-1.698,1.768-2.931
					c0.247-0.155,0.493-0.289,0.74-0.388c0.014-0.007,0.028-0.014,0.035-0.021C452.527,365.21,453.944,365.619,453.944,365.619z"/>
				<path id="XMLID_16847_" style="fill:#27DEBF;" d="M464.477,355.521c0.895,0.346,0.665,2.804,0.098,5.17
					c-0.567,2.366-0.872,3.191-0.585,5.158c0.287,1.968,0.452,2.849-0.35,3.571s-7.185,3.702-7.185,3.702s1.258-3.03,1.426-7.391
					c0.168-4.361,0.46-7.17,2.483-9.152C462.387,354.597,464.477,355.521,464.477,355.521z"/>
				<path id="XMLID_4093_" style="opacity:0.3;" d="M464.477,355.521c0.895,0.346,0.665,2.804,0.098,5.17
					c-0.567,2.366-0.872,3.191-0.585,5.158c0.287,1.968,0.452,2.849-0.35,3.571s-7.185,3.702-7.185,3.702s1.258-3.03,1.426-7.391
					c0.168-4.361,0.46-7.17,2.483-9.152C462.387,354.597,464.477,355.521,464.477,355.521z"/>
				<path id="XMLID_4165_" style="fill:#37474F;" d="M448.334,369.246c0,0,2.479,2.001,5.326,2.325
					c2.848,0.324,2.99-0.77,3.29-4.146c0.3-3.375,0.416-8.042,1.745-10.098c1.329-2.055,3.564-2.966,4.444-2.758
					c0.181-0.093,1.053,0.559,1.338,0.952c0,0-1.951-0.244-3.729,1.495c-1.779,1.739-2.104,5.41-2.185,8.747
					c-0.082,3.337-0.229,7.204-2.886,7.61c-2.657,0.406-5.482-0.734-7.244-2.203C447.419,370.326,448.334,369.246,448.334,369.246z"
					/>
				<g>
					<path id="XMLID_4156_" style="fill:#FAFAFA;" d="M454.146,364.378c0,0-0.355,0.233-0.394,0.618
						c-0.039,0.385,0.119,1.268,0.966,1.752c0.359,0.205,0.667,0.124,0.088-0.579C454.227,365.466,454.146,364.378,454.146,364.378z
						"/>
					<path id="XMLID_4155_" style="fill:#FAFAFA;" d="M454.089,362.028c0,0-0.225,0.206-0.241,0.511
						c-0.016,0.305,0.545,1.561,1.171,1.839c0.626,0.278,0.289-0.411,0-0.732C454.73,363.325,454.089,362.028,454.089,362.028z"/>
					<path id="XMLID_263_" style="fill:#FAFAFA;" d="M453.935,359.442c0,0-0.279,0.145-0.295,0.418
						c-0.016,0.273,1.267,1.235,1.668,1.203c0.401-0.032,0.497-0.16,0-0.497C454.811,360.229,453.935,359.442,453.935,359.442z"/>
				</g>
			</g>
		</g>
		<path id="XMLID_4166_" style="fill:#455A64;" d="M448.52,349.434c0,0-20.596-30.733-21.221-33.144
			c-0.637-2.4-4.528-27.495-4.528-27.495l-8.059,29.555c0.455,2.115,0.719,5.854,0.731,8.31c0.011,3.264-0.416,8.732-1.644,14.52
			c-2.149,10.155-3.366,19.884-3.366,19.884c-0.754,0.518-2.521,1.046-4.41,0.964c-2.617-0.114-4.317-1.226-4.317-1.226
			s-1.12-27.466-1.438-33.766c-0.318-6.311-0.516-9.11-0.168-13.253c0.475-5.648,0.741-11.515,1.827-23.744
			c0.953-10.736,2.902-33.597,2.902-33.597l33.094-2.194c0,0,2.788,5.283,3.118,18.998c0.262,10.712,0.245,40.107,0.245,40.107
			c4.913,3.082,6.415,6.274,8.758,12.301c1.478,3.798,5.286,15.602,6.411,19.093C452.31,345.883,448.52,349.434,448.52,349.434z"/>
		<g id="XMLID_4486_">
			<g id="XMLID_4492_">
				<path id="XMLID_4543_" style="fill:#F28F8F;" d="M354.205,272.21l-23.957,6.906l-4.782,1.381l-0.009,0
					c-0.683,0.196-1.254-0.164-1.523-0.684c-0.209-0.397-0.21-0.893,0.086-1.329c0.009-0.01,0.018-0.029,0.028-0.039l3.313-4.481
					l14.558-19.717l4.936,7.217L354.205,272.21z"/>
				<path id="XMLID_4542_" style="fill:#FFA8A7;" d="M346.855,261.465l-19.251,15.417l-3.67,2.932
					c-0.209-0.397-0.21-0.893,0.086-1.329c0.009-0.01,0.018-0.029,0.028-0.039l3.313-4.481l14.558-19.717L346.855,261.465z"/>
				<path id="XMLID_4541_" style="fill:#37474F;" d="M330.248,279.116l-4.782,1.381l-0.009,0c-0.683,0.196-1.254-0.164-1.523-0.684
					c-0.209-0.397-0.21-0.893,0.086-1.329c0.009-0.01,0.018-0.029,0.028-0.039l3.313-4.481c-0.185,1.15-0.098,2.121,0.243,2.916
					C328.046,277.931,328.95,278.676,330.248,279.116z"/>
				<path id="XMLID_4539_" style="fill:#27DEBF;" d="M449.261,179.55l-2.354,1.641l-2.849,1.968L341.92,254.245
					c-0.835,3.391,0.026,6.947,1.723,9.978c2.569,4.624,7.077,8.054,10.553,7.974l101.384-70.562l5.432-3.782
					C457.359,200.105,445.628,181.861,449.261,179.55z"/>
				<path id="XMLID_4243_" style="opacity:0.2;" d="M449.261,179.55l-2.354,1.641l-2.849,1.968L341.92,254.245
					c-0.835,3.391,0.026,6.947,1.723,9.978c2.569,4.624,7.077,8.054,10.553,7.974l101.384-70.562l5.432-3.782
					C457.359,200.105,445.628,181.861,449.261,179.55z"/>
				<path id="XMLID_4538_" style="fill:#27DEBF;" d="M446.907,181.191l-2.849,1.968L341.92,254.245
					c-0.835,3.391,0.026,6.947,1.723,9.978l105.083-74.05L446.907,181.191z"/>
				<path id="XMLID_4535_" style="fill:#E0E0E0;" d="M440.275,185.762l-5.253,3.67c-1.558,1.013-0.271,4.942,2.005,8.925
					c3.009,5.298,7.751,10.685,9.818,9.346l3.866-2.715l1.388-0.969c-2.067,1.339-6.823-4.05-9.832-9.348
					c-2.175-3.819-3.441-7.609-2.147-8.781l0.015-0.012C440.171,185.83,440.216,185.795,440.275,185.762z"/>
				<path id="XMLID_4531_" style="fill:#FAFAFA;" d="M442.268,194.672c-2.175-3.819-3.441-7.609-2.147-8.781l0.015-0.012
					c0.034-0.05,0.08-0.085,0.139-0.117l-5.253,3.67c-1.558,1.013-0.271,4.942,2.005,8.925L442.268,194.672L442.268,194.672z"/>
				<path id="XMLID_4520_" style="fill:#27DEBF;" d="M438.973,186.69c-3.623,2.346,8.202,20.609,11.825,18.263l5.27-3.657
					c-3.623,2.346-15.446-15.915-11.823-18.261L438.973,186.69z"/>
				<path id="XMLID_4513_" style="fill:#E0E0E0;" d="M449.261,179.55l-5.203,3.608c-3.574,2.277,7.667,20.018,11.522,18.475
					c0.071-0.018,0.145-0.062,0.219-0.106l5.212-3.675C457.359,200.105,445.628,181.861,449.261,179.55z"/>
				<path id="XMLID_4510_" style="fill:#F28F8F;" d="M471.33,164.225l-22.068,15.325c-1.555,0.987-0.304,4.883,1.933,8.847
					c2.993,5.31,7.729,10.75,9.817,9.455c0.013,0.002,0.013,0.002,0.029-0.01l21.225-14.745c5.233-3.031,0.86-13.879-4.696-17.918
					C475.501,163.654,473.287,163.09,471.33,164.225z"/>
				<path id="XMLID_4493_" style="fill:#FFA8A7;" d="M471.33,164.225l-22.068,15.325c-1.555,0.987-0.304,4.883,1.933,8.847
					l22.254-14.731c0,0-2.785-5.495-1.658-7.741c1.129-2.259,3.357-2.089,5.778-0.746
					C475.501,163.654,473.287,163.09,471.33,164.225z"/>
			</g>
			<path id="XMLID_4490_" style="opacity:0.4;fill:#FFFFFF;" d="M444.244,183.035l-5.272,3.655c-1.551,1.004-0.267,4.928,1.99,8.901
				l5.251-3.691C443.97,187.939,442.698,184.037,444.244,183.035z"/>
			<path id="XMLID_4487_" style="fill:#FAFAFA;" d="M449.262,179.55l-5.203,3.608c-1.556,0.992-0.302,4.915,1.926,8.902l5.21-3.663
				C448.965,184.434,447.709,180.538,449.262,179.55z"/>
		</g>
		<g>
			<g id="XMLID_4449_">
				<g id="XMLID_4452_">
					<polygon id="XMLID_4455_" style="fill:#FFA8A7;" points="415.729,209.759 416.85,221.964 427.758,221.331 426.94,207.797 					
						"/>
				</g>
			</g>
			<g id="XMLID_4440_">
				<g id="XMLID_4445_">
					<path id="XMLID_4448_" style="fill:#F28F8F;" d="M407.695,196.338c0,0-2.429,3.578-2.116,3.959
						c0.314,0.381,1.847,0.791,1.847,0.791L407.695,196.338z"/>
				</g>
				<path style="fill:#263238;" d="M434.131,187.334c-0.342-0.321-0.716-0.615-1.039-0.953c-0.144-0.15-0.277-0.308-0.394-0.481
					c-0.779-1.156-1.086-2.485-2.038-3.563c-0.936-1.06-2.148-1.873-3.455-2.402c-2.353-0.953-4.954-1.075-7.491-1.008
					c-2.537,0.067-5.083,0.311-7.607,0.042c-1.142-0.122-2.348-0.339-3.401,0.12c-1.27,0.553-1.978,2.023-1.913,3.407
					c0.066,1.384,0.786,2.667,1.713,3.696c-1.035,0.206-1.668,1.364-1.601,2.417c0.068,1.053,0.67,1.996,1.342,2.809
					c1.173,1.418,2.075,2.4,2.422,4.248c0.475,2.537,3.209,3.888,4.937,5.681c0.634,0.658,1.317,1.317,1.879,2.038
					c0.037,0.048,0.068,0.1,0.105,0.149c-0.772,0.151-1.536-0.13-1.536-0.13s-0.322,5.406,3.501,7.165c0,0,3.608,0.845,7.53-0.402
					c2.488-1.821,4.788-4.579,6.706-7.731C436.394,198.156,438.331,191.275,434.131,187.334z"/>
				<g id="XMLID_4444_">
					<path style="fill:#FFA8A7;" d="M419.551,202.345c-0.498,0.726-1.199,1.041-1.956,1.187c-0.775,0.156-1.54-0.128-1.54-0.128
						s-0.241,4.097,2.215,6.301c-0.505,0.203-0.963,0.36-1.356,0.48c-2.196,0.654-6.415,0.357-7.224-0.412
						c-1.209-1.153-3.176-4.186-2.066-12.91c0.453-3.564,1.425-6.016,2.58-7.747c0.172,1.242,1.017,2.366,2.154,2.865
						c-0.638,0.856-0.867,2.003-0.6,3.032c0.312,1.234,1.242,2.208,2.134,3.108c0.056,0.056,0.111,0.113,0.186,0.132
						c0.13,0.047,0.691,0.003,0.775-0.109c0.78-1.136,1.849-2.457,3.937-1.758C421.205,197.189,421.072,200.139,419.551,202.345z"/>
				</g>
				<path style="fill:#F28F8F;" d="M409.912,209.927c0.986,0.548,3.788,0.785,5.878,0.488l-0.057-1.567c0,0-1.17,0.536-2.786,0.895
					C411.341,210.1,409.929,209.929,409.912,209.927z"/>
				<path id="XMLID_4441_" style="fill:#263238;" d="M413.713,201.199c-1.071-0.385-1.622-1.551-1.23-2.604
					c0.392-1.053,1.578-1.594,2.649-1.208L413.713,201.199z"/>
			</g>
		</g>
		<path id="XMLID_4474_" style="opacity:0.15;" d="M422.743,288.898l2.798-11.998c0,0,4.77,0.341,10.628-4.346
			c0,0-0.675,4.19-8.947,6.139l-2.745,11.755l0.862,14.568C425.34,305.015,422.78,289.166,422.743,288.898z"/>
		<g id="XMLID_4347_">
			<path id="XMLID_4473_" style="fill:#27DEBF;" d="M437.056,218.173c-1.048-3.153-2.621-4.321-4.157-4.617
				c-1.536-0.296-5.638,0.045-5.638,0.045c-0.343,1.751-5.984,3.002-11.061,1.187l-5.098,0.802
				c-4.505,2.077-5.526,7.271-7.912,12.582c-1.676,3.73-0.938,7.584,2.443,10.556c0,0-0.445,6.378-0.678,9.95
				c-0.347,5.335-0.717,10.668-1.11,16.001c0,0,4.992,4.573,20.476,4c11.329-0.42,15.375-4.206,16.043-5.941
				c-0.61-7.118-4.194-13.829-4.888-16.03c-0.914-2.898-1.061-5.32-0.674-6.838C437.541,229.152,438.51,222.547,437.056,218.173z"/>
			<path id="XMLID_4176_" style="opacity:0.4;fill:#FFFFFF;" d="M437.056,218.173c-1.048-3.153-2.621-4.321-4.157-4.617
				c-1.536-0.296-5.638,0.045-5.638,0.045c-0.343,1.751-5.984,3.002-11.061,1.187l-5.098,0.802
				c-4.505,2.077-5.526,7.271-7.912,12.582c-1.676,3.73-0.938,7.584,2.443,10.556c0,0-0.445,6.378-0.678,9.95
				c-0.347,5.335-0.717,10.668-1.11,16.001c0,0,4.992,4.573,20.476,4c11.329-0.42,15.375-4.206,16.043-5.941
				c-0.61-7.118-4.194-13.829-4.888-16.03c-0.914-2.898-1.061-5.32-0.674-6.838C437.541,229.152,438.51,222.547,437.056,218.173z"/>
		</g>
		<path id="XMLID_4339_" style="fill:#FFA8A7;" d="M412.996,215.352c-8.764,0.469-9.332,2.395-13.352,10.566
			c-2.127,4.324-5.473,13.012-7.481,17.182c-4.419,1.996-14.624,3.637-18.642,2.768c-0.787-0.17-1.5-0.606-1.968-1.262
			c-1.281-1.8-2.545-2.051-4.096-3.343c-1.202-1.001-1.546-1.901-1.895-1.734c-0.449,0.214-1.144,1.034-0.651,2.328
			c0.248,0.651,0.6,1.113,1.357,2.137c0,0-2.043-0.649-4.492-2.384c-3.318-2.35-5.257-2.332-4.95,2.849
			c0.192,3.246,2.369,5.699,9.684,7.654c2.108,0.563,5.434,1.443,8.183,1.734c6.646,0.704,16.291-0.278,20.947-1.337
			c0.629-0.143,2.085-0.561,3.888-2.419c2.809-2.895,9.271-15.628,9.271-15.628C413.726,226.737,414.149,219.699,412.996,215.352z"
			/>
	</g>
</g>
<g id="Speech_Bubble">
	<g id="Speech_Bubble_1_">
		<g id="Speech_Bubble_5_">
			<g>
				<path style="fill:#27DEBF;" d="M417.711,154.383c-0.107-0.061-0.201-0.152-0.271-0.273l-3.396-5.882v-3.239l9.999-3.909v3.239
					l-1.212,3.499l5.943-3.431l0.361,2.008l-3.539,11.556c-0.162,0.469-0.696,0.619-1.073,0.4
					C424.416,158.29,418.088,154.6,417.711,154.383z"/>
				<path style="opacity:0.3;" d="M417.711,154.383c-0.107-0.061-0.201-0.152-0.271-0.273l-3.396-5.882v-3.239l9.999-3.909v3.239
					l-1.212,3.499l5.943-3.431l0.361,2.008l-3.539,11.556c-0.162,0.469-0.696,0.619-1.073,0.4
					C424.416,158.29,418.088,154.6,417.711,154.383z"/>
				<path style="fill:#27DEBF;" d="M428.773,144.387l0.361,2.008l-3.539,11.556c-0.208,0.6-1.025,0.678-1.343,0.128l-3.839-6.649
					l0.443-2.472L428.773,144.387z"/>
				<path style="opacity:0.2;" d="M428.773,144.387l0.361,2.008l-3.539,11.556c-0.208,0.6-1.025,0.678-1.343,0.128l-3.839-6.649
					l0.443-2.472L428.773,144.387z"/>
			</g>
			<g id="XMLID_3771_">
				<path id="XMLID_3892_" style="fill:#27DEBF;" d="M441.163,110.924c0-2.064-1.449-4.574-3.237-5.606l0.003,0.005
					c-1.787-1.032-4.686-1.032-6.474,0l-30.324,17.385c-1.788,1.032-3.237,3.542-3.237,5.607v24.969c0,2.064,1.45,4.574,3.237,5.606
					l-0.003-0.005c1.788,1.032,4.686,1.032,6.474,0l30.626-17.605c2.908-1.658,2.935-3.322,2.935-5.387L441.163,110.924z"/>
				<path id="XMLID_3834_" style="opacity:0.2;" d="M441.163,110.924c0-2.064-1.449-4.574-3.237-5.606l0.003,0.005
					c-1.787-1.032-4.686-1.032-6.474,0l-30.324,17.385c-1.788,1.032-3.237,3.542-3.237,5.607v24.969c0,2.064,1.45,4.574,3.237,5.606
					l-0.003-0.005c1.788,1.032,4.686,1.032,6.474,0l30.626-17.605c2.908-1.658,2.935-3.322,2.935-5.387L441.163,110.924z"/>
				<path id="XMLID_3831_" style="opacity:0.2;" d="M397.894,153.283c0,2.064,1.45,4.574,3.237,5.606l-0.003-0.005
					c1.616,0.933,4.13,1.025,5.921,0.271c-1.523,0.576-2.684-0.294-2.684-2.14l0-24.969c0-1.032,0.363-2.176,0.948-3.19
					l-6.471-3.732c-0.586,1.014-0.948,2.158-0.948,3.19V153.283z"/>
				<path id="XMLID_3830_" style="fill:#27DEBF;" d="M441.057,110.004c-0.378-1.374-1.631-1.812-3.126-0.951l-30.331,17.39
					c-0.891,0.513-1.706,1.39-2.28,2.416l-6.467-3.728c0.589-1.027,1.389-1.903,2.28-2.416l30.316-17.39
					c1.797-1.027,4.696-1.027,6.479,0l0.004-0.002C439.457,106.199,440.74,108.162,441.057,110.004z"/>
			</g>
		</g>
		<g>
			<path style="fill:#FAFAFA;" d="M429.244,130.87c0,1.528,1.073,2.148,2.396,1.383c1.323-0.764,2.396-2.622,2.396-4.151
				c0-1.528-1.073-2.148-2.396-1.383C430.316,127.483,429.244,129.341,429.244,130.87z"/>
			<path style="fill:#FAFAFA;" d="M420.368,135.994c0,1.528,1.073,2.148,2.396,1.383s2.396-2.622,2.396-4.151
				c0-1.528-1.073-2.148-2.396-1.383S420.368,134.465,420.368,135.994z"/>
			<path style="fill:#FAFAFA;" d="M411.493,141.118c0,1.528,1.073,2.148,2.396,1.383s2.396-2.622,2.396-4.15
				c0-1.528-1.073-2.148-2.396-1.384S411.493,139.59,411.493,141.118z"/>
		</g>
	</g>
</g>
</svg>
