<?xml version="1.0" encoding="utf-8"?>
<!-- Generator: Adobe Illustrator 27.5.0, SVG Export Plug-In . SVG Version: 6.00 Build 0)  -->
<svg version="1.1" xmlns="http://www.w3.org/2000/svg" xmlns:xlink="http://www.w3.org/1999/xlink" x="0px" y="0px"
	 viewBox="0 0 750 500" style="enable-background:new 0 0 750 500;" xml:space="preserve">
<g id="BACKGROUND">
</g>
<g id="OBJECTS">
	<path style="fill:#FFA865;" d="M555.646,369.18c0.297-2.437,0.468-4.912,0.468-7.429c0-33.621-27.255-60.875-60.875-60.875
		c-8.462,0-16.519,1.73-23.842,4.85c-15.313-38.7-53.058-66.077-97.205-66.077c-41.486,0-77.326,24.173-94.203,59.201
		c-7.915-4.524-17.073-7.123-26.843-7.123c-29.928,0-54.189,24.261-54.189,54.19c0,13.618,5.035,26.053,13.33,35.573
		c-31.071,1.129-55.919,26.651-55.919,57.997c0,12.927,4.227,24.866,11.371,34.514h146.038h202.46h92.346
		c3.639-9.02,5.647-18.873,5.647-29.197C614.229,408.413,589.333,377.842,555.646,369.18z"/>
	<g>
		<g>
			<g>
				<path style="fill:#FF6A81;stroke:#FF6A81;stroke-width:0.6908;stroke-miterlimit:10;" d="M564.082,325.858
					c-0.867,0-1.248-0.382-1.248-1.248v-1.872h-4.749c-0.867,0-1.248-0.382-1.248-1.248v-4.056c0-0.866,0.381-1.248,1.248-1.248
					h9.324c0.589,0,0.901-0.45,0.901-1.005c0-0.797-0.312-1.109-0.901-1.179l-5.199-0.727c-3.258-0.485-5.372-1.872-5.372-5.754
					v-3.64c0-3.605,2.218-5.684,5.996-6.031v-1.941c0-0.866,0.381-1.248,1.248-1.248h5.026c0.867,0,1.248,0.382,1.248,1.248v1.872
					h3.361c0.867,0,1.248,0.382,1.248,1.248v4.124c0,0.867-0.382,1.248-1.248,1.248h-8.076c-0.589,0-0.935,0.416-0.935,1.039
					c0,0.624,0.346,1.04,0.935,1.109l5.164,0.693c3.258,0.485,5.407,1.872,5.407,5.754v3.639c0,3.536-2.184,5.65-5.857,6.031v1.941
					c0,0.866-0.382,1.248-1.248,1.248H564.082z"/>
			</g>
			<g>
				<path style="fill:#00C0CB;" d="M195.542,294.41l1.889,1.297c0.777-1.132,1.358-2.378,1.727-3.703l-2.205-0.613
					c0.099-0.356,0.181-0.719,0.242-1.092c0.154-0.939,0.17-1.869,0.069-2.771l2.277-0.253c-0.152-1.364-0.526-2.686-1.113-3.93
					l-2.073,0.978c-0.556-1.177-1.333-2.24-2.287-3.127l1.559-1.68c-1.008-0.936-2.155-1.693-3.41-2.25l-0.929,2.092
					c-0.779-0.346-1.613-0.601-2.493-0.745l0.369-2.257c-1.358-0.222-2.73-0.22-4.078,0.007l0.38,2.259
					c-1.299,0.22-2.529,0.689-3.63,1.365l-1.2-1.955c-1.168,0.717-2.204,1.615-3.078,2.668l1.764,1.464
					c-0.82,0.985-1.461,2.134-1.865,3.404l-2.181-0.692c-0.182,0.575-0.324,1.169-0.422,1.767c-0.122,0.747-0.177,1.508-0.162,2.26
					l2.29-0.044c0.026,1.33,0.314,2.613,0.82,3.793l-2.108,0.903c0.539,1.258,1.277,2.413,2.192,3.432l1.706-1.533
					c0.861,0.96,1.907,1.76,3.093,2.341l-1.005,2.057c1.091,0.533,2.256,0.903,3.462,1.1c0.147,0.024,0.296,0.046,0.443,0.064
					l0.289-2.271c1.332,0.169,2.641,0.071,3.871-0.255l0.585,2.216c1.324-0.349,2.575-0.912,3.719-1.672l-1.269-1.91
					C193.857,296.41,194.799,295.49,195.542,294.41z M180.72,287.604c0.58-3.546,3.937-5.96,7.484-5.38
					c3.546,0.58,5.96,3.937,5.38,7.484c-0.58,3.546-3.937,5.96-7.484,5.38C182.553,294.508,180.14,291.151,180.72,287.604z"/>
			</g>
			<g>
				<path style="fill:#00C0CB;" d="M475.349,224.875l1.889,1.297c0.777-1.132,1.358-2.378,1.727-3.703l-2.205-0.613
					c0.099-0.356,0.181-0.72,0.242-1.092c0.154-0.939,0.17-1.869,0.069-2.771l2.277-0.253c-0.152-1.364-0.526-2.686-1.113-3.93
					l-2.073,0.978c-0.556-1.177-1.333-2.24-2.287-3.127l1.559-1.68c-1.008-0.936-2.155-1.693-3.41-2.25l-0.929,2.092
					c-0.779-0.347-1.613-0.601-2.493-0.745l0.369-2.257c-1.358-0.222-2.73-0.22-4.079,0.007l0.38,2.26
					c-1.299,0.22-2.529,0.689-3.629,1.365l-1.2-1.955c-1.168,0.717-2.204,1.615-3.078,2.668l1.764,1.465
					c-0.82,0.985-1.461,2.134-1.865,3.404l-2.181-0.692c-0.182,0.575-0.324,1.169-0.422,1.767c-0.122,0.747-0.177,1.508-0.162,2.26
					l2.29-0.044c0.026,1.33,0.314,2.613,0.82,3.793l-2.108,0.903c0.539,1.258,1.277,2.413,2.192,3.432l1.706-1.533
					c0.861,0.96,1.907,1.761,3.093,2.341l-1.005,2.057c1.091,0.533,2.256,0.903,3.462,1.1c0.147,0.024,0.296,0.046,0.443,0.064
					l0.289-2.271c1.332,0.169,2.641,0.071,3.871-0.255l0.585,2.216c1.324-0.35,2.575-0.912,3.719-1.672l-1.269-1.91
					C473.665,226.874,474.606,225.954,475.349,224.875z M460.527,218.069c0.58-3.546,3.937-5.96,7.484-5.38
					c3.547,0.58,5.96,3.937,5.38,7.484c-0.58,3.546-3.937,5.96-7.484,5.38C462.361,224.972,459.947,221.615,460.527,218.069z"/>
			</g>
			<g>
				<g>
					<path style="fill:#00C0CB;" d="M373.464,173.034c-0.152-0.019-0.307-0.042-0.46-0.066c-1.251-0.205-2.459-0.589-3.59-1.141
						l-0.416-0.203l1.01-2.067c-0.926-0.504-1.766-1.14-2.506-1.897l-1.713,1.539l-0.309-0.344c-0.949-1.057-1.714-2.254-2.274-3.56
						l-0.183-0.426l2.117-0.907c-0.375-0.989-0.598-2.02-0.665-3.074l-2.299,0.044l-0.009-0.463
						c-0.015-0.78,0.042-1.568,0.168-2.344c0.101-0.62,0.249-1.237,0.438-1.833l0.14-0.441l2.19,0.695
						c0.363-0.992,0.87-1.917,1.512-2.76l-1.771-1.47l0.296-0.356c0.906-1.092,1.98-2.023,3.192-2.767l0.395-0.242l1.206,1.963
						c0.924-0.515,1.91-0.885,2.941-1.106l-0.382-2.27l0.457-0.077c0.703-0.118,1.421-0.178,2.133-0.178
						c0.698,0,1.403,0.058,2.097,0.171l0.456,0.075l-0.37,2.267c0.589,0.123,1.166,0.295,1.724,0.515l0.933-2.101l0.423,0.188
						c1.303,0.578,2.493,1.363,3.538,2.333l0.339,0.315l-1.566,1.688c0.74,0.75,1.361,1.599,1.852,2.532l2.082-0.982l0.198,0.419
						c0.609,1.291,0.997,2.663,1.154,4.076l0.051,0.46l-2.286,0.254c0.056,0.815,0.018,1.632-0.113,2.436
						c-0.038,0.234-0.085,0.465-0.138,0.693l2.214,0.615l-0.124,0.446c-0.382,1.374-0.984,2.666-1.791,3.841l-0.263,0.381
						l-1.896-1.303c-0.635,0.841-1.385,1.579-2.239,2.201l1.275,1.918l-0.386,0.256c-1.186,0.788-2.484,1.372-3.857,1.734
						l-0.447,0.118l-0.588-2.225c-0.74,0.162-1.496,0.244-2.254,0.244c-0.293,0-0.589-0.012-0.884-0.037l-0.29,2.28L373.464,173.034
						z M375.087,154.156c-2.979,0-5.49,2.135-5.972,5.078c-0.26,1.593,0.117,3.195,1.062,4.509c0.945,1.315,2.343,2.182,3.936,2.442
						c0.325,0.053,0.655,0.08,0.981,0.08c2.979,0,5.49-2.135,5.971-5.078c0.539-3.294-1.703-6.413-4.998-6.952
						C375.743,154.183,375.413,154.156,375.087,154.156z"/>
					<path style="fill:#00C0CB;" d="M375.08,147.747c0.674,0,1.35,0.055,2.022,0.165l-0.369,2.257
						c0.88,0.144,1.714,0.398,2.493,0.745l0.929-2.092c1.254,0.557,2.401,1.314,3.41,2.25l-1.56,1.68
						c0.954,0.887,1.731,1.95,2.287,3.127l2.073-0.978c0.587,1.244,0.961,2.566,1.113,3.93l-2.277,0.253
						c0.101,0.902,0.085,1.832-0.069,2.771c-0.061,0.373-0.143,0.736-0.242,1.092l2.205,0.613c-0.368,1.325-0.949,2.571-1.727,3.703
						l-1.889-1.297c-0.743,1.08-1.685,2-2.764,2.717l1.269,1.91c-1.144,0.76-2.395,1.322-3.719,1.672l-0.585-2.216
						c-0.832,0.221-1.7,0.337-2.586,0.337c-0.425,0-0.854-0.027-1.285-0.082l-0.289,2.271c-0.147-0.019-0.296-0.04-0.443-0.064
						c-1.206-0.197-2.371-0.568-3.462-1.1l1.005-2.057c-1.186-0.581-2.231-1.381-3.093-2.341l-1.706,1.533
						c-0.916-1.019-1.653-2.174-2.192-3.432l2.108-0.903c-0.507-1.18-0.794-2.463-0.82-3.793l-2.29,0.044
						c-0.014-0.753,0.04-1.513,0.162-2.26c0.098-0.598,0.24-1.192,0.422-1.767l2.181,0.692c0.404-1.27,1.045-2.419,1.865-3.404
						l-1.764-1.464c0.874-1.053,1.91-1.951,3.078-2.668l1.2,1.955c1.1-0.676,2.33-1.145,3.63-1.365l-0.38-2.26
						C373.704,147.804,374.392,147.747,375.08,147.747 M375.094,166.729c3.134,0,5.906-2.274,6.428-5.466
						c0.58-3.546-1.833-6.904-5.38-7.484c-0.355-0.058-0.707-0.086-1.055-0.086c-3.134,0-5.906,2.274-6.428,5.466
						c-0.58,3.546,1.833,6.904,5.38,7.484C374.393,166.701,374.746,166.729,375.094,166.729 M375.08,146.821
						c-0.738,0-1.482,0.062-2.21,0.185l-0.913,0.153l0.153,0.913l0.233,1.385c-0.777,0.199-1.527,0.481-2.245,0.845l-0.736-1.198
						l-0.484-0.789l-0.789,0.484c-1.254,0.77-2.367,1.734-3.306,2.866l-0.591,0.712l0.712,0.591l1.081,0.897
						c-0.462,0.66-0.849,1.365-1.155,2.109l-1.336-0.424l-0.882-0.28l-0.28,0.882c-0.196,0.617-0.348,1.256-0.453,1.898
						c-0.131,0.802-0.19,1.619-0.174,2.427l0.018,0.926l0.926-0.018l1.403-0.027c0.083,0.8,0.253,1.585,0.508,2.349l-1.292,0.553
						l-0.851,0.365l0.365,0.851c0.579,1.352,1.371,2.592,2.355,3.686l0.619,0.689l0.689-0.619l1.045-0.939
						c0.585,0.553,1.225,1.038,1.914,1.449l-0.616,1.261l-0.406,0.832l0.832,0.406c1.172,0.572,2.423,0.97,3.719,1.182
						c0.158,0.026,0.318,0.049,0.476,0.069l0.918,0.117l0.117-0.918l0.177-1.391c0.16,0.007,0.32,0.01,0.479,0.01
						c0.643,0,1.285-0.056,1.918-0.168l0.358,1.358l0.236,0.895l0.895-0.236c1.422-0.375,2.766-0.98,3.995-1.796l0.771-0.512
						l-0.512-0.771l-0.778-1.171c0.63-0.498,1.201-1.059,1.708-1.679l1.158,0.795l0.763,0.524l0.524-0.763
						c0.835-1.217,1.46-2.555,1.855-3.98l0.248-0.892l-0.892-0.248l-1.349-0.375c0.019-0.097,0.036-0.193,0.051-0.289
						c0.113-0.692,0.16-1.395,0.14-2.098l1.394-0.155l0.92-0.102l-0.102-0.92c-0.163-1.465-0.565-2.886-1.196-4.223l-0.395-0.837
						l-0.837,0.395l-1.271,0.6c-0.401-0.694-0.873-1.339-1.413-1.931l0.956-1.03l0.63-0.678l-0.678-0.63
						c-1.083-1.005-2.315-1.819-3.664-2.417l-0.846-0.376l-0.376,0.846l-0.569,1.28c-0.312-0.109-0.629-0.203-0.95-0.284
						l0.226-1.381l0.149-0.913l-0.914-0.15C376.533,146.881,375.803,146.821,375.08,146.821L375.08,146.821z M375.094,165.803
						c-0.301,0-0.606-0.025-0.906-0.074c-1.471-0.241-2.762-1.042-3.635-2.256c-0.873-1.214-1.221-2.693-0.981-4.165
						c0.444-2.717,2.764-4.689,5.515-4.689c0.301,0,0.606,0.025,0.906,0.074c1.471,0.241,2.762,1.042,3.635,2.256
						c0.873,1.214,1.221,2.693,0.981,4.164C380.164,163.831,377.845,165.803,375.094,165.803L375.094,165.803z"/>
				</g>
				<path style="fill:#FF6A81;" d="M371.444,183.999l3.602,0.446c0.267-2.16,0.175-4.336-0.274-6.468l-3.548,0.747
					c-0.12-0.572-0.27-1.144-0.457-1.712c-0.469-1.432-1.125-2.752-1.925-3.947l3.017-2.017c-1.208-1.807-2.699-3.393-4.433-4.715
					l-2.202,2.889c-1.641-1.249-3.509-2.177-5.498-2.728l0.967-3.5c-2.101-0.581-4.266-0.808-6.437-0.676l0.22,3.619
					c-1.348,0.081-2.707,0.333-4.049,0.772l-1.128-3.443c-2.072,0.679-4,1.683-5.731,2.986l2.183,2.9
					c-1.667,1.257-3.054,2.814-4.108,4.568l-3.115-1.874c-1.12,1.861-1.921,3.879-2.382,5.998l3.549,0.772
					c-0.434,1.984-0.498,4.067-0.139,6.148l-3.572,0.618c0.163,0.941,0.397,1.881,0.696,2.793c0.373,1.14,0.851,2.249,1.421,3.297
					l3.188-1.733c1.007,1.851,2.348,3.446,3.921,4.736l-2.306,2.808c1.676,1.376,3.556,2.462,5.587,3.227l1.281-3.4
					c1.912,0.721,3.966,1.085,6.058,1.036l0.088,3.627c1.923-0.047,3.831-0.376,5.671-0.979c0.224-0.073,0.449-0.152,0.67-0.233
					l-1.251-3.405c1.997-0.734,3.765-1.827,5.258-3.184l2.44,2.69c1.607-1.458,2.956-3.162,4.01-5.065l-3.179-1.76
					C370.534,188.041,371.187,186.06,371.444,183.999z M346.311,185.022c-1.65-5.037,1.106-10.478,6.143-12.127
					c5.037-1.65,10.478,1.106,12.127,6.143c1.65,5.037-1.106,10.478-6.143,12.127C353.401,192.815,347.961,190.059,346.311,185.022z
					"/>
			</g>
		</g>
		<g>
			<g>
				<path style="fill:#FFFFFF;" d="M235.597,406.083c-0.597,0-0.859-0.263-0.859-0.859v-1.289h-3.27
					c-0.597,0-0.859-0.263-0.859-0.859v-2.793c0-0.596,0.262-0.859,0.859-0.859h6.421c0.406,0,0.621-0.31,0.621-0.692
					c0-0.549-0.215-0.764-0.621-0.812l-3.58-0.501c-2.243-0.334-3.7-1.289-3.7-3.962v-2.507c0-2.482,1.527-3.914,4.129-4.153v-1.337
					c0-0.596,0.262-0.859,0.859-0.859h3.461c0.597,0,0.86,0.263,0.86,0.859v1.289h2.315c0.597,0,0.86,0.263,0.86,0.859v2.84
					c0,0.597-0.263,0.86-0.86,0.86h-5.561c-0.406,0-0.644,0.286-0.644,0.716c0,0.43,0.239,0.716,0.644,0.764l3.556,0.477
					c2.244,0.334,3.724,1.289,3.724,3.962v2.506c0,2.435-1.504,3.891-4.034,4.153v1.337c0,0.596-0.263,0.859-0.86,0.859H235.597z"/>
			</g>
			<path style="fill:#FFFFFF;" d="M356.777,308.666l3.602,0.445c0.267-2.16,0.175-4.336-0.274-6.468l-3.548,0.747
				c-0.12-0.572-0.27-1.144-0.457-1.712c-0.469-1.432-1.125-2.752-1.925-3.947l3.017-2.017c-1.208-1.807-2.699-3.393-4.433-4.715
				l-2.202,2.889c-1.641-1.249-3.509-2.177-5.498-2.728l0.967-3.5c-2.101-0.581-4.266-0.808-6.437-0.676l0.22,3.619
				c-1.348,0.081-2.707,0.332-4.049,0.772l-1.128-3.443c-2.072,0.678-4,1.683-5.731,2.986l2.183,2.9
				c-1.667,1.257-3.054,2.815-4.108,4.568l-3.115-1.874c-1.12,1.861-1.921,3.879-2.382,5.998l3.549,0.772
				c-0.434,1.984-0.498,4.067-0.139,6.148l-3.573,0.618c0.163,0.941,0.397,1.881,0.696,2.793c0.373,1.14,0.851,2.249,1.421,3.297
				l3.188-1.733c1.007,1.851,2.348,3.446,3.921,4.736l-2.306,2.808c1.676,1.376,3.556,2.462,5.587,3.227l1.281-3.401
				c1.912,0.721,3.966,1.085,6.058,1.036l0.088,3.627c1.923-0.047,3.831-0.376,5.671-0.979c0.224-0.073,0.449-0.152,0.67-0.233
				l-1.251-3.405c1.997-0.734,3.765-1.827,5.258-3.184l2.44,2.69c1.607-1.458,2.956-3.162,4.01-5.065l-3.179-1.76
				C355.867,312.707,356.52,310.726,356.777,308.666z M331.644,309.688c-1.65-5.037,1.106-10.478,6.143-12.127
				c5.037-1.65,10.477,1.106,12.127,6.143c1.65,5.037-1.106,10.477-6.143,12.127C338.734,317.481,333.294,314.725,331.644,309.688z"
				/>
			<g>
				<path style="fill:#FFFFFF;" d="M520.343,354.582l2.559,0.316c0.19-1.534,0.124-3.08-0.195-4.595l-2.52,0.531
					c-0.086-0.407-0.192-0.813-0.324-1.217c-0.333-1.017-0.799-1.955-1.368-2.804l2.143-1.433c-0.858-1.284-1.918-2.41-3.149-3.349
					l-1.564,2.052c-1.166-0.887-2.493-1.546-3.906-1.938l0.687-2.487c-1.492-0.412-3.031-0.574-4.572-0.48l0.156,2.571
					c-0.958,0.057-1.923,0.236-2.876,0.548l-0.801-2.446c-1.472,0.482-2.841,1.196-4.071,2.121l1.551,2.06
					c-1.184,0.893-2.17,1.999-2.918,3.245l-2.213-1.331c-0.795,1.322-1.365,2.755-1.692,4.261l2.521,0.549
					c-0.308,1.409-0.354,2.889-0.098,4.367l-2.538,0.439c0.116,0.669,0.282,1.336,0.494,1.984c0.265,0.81,0.605,1.598,1.009,2.342
					l2.265-1.231c0.715,1.315,1.668,2.448,2.785,3.364l-1.638,1.995c1.191,0.978,2.526,1.749,3.969,2.292l0.91-2.416
					c1.358,0.512,2.817,0.771,4.303,0.736l0.063,2.576c1.366-0.033,2.722-0.267,4.029-0.695c0.159-0.052,0.319-0.108,0.476-0.165
					l-0.888-2.419c1.418-0.521,2.675-1.298,3.735-2.262l1.733,1.911c1.142-1.035,2.1-2.246,2.849-3.598l-2.258-1.25
					C519.696,357.453,520.16,356.046,520.343,354.582z M502.489,355.308c-1.172-3.578,0.786-7.443,4.364-8.615
					c3.578-1.172,7.443,0.786,8.615,4.364c1.172,3.578-0.786,7.443-4.364,8.615C507.526,360.844,503.661,358.887,502.489,355.308z"
					/>
				<path style="fill:#FFFFFF;" d="M506.733,375.674l1.295,0.16c0.096-0.777,0.063-1.559-0.099-2.326l-1.276,0.269
					c-0.043-0.206-0.097-0.411-0.164-0.616c-0.169-0.515-0.404-0.989-0.692-1.419l1.085-0.725c-0.434-0.65-0.971-1.22-1.594-1.695
					l-0.792,1.039c-0.59-0.449-1.262-0.783-1.977-0.981l0.348-1.259c-0.755-0.209-1.534-0.291-2.315-0.243l0.079,1.302
					c-0.485,0.029-0.974,0.119-1.456,0.278l-0.405-1.238c-0.745,0.244-1.438,0.605-2.061,1.074l0.785,1.043
					c-0.599,0.452-1.098,1.012-1.477,1.643l-1.12-0.674c-0.403,0.669-0.691,1.395-0.857,2.157l1.276,0.278
					c-0.156,0.713-0.179,1.462-0.05,2.211l-1.285,0.222c0.059,0.339,0.143,0.676,0.25,1.005c0.134,0.41,0.306,0.809,0.511,1.186
					l1.146-0.623c0.362,0.665,0.844,1.239,1.41,1.703l-0.829,1.01c0.603,0.495,1.279,0.885,2.009,1.16l0.461-1.223
					c0.688,0.259,1.426,0.39,2.178,0.372l0.032,1.304c0.692-0.017,1.378-0.135,2.039-0.352c0.081-0.026,0.162-0.055,0.241-0.084
					l-0.45-1.224c0.718-0.264,1.354-0.657,1.891-1.145l0.877,0.967c0.578-0.524,1.063-1.137,1.442-1.821l-1.143-0.633
					C506.406,377.127,506.641,376.415,506.733,375.674z M497.696,376.042c-0.593-1.811,0.398-3.768,2.209-4.361
					c1.811-0.593,3.768,0.398,4.361,2.209c0.593,1.811-0.398,3.768-2.209,4.361C500.245,378.844,498.289,377.853,497.696,376.042z"
					/>
			</g>
			<path style="fill:#FFFFFF;" d="M538.01,427.09l1.295,0.16c0.096-0.777,0.063-1.559-0.099-2.326l-1.276,0.269
				c-0.043-0.206-0.097-0.411-0.164-0.616c-0.169-0.515-0.404-0.99-0.692-1.419l1.085-0.725c-0.435-0.65-0.971-1.22-1.594-1.695
				l-0.792,1.039c-0.59-0.449-1.262-0.783-1.977-0.981l0.348-1.259c-0.755-0.209-1.534-0.29-2.315-0.243l0.079,1.301
				c-0.485,0.029-0.973,0.12-1.456,0.278l-0.406-1.238c-0.745,0.244-1.438,0.605-2.061,1.074l0.785,1.043
				c-0.599,0.452-1.098,1.012-1.477,1.643l-1.12-0.674c-0.403,0.669-0.691,1.395-0.857,2.157l1.276,0.278
				c-0.156,0.713-0.179,1.462-0.05,2.211l-1.285,0.222c0.059,0.338,0.143,0.676,0.25,1.004c0.134,0.41,0.306,0.809,0.511,1.186
				l1.146-0.623c0.362,0.665,0.844,1.239,1.41,1.703l-0.829,1.01c0.603,0.495,1.279,0.885,2.009,1.16l0.461-1.223
				c0.687,0.259,1.426,0.39,2.178,0.372l0.032,1.304c0.692-0.017,1.378-0.135,2.039-0.352c0.08-0.026,0.162-0.055,0.241-0.084
				l-0.45-1.224c0.718-0.264,1.354-0.657,1.891-1.145l0.877,0.967c0.578-0.524,1.063-1.137,1.442-1.821l-1.143-0.633
				C537.683,428.543,537.918,427.831,538.01,427.09z M528.972,427.458c-0.593-1.811,0.398-3.768,2.209-4.361
				c1.811-0.593,3.768,0.398,4.361,2.209c0.593,1.811-0.398,3.768-2.209,4.361C531.522,430.26,529.566,429.269,528.972,427.458z"/>
		</g>
	</g>
	<g>
		<g>
			<g>
				
					<line style="fill:none;stroke:#6258CC;stroke-width:2.8932;stroke-linecap:round;stroke-linejoin:round;" x1="386.729" y1="464.239" x2="392.448" y2="463.357"/>
				
					<line style="fill:none;stroke:#6258CC;stroke-width:2.8932;stroke-linecap:round;stroke-linejoin:round;stroke-dasharray:11.7109,11.7109;" x1="404.022" y1="461.573" x2="606.572" y2="430.355"/>
				
					<line style="fill:none;stroke:#6258CC;stroke-width:2.8932;stroke-linecap:round;stroke-linejoin:round;" x1="612.359" y1="429.463" x2="618.078" y2="428.582"/>
			</g>
		</g>
		<g>
			<circle style="fill:#FFFFFF;stroke:#6258CC;stroke-width:6.7509;stroke-miterlimit:10;" cx="616.35" cy="428.134" r="32.65"/>
			<g>
				<path style="fill:#00C0CB;" d="M636.666,438.204c0,0.88-0.714,1.594-1.594,1.594h-36.479c-0.88,0-1.594-0.714-1.594-1.594
					v-22.313c0-0.88,0.714-1.594,1.594-1.594h36.479c0.88,0,1.594,0.714,1.594,1.594V438.204z"/>
				<path style="fill:#FFFFFF;" d="M636.666,415.891c0-0.826-0.631-1.496-1.435-1.577l-18.753,14.405l-18.567-14.262
					c-0.538,0.256-0.912,0.8-0.912,1.435v0.544l19.479,14.962L636.666,415.891z"/>
			</g>
		</g>
	</g>
	<g>
		<g>
			<g>
				
					<line style="fill:none;stroke:#6258CC;stroke-width:2.8932;stroke-linecap:round;stroke-linejoin:round;" x1="650.24" y1="328.374" x2="645.061" y2="330.954"/>
				
					<line style="fill:none;stroke:#6258CC;stroke-width:2.8932;stroke-linecap:round;stroke-linejoin:round;stroke-dasharray:11.717,11.717;" x1="634.573" y1="336.18" x2="388.122" y2="458.976"/>
				
					<line style="fill:none;stroke:#6258CC;stroke-width:2.8932;stroke-linecap:round;stroke-linejoin:round;" x1="382.878" y1="461.589" x2="377.699" y2="464.169"/>
			</g>
		</g>
		<g>
			
				<ellipse transform="matrix(0.7071 -0.7071 0.7071 0.7071 -41.7445 555.9675)" style="fill:#FFFFFF;stroke:#6258CC;stroke-width:6.7509;stroke-miterlimit:10;" cx="650.24" cy="328.374" rx="52.56" ry="52.56"/>
			<g>
				<g>
					
						<path style="fill:#FF6A81;stroke:#FF6A81;stroke-width:0.6684;stroke-linecap:round;stroke-linejoin:round;stroke-miterlimit:10;" d="
						M682.309,297.834h-37.949c-3.327,0-6.024,2.673-6.024,5.97v11.826c0,3.297,2.697,5.97,6.024,5.97h27.588l9.758,8.955v-8.955
						h0.602c3.327,0,6.024-2.673,6.024-5.97v-11.826C688.333,300.507,685.636,297.834,682.309,297.834z"/>
					<g>
						<path style="fill:#FFFFFF;" d="M655.703,309.658c0,1.323-1.082,2.395-2.417,2.395c-1.335,0-2.417-1.072-2.417-2.395
							c0-1.323,1.082-2.395,2.417-2.395C654.621,307.262,655.703,308.335,655.703,309.658z"/>
						<path style="fill:#FFFFFF;" d="M665.752,309.658c0,1.323-1.082,2.395-2.417,2.395c-1.335,0-2.417-1.072-2.417-2.395
							c0-1.323,1.082-2.395,2.417-2.395C664.67,307.262,665.752,308.335,665.752,309.658z"/>
						<path style="fill:#FFFFFF;" d="M675.801,309.658c0,1.323-1.082,2.395-2.417,2.395s-2.417-1.072-2.417-2.395
							c0-1.323,1.082-2.395,2.417-2.395S675.801,308.335,675.801,309.658z"/>
					</g>
				</g>
				<g>
					
						<path style="fill:#FFA865;stroke:#FFA865;stroke-width:0.5258;stroke-linecap:round;stroke-linejoin:round;stroke-miterlimit:10;" d="
						M673.127,341.334h-29.852c-2.617,0-4.739,2.103-4.739,4.696v9.303c0,2.594,2.122,4.696,4.739,4.696h21.702l7.676,7.045v-7.045
						h0.474c2.617,0,4.738-2.103,4.738-4.696v-9.303C677.865,343.437,675.744,341.334,673.127,341.334z"/>
					<g>
						<ellipse style="fill:#FFFFFF;" cx="648.152" cy="349.667" rx="2.417" ry="2.395"/>
						<path style="fill:#FFFFFF;" d="M660.618,349.667c0,1.323-1.082,2.395-2.417,2.395s-2.417-1.073-2.417-2.395
							c0-1.323,1.082-2.395,2.417-2.395S660.618,348.344,660.618,349.667z"/>
						<ellipse style="fill:#FFFFFF;" cx="668.25" cy="349.667" rx="2.417" ry="2.395"/>
					</g>
				</g>
				<g>
					
						<path style="fill:#00C0CB;stroke:#00C0CB;stroke-width:0.6684;stroke-linecap:round;stroke-linejoin:round;stroke-miterlimit:10;" d="
						M615.866,315.068h37.949c3.327,0,6.024,2.673,6.024,5.97v11.826c0,3.297-2.697,5.97-6.024,5.97h-27.588l-9.758,8.955v-8.955
						h-0.602c-3.327,0-6.024-2.673-6.024-5.97v-11.826C609.842,317.741,612.539,315.068,615.866,315.068z"/>
					<g>
						<path style="fill:#FFFFFF;" d="M642.473,326.891c0,1.323,1.082,2.395,2.417,2.395c1.335,0,2.417-1.073,2.417-2.395
							c0-1.323-1.082-2.395-2.417-2.395C643.555,324.496,642.473,325.568,642.473,326.891z"/>
						<path style="fill:#FFFFFF;" d="M632.424,326.891c0,1.323,1.082,2.395,2.417,2.395c1.335,0,2.417-1.073,2.417-2.395
							c0-1.323-1.082-2.395-2.417-2.395C633.506,324.496,632.424,325.568,632.424,326.891z"/>
						<path style="fill:#FFFFFF;" d="M622.374,326.891c0,1.323,1.082,2.395,2.417,2.395s2.417-1.073,2.417-2.395
							c0-1.323-1.082-2.395-2.417-2.395S622.374,325.568,622.374,326.891z"/>
					</g>
				</g>
			</g>
		</g>
	</g>
	<g>
		<g>
			<g>
				
					<line style="fill:none;stroke:#6258CC;stroke-width:2.8932;stroke-linecap:round;stroke-linejoin:round;" x1="376.163" y1="462.557" x2="379.565" y2="457.876"/>
				
					<line style="fill:none;stroke:#6258CC;stroke-width:2.8932;stroke-linecap:round;stroke-linejoin:round;stroke-dasharray:11.3938,11.3938;" x1="386.263" y1="448.659" x2="543.672" y2="232.06"/>
				
					<line style="fill:none;stroke:#6258CC;stroke-width:2.8932;stroke-linecap:round;stroke-linejoin:round;" x1="547.021" y1="227.452" x2="550.423" y2="222.771"/>
			</g>
		</g>
		<g>
			
				<ellipse transform="matrix(0.7071 -0.7071 0.7071 0.7071 3.6926 454.4561)" style="fill:#FFFFFF;stroke:#6258CC;stroke-width:6.7509;stroke-miterlimit:10;" cx="550.423" cy="222.771" rx="53.525" ry="53.525"/>
			<g>
				<rect x="547.437" y="196.594" style="fill:#FFA865;" width="31.788" height="40.265"/>
				<g>
					<g>
						<g>
							
								<line style="fill:none;stroke:#00C0CB;stroke-width:1.9899;stroke-linecap:round;stroke-linejoin:round;stroke-miterlimit:10;" x1="542.671" y1="208.556" x2="542.671" y2="238.224"/>
							
								<line style="fill:none;stroke:#00C0CB;stroke-width:1.9899;stroke-linecap:round;stroke-linejoin:round;stroke-miterlimit:10;" x1="553.426" y1="208.556" x2="553.426" y2="238.224"/>
							
								<line style="fill:none;stroke:#00C0CB;stroke-width:1.9899;stroke-linecap:round;stroke-linejoin:round;stroke-miterlimit:10;" x1="564.181" y1="210.41" x2="564.181" y2="238.224"/>
							
								<line style="fill:none;stroke:#00C0CB;stroke-width:1.9899;stroke-linecap:round;stroke-linejoin:round;stroke-miterlimit:10;" x1="574.936" y1="211.893" x2="574.936" y2="238.224"/>
							
								<line style="fill:none;stroke:#00C0CB;stroke-width:1.9899;stroke-linecap:round;stroke-linejoin:round;stroke-miterlimit:10;" x1="535.811" y1="218.91" x2="583.836" y2="218.91"/>
							
								<line style="fill:none;stroke:#00C0CB;stroke-width:1.9899;stroke-linecap:round;stroke-linejoin:round;stroke-miterlimit:10;" x1="538.407" y1="228.738" x2="583.836" y2="228.738"/>
						</g>
						<g>
							<g>
								
									<polyline style="fill:none;stroke:#00C0CB;stroke-width:2.6532;stroke-linecap:round;stroke-linejoin:round;stroke-miterlimit:10;" points="
									514.99,198.584 526.404,198.584 542.323,237.719 584.111,237.719 584.111,212.514 529.721,205.217 								"/>
								
									<polyline style="fill:none;stroke:#00C0CB;stroke-width:2.6532;stroke-linecap:round;stroke-linejoin:round;stroke-miterlimit:10;" points="
									542.115,238.224 536.354,248.332 578.142,248.332 								"/>
							</g>
							<path style="fill:#FF6A81;" d="M524.685,196.594h-9.694c-1.099,0-1.99,0.891-1.99,1.99c0,1.099,0.891,1.99,1.99,1.99h9.694
								V196.594z"/>
						</g>
					</g>
					<g>
						<g>
							<path style="fill:#221276;" d="M536.923,253.244c0,2.151,1.743,3.894,3.894,3.894s3.894-1.743,3.894-3.894
								c0-2.151-1.743-3.894-3.894-3.894S536.923,251.093,536.923,253.244z"/>
							<circle style="fill:#9EA1D2;" cx="540.817" cy="253.244" r="1.622"/>
						</g>
						<g>
							<path style="fill:#221276;" d="M569.744,253.244c0,2.151,1.743,3.894,3.894,3.894c2.151,0,3.894-1.743,3.894-3.894
								c0-2.151-1.743-3.894-3.894-3.894C571.487,249.35,569.744,251.093,569.744,253.244z"/>
							<circle style="fill:#9EA1D2;" cx="573.638" cy="253.244" r="1.622"/>
						</g>
					</g>
				</g>
			</g>
		</g>
	</g>
	<g>
		<g>
			<g>
				
					<line style="fill:none;stroke:#6258CC;stroke-width:2.8932;stroke-linecap:round;stroke-linejoin:round;" x1="408.001" y1="253.997" x2="407.071" y2="259.708"/>
				
					<line style="fill:none;stroke:#6258CC;stroke-width:2.8932;stroke-linecap:round;stroke-linejoin:round;stroke-dasharray:11.2337,11.2337;" x1="405.267" y1="270.796" x2="377.299" y2="442.658"/>
				
					<line style="fill:none;stroke:#6258CC;stroke-width:2.8932;stroke-linecap:round;stroke-linejoin:round;" x1="376.396" y1="448.202" x2="375.467" y2="453.913"/>
			</g>
		</g>
		<g>
			
				<ellipse transform="matrix(0.4863 -0.8738 0.8738 0.4863 -6.4739 484.6783)" style="fill:#FFFFFF;stroke:#6258CC;stroke-width:6.7509;stroke-miterlimit:10;" cx="409" cy="247.845" rx="39.059" ry="39.059"/>
			<g>
				<g>
					<path style="fill:#FFA865;" d="M426.894,240.444c0-10.002-8.109-18.111-18.111-18.111s-18.111,8.109-18.111,18.111
						c0,7.287,4.305,13.564,10.509,16.438v8.828c0,4.198,3.404,7.602,7.602,7.602c4.199,0,7.602-3.404,7.602-7.602v-8.828
						C422.589,254.008,426.894,247.731,426.894,240.444z"/>
					
						<polyline style="fill:none;stroke:#FFFFFF;stroke-width:0.6708;stroke-linecap:round;stroke-linejoin:round;stroke-miterlimit:10;" points="
						404.982,261.686 404.982,244.246 412.584,244.246 412.584,261.686 					"/>
				</g>
				<g>
					<path style="fill:#221276;" d="M400.555,261.239v7.312c0,4.482,3.634,8.116,8.116,8.116c4.482,0,8.116-3.634,8.116-8.116
						v-7.312H400.555z"/>
					
						<line style="fill:none;stroke:#6258CC;stroke-width:2.0124;stroke-linecap:round;stroke-linejoin:round;stroke-miterlimit:10;" x1="400.286" y1="263.922" x2="417.279" y2="263.922"/>
					
						<line style="fill:none;stroke:#6258CC;stroke-width:2.0124;stroke-linecap:round;stroke-linejoin:round;stroke-miterlimit:10;" x1="400.286" y1="267.723" x2="417.279" y2="267.723"/>
				</g>
			</g>
		</g>
	</g>
	<g>
		<g>
			<g>
				
					<line style="fill:none;stroke:#6258CC;stroke-width:2.8932;stroke-linecap:round;stroke-linejoin:round;" x1="364.763" y1="451.141" x2="361.882" y2="446.122"/>
				
					<line style="fill:none;stroke:#6258CC;stroke-width:2.8932;stroke-linecap:round;stroke-linejoin:round;stroke-dasharray:11.3317,11.3317;" x1="356.242" y1="436.294" x2="234.975" y2="224.988"/>
				
					<line style="fill:none;stroke:#6258CC;stroke-width:2.8932;stroke-linecap:round;stroke-linejoin:round;" x1="232.154" y1="220.074" x2="229.274" y2="215.055"/>
			</g>
		</g>
		<g>
			
				<ellipse transform="matrix(0.9627 -0.2705 0.2705 0.9627 -49.6272 70.0398)" style="fill:#FFFFFF;stroke:#6258CC;stroke-width:6.7509;stroke-miterlimit:10;" cx="229.274" cy="215.055" rx="53.525" ry="53.525"/>
			<g>
				<g>
					<path style="fill:#FF6A81;stroke:#FF6A81;stroke-width:0.9644;stroke-miterlimit:10;" d="M228.69,176.828
						c-21.011,0.314-37.95,17.433-37.95,38.519c0,21.086,16.939,38.206,37.95,38.519V176.828z"/>
					<g>
						<path style="fill:#FFA865;" d="M228.683,254.349c-0.263-0.004-0.475-0.219-0.475-0.482v-77.038
							c0-0.264,0.212-0.479,0.477-0.482c0,0,0.475-0.015,0.59-0.015c21.514,0,39.016,17.502,39.016,39.016
							c0,21.514-17.502,39.016-39.016,39.016C229.157,254.363,228.683,254.349,228.683,254.349z"/>
						<path style="fill:#FFFFFF;" d="M229.274,176.814c21.282,0,38.534,17.252,38.534,38.534c0,21.282-17.252,38.534-38.534,38.534
							c-0.196,0-0.389-0.012-0.584-0.015v-77.038C228.885,176.826,229.078,176.814,229.274,176.814 M229.274,175.849
							c-0.123,0-0.244,0.004-0.366,0.008l-0.232,0.007c-0.527,0.008-0.95,0.437-0.95,0.964v77.038c0,0.527,0.423,0.957,0.95,0.964
							l0.232,0.007c0.121,0.004,0.243,0.008,0.365,0.008c21.779,0,39.498-17.719,39.498-39.498
							C268.772,193.568,251.054,175.849,229.274,175.849L229.274,175.849z"/>
					</g>
					<g>
						<path style="fill:#6258CC;" d="M228.69,215.59c-0.095,0-0.188-0.028-0.27-0.083c-0.133-0.09-0.213-0.24-0.213-0.4v-38.863
							c0-0.264,0.212-0.478,0.475-0.482c0,0,0.474-0.015,0.591-0.015c16.01,0,30.219,9.602,36.2,24.463
							c0.099,0.247-0.02,0.527-0.266,0.627l-36.336,14.717C228.813,215.578,228.751,215.59,228.69,215.59z"/>
						<path style="fill:#FFFFFF;" d="M229.274,176.23c16.199,0,30.054,10.001,35.752,24.161l-36.336,14.717v-38.863
							C228.885,176.242,229.078,176.23,229.274,176.23 M229.274,175.265c-0.123,0-0.244,0.004-0.366,0.008l-0.232,0.007
							c-0.527,0.008-0.95,0.437-0.95,0.964v38.863c0,0.321,0.16,0.62,0.425,0.8c0.162,0.109,0.35,0.165,0.539,0.165
							c0.122,0,0.245-0.023,0.362-0.07l36.336-14.717c0.493-0.2,0.731-0.761,0.533-1.254
							C259.867,184.986,245.482,175.265,229.274,175.265L229.274,175.265z"/>
					</g>
					<g>
						<path style="fill:#00C0CB;" d="M228.69,215.59c-0.068,0-0.137-0.015-0.202-0.044c-0.171-0.079-0.281-0.249-0.281-0.438
							v-38.279c0-0.264,0.212-0.478,0.475-0.482c0,0,0.474-0.015,0.591-0.015c11.184,0,21.85,4.82,29.263,13.225
							c0.085,0.097,0.128,0.224,0.119,0.353c-0.009,0.129-0.069,0.248-0.167,0.333l-29.485,25.233
							C228.915,215.55,228.803,215.59,228.69,215.59z"/>
						<path style="fill:#FFFFFF;" d="M229.274,176.814c11.514,0,21.84,5.056,28.902,13.061l-29.485,25.233v-38.279
							C228.885,176.825,229.078,176.814,229.274,176.814 M229.274,175.849c-0.123,0-0.244,0.004-0.366,0.008l-0.232,0.007
							c-0.527,0.008-0.95,0.437-0.95,0.964v38.279c0,0.376,0.219,0.719,0.561,0.876c0.129,0.059,0.266,0.088,0.403,0.088
							c0.226,0,0.449-0.079,0.627-0.232l29.485-25.233c0.196-0.168,0.317-0.408,0.335-0.665s-0.068-0.512-0.239-0.706
							C251.395,180.729,240.597,175.849,229.274,175.849L229.274,175.849z"/>
					</g>
				</g>
				<g>
					<g>
						<g>
							<g>
								
									<line style="fill:none;stroke:#221276;stroke-width:0.9644;stroke-miterlimit:10;" x1="164.176" y1="184.194" x2="209.021" y2="212.162"/>
								<path style="fill:#FFFFFF;stroke:#221276;stroke-width:0.9644;stroke-miterlimit:10;" d="M208.057,213.85
									c0,1.997,1.619,3.617,3.617,3.617c1.997,0,3.617-1.619,3.617-3.617c0-1.997-1.619-3.617-3.617-3.617
									C209.676,210.233,208.057,211.853,208.057,213.85z"/>
							</g>
							<path style="fill:#221276;" d="M169.782,185.641c0,1.598-1.295,2.893-2.893,2.893h-53.043c-1.598,0-2.893-1.295-2.893-2.893
								v-18.324c0-1.598,1.295-2.893,2.893-2.893h53.043c1.598,0,2.893,1.295,2.893,2.893V185.641z"/>
						</g>
						<g>
							
								<line style="fill:none;stroke:#FFFFFF;stroke-width:0.9644;stroke-linecap:round;stroke-linejoin:round;stroke-miterlimit:10;" x1="116.98" y1="170.21" x2="163.754" y2="170.21"/>
							
								<line style="fill:none;stroke:#FFFFFF;stroke-width:0.9644;stroke-linecap:round;stroke-linejoin:round;stroke-miterlimit:10;" x1="116.98" y1="176.238" x2="163.754" y2="176.238"/>
							
								<line style="fill:none;stroke:#FFFFFF;stroke-width:0.9644;stroke-linecap:round;stroke-linejoin:round;stroke-miterlimit:10;" x1="124.696" y1="182.265" x2="156.039" y2="182.265"/>
						</g>
					</g>
					<g>
						<g>
							<g>
								
									<line style="fill:none;stroke:#221276;stroke-width:0.9644;stroke-miterlimit:10;" x1="300.217" y1="224.425" x2="247.366" y2="224.256"/>
								<path style="fill:#FFFFFF;stroke:#221276;stroke-width:0.9644;stroke-miterlimit:10;" d="M247.297,222.313
									c-1.052-1.698-3.281-2.222-4.979-1.171c-1.698,1.052-2.222,3.281-1.171,4.979c1.051,1.698,3.281,2.222,4.979,1.171
									C247.825,226.241,248.349,224.012,247.297,222.313z"/>
							</g>
							<path style="fill:#221276;" d="M350.428,233.379c0,1.598-1.295,2.893-2.893,2.893h-53.043c-1.598,0-2.893-1.295-2.893-2.893
								v-18.324c0-1.598,1.295-2.893,2.893-2.893h53.043c1.598,0,2.893,1.295,2.893,2.893V233.379z"/>
						</g>
						<g>
							
								<line style="fill:none;stroke:#FFFFFF;stroke-width:0.9644;stroke-linecap:round;stroke-linejoin:round;stroke-miterlimit:10;" x1="297.627" y1="217.949" x2="344.401" y2="217.949"/>
							
								<line style="fill:none;stroke:#FFFFFF;stroke-width:0.9644;stroke-linecap:round;stroke-linejoin:round;stroke-miterlimit:10;" x1="297.627" y1="223.976" x2="344.401" y2="223.976"/>
							
								<line style="fill:none;stroke:#FFFFFF;stroke-width:0.9644;stroke-linecap:round;stroke-linejoin:round;stroke-miterlimit:10;" x1="305.342" y1="230.004" x2="336.686" y2="230.004"/>
						</g>
					</g>
					<g>
						<g>
							<g>
								
									<line style="fill:none;stroke:#221276;stroke-width:0.9644;stroke-miterlimit:10;" x1="281.446" y1="158.378" x2="241.323" y2="192.778"/>
								<path style="fill:#FFFFFF;stroke:#221276;stroke-width:0.9644;stroke-miterlimit:10;" d="M240.002,191.352
									c-1.906-0.599-3.936,0.461-4.534,2.366c-0.599,1.906,0.461,3.936,2.366,4.534c1.906,0.599,3.936-0.461,4.534-2.366
									C242.967,193.981,241.908,191.951,240.002,191.352z"/>
							</g>
							<path style="fill:#221276;" d="M311.249,164.424c0,1.598-1.295,2.893-2.893,2.893h-33.634c-1.598,0-2.893-1.295-2.893-2.893
								V146.1c0-1.598,1.295-2.893,2.893-2.893h33.634c1.598,0,2.893,1.295,2.893,2.893V164.424z"/>
						</g>
						<g>
							
								<line style="fill:none;stroke:#FFFFFF;stroke-width:0.9644;stroke-linecap:round;stroke-linejoin:round;stroke-miterlimit:10;" x1="277.856" y1="148.993" x2="305.222" y2="148.993"/>
							
								<line style="fill:none;stroke:#FFFFFF;stroke-width:0.9644;stroke-linecap:round;stroke-linejoin:round;stroke-miterlimit:10;" x1="277.856" y1="155.021" x2="305.222" y2="155.021"/>
							
								<line style="fill:none;stroke:#FFFFFF;stroke-width:0.9644;stroke-linecap:round;stroke-linejoin:round;stroke-miterlimit:10;" x1="285.572" y1="161.048" x2="297.506" y2="161.048"/>
						</g>
					</g>
				</g>
			</g>
		</g>
	</g>
	<g>
		<g>
			<g>
				
					<line style="fill:none;stroke:#6258CC;stroke-width:2.8932;stroke-linecap:round;stroke-linejoin:round;" x1="107.758" y1="267.134" x2="112.388" y2="270.604"/>
				
					<line style="fill:none;stroke:#6258CC;stroke-width:2.8932;stroke-linecap:round;stroke-linejoin:round;stroke-dasharray:11.309,11.309;" x1="121.438" y1="277.387" x2="352.192" y2="450.348"/>
				
					<line style="fill:none;stroke:#6258CC;stroke-width:2.8932;stroke-linecap:round;stroke-linejoin:round;" x1="356.717" y1="453.74" x2="361.347" y2="457.21"/>
			</g>
		</g>
		<g>
			<g>
				<circle style="fill:#FFFFFF;" cx="107.758" cy="267.134" r="39.059"/>
				<path style="fill:#6258CC;" d="M107.758,309.567c-23.398,0-42.434-19.035-42.434-42.434S84.36,224.7,107.758,224.7
					s42.434,19.036,42.434,42.434S131.157,309.567,107.758,309.567z M107.758,231.451c-19.676,0-35.683,16.007-35.683,35.683
					s16.007,35.684,35.683,35.684s35.683-16.008,35.683-35.684S127.434,231.451,107.758,231.451z"/>
			</g>
			<g>
				<path style="fill:#FF6A81;stroke:#FF6A81;stroke-width:0.6243;stroke-miterlimit:10;" d="M127.67,249.292H89.366
					c-3.358,0-6.08,2.722-6.08,6.08v20.672c0,3.358,2.722,6.08,6.08,6.08h27.846l9.85,9.12v-9.12h0.608
					c3.358,0,6.08-2.722,6.08-6.08v-20.672C133.75,252.014,131.028,249.292,127.67,249.292z"/>
				
					<polygon style="fill:#FFFFFF;stroke:#FFFFFF;stroke-width:1.7188;stroke-linecap:round;stroke-linejoin:round;stroke-miterlimit:10;" points="
					100.64,255.7 116.396,264.796 100.64,273.892 				"/>
			</g>
		</g>
	</g>
	<g>
		<g>
			<g>
				
					<line style="fill:none;stroke:#6258CC;stroke-width:2.8932;stroke-miterlimit:10;" x1="141.513" y1="395.401" x2="147.073" y2="397.004"/>
				
					<line style="fill:none;stroke:#6258CC;stroke-width:2.8932;stroke-miterlimit:10;stroke-dasharray:11.1349,11.1349;" x1="157.772" y1="400.089" x2="366.402" y2="460.246"/>
				
					<line style="fill:none;stroke:#6258CC;stroke-width:2.8932;stroke-miterlimit:10;" x1="371.751" y1="461.788" x2="377.311" y2="463.392"/>
			</g>
		</g>
		<g>
			
				<ellipse transform="matrix(0.7071 -0.7071 0.7071 0.7071 -236.8953 216.9561)" style="fill:#FFFFFF;" cx="143.442" cy="394.436" rx="53.525" ry="53.525"/>
			<g>
				<defs>
					
						<ellipse id="SVGID_1_" transform="matrix(0.7071 -0.7071 0.7071 0.7071 -238.1422 215.8747)" cx="141.513" cy="395.4" rx="53.525" ry="53.525"/>
				</defs>
				<clipPath id="SVGID_00000093160020236300159530000008907004103127646348_">
					<use xlink:href="#SVGID_1_"  style="overflow:visible;"/>
				</clipPath>
				<g style="clip-path:url(#SVGID_00000093160020236300159530000008907004103127646348_);">
					<g>
						<g>
							<path style="fill:#EE7493;" d="M157.421,409.182h-7.437v-18.613h-16.923v18.613h-7.437c-8.566,0-15.511,6.944-15.511,15.511
								v9.823h62.819v-9.823C172.932,416.126,165.988,409.182,157.421,409.182z"/>
							<path style="fill:#F25A78;" d="M133.061,406.266c2.618,1.043,5.471,1.623,8.461,1.623c2.99,0,5.843-0.58,8.461-1.623v-15.698
								h-16.923V406.266z"/>
						</g>
						<g>
							<path style="fill:#00C0CB;stroke:#00C0CB;stroke-width:0.9644;stroke-miterlimit:10;" d="M157.421,409.182h-3.503
								c0.002,0.087,0.013,0.171,0.013,0.258c0,7.139-5.787,12.926-12.926,12.926c-7.139,0-12.926-5.787-12.926-12.926
								c0-0.087,0.011-0.172,0.013-0.258h-2.469c-8.566,0-15.511,6.944-15.511,15.511v35.163h62.819v-35.163
								C172.932,416.126,165.988,409.182,157.421,409.182z"/>
						</g>
					</g>
					<g>
						<circle style="fill:#EE7493;" cx="141.523" cy="380.099" r="22.878"/>
						<g>
							<path style="fill:none;stroke:#221276;stroke-width:3.1022;stroke-miterlimit:10;" d="M167.503,380.099
								c0-14.349-11.632-25.981-25.981-25.981c-14.349,0-25.981,11.632-25.981,25.981"/>
							<path style="fill:#221276;" d="M106.365,380.099c0,6.483,4.696,11.74,10.488,11.74c5.793,0,4.574-5.256,4.574-11.74
								c0-6.484,1.219-11.739-4.574-11.739C111.061,368.359,106.365,373.615,106.365,380.099z"/>
							<path style="fill:#221276;" d="M177.373,380.099c0,6.483-4.696,11.74-10.488,11.74c-5.792,0-4.574-5.256-4.574-11.74
								c0-6.484-1.219-11.739,4.574-11.739C172.677,368.359,177.373,373.615,177.373,380.099z"/>
						</g>
					</g>
				</g>
			</g>
			
				<ellipse transform="matrix(0.7071 -0.7071 0.7071 0.7071 -238.1422 215.8747)" style="fill:none;stroke:#6258CC;stroke-width:6.7509;stroke-miterlimit:10;" cx="141.513" cy="395.4" rx="53.525" ry="53.525"/>
		</g>
	</g>
	<g>
		<g>
			<path style="fill:#FFF2E9;" d="M475.28,459.688c0,2.874-2.329,5.203-5.203,5.203H280.689c-2.874,0-5.203-2.329-5.203-5.203
				V347.565c0-2.874,2.33-5.203,5.203-5.203h189.388c2.874,0,5.203,2.33,5.203,5.203V459.688z"/>
			<path style="fill:#0B0542;" d="M470.076,467.895H280.689c-4.525,0-8.207-3.681-8.207-8.206V347.565
				c0-4.525,3.681-8.207,8.207-8.207h189.388c4.525,0,8.206,3.682,8.206,8.207v112.124
				C478.283,464.213,474.601,467.895,470.076,467.895z M284.173,347.509c-1.168,0-2.119,0.951-2.119,2.119v107.998
				c0,1.168,0.951,2.119,2.119,2.119h182.419c1.168,0,2.119-0.951,2.119-2.119V349.628c0-1.168-0.951-2.119-2.119-2.119H284.173z"/>
		</g>
		<g>
			<path style="fill:#362E82;" d="M231.623,457.436c-0.27,0.828-0.421,1.71-0.421,2.627v5.466c0,4.678,3.793,8.471,8.471,8.471
				h271.418c4.679,0,8.471-3.793,8.471-8.471v-5.466c0-0.918-0.151-1.799-0.421-2.627H231.623z"/>
			<path style="fill:#0B0542;" d="M341.863,457.436v5.634c0,3.085,2.501,5.587,5.587,5.587h55.866c3.085,0,5.587-2.501,5.587-5.587
				v-5.634H341.863z"/>
		</g>
	</g>
	<g>
		<path style="fill:#00C0CB;" d="M476.194,66.79c0,13.168-10.675,23.842-23.842,23.842H298.414
			c-13.168,0-23.842-10.675-23.842-23.842v-9.534c0-13.168,10.674-23.842,23.842-23.842h153.938
			c13.168,0,23.842,10.674,23.842,23.842V66.79z"/>
	</g>
</g>
<g id="TEXTS">
	<rect x="267.861" y="385.21" style="fill:none;" width="215.044" height="47.736"/>
	
		<text transform="matrix(1 0 0 1 310.4971 425.4844)" style="fill:#FFA865; font-family:'Bungee-Regular'; font-size:55.9359px; letter-spacing:2;">crm</text>
	<rect x="123.199" y="104.602" style="fill:none;" width="504.367" height="27.805"/>
	<text transform="matrix(1 0 0 1 150.9043 119.1834)" style="fill:#009FAF; font-family:'Bungee-Regular'; font-size:20.2526px;">Customer  Relationship  Management</text>
	<rect x="267.861" y="44.83" style="fill:none;" width="215.044" height="47.736"/>
	
		<text transform="matrix(1 0 0 1 322.8028 77.4653)" style="fill:#FFFFFF; font-family:'Bungee-Regular'; font-size:45.3274px; letter-spacing:2;">crm</text>
</g>
</svg>
