<?xml version="1.0" encoding="utf-8"?>
<!-- Generator: Adobe Illustrator 27.5.0, SVG Export Plug-In . SVG Version: 6.00 Build 0)  -->
<svg version="1.1" xmlns="http://www.w3.org/2000/svg" xmlns:xlink="http://www.w3.org/1999/xlink" x="0px" y="0px"
	 viewBox="0 0 500 500" style="enable-background:new 0 0 500 500;" xml:space="preserve">
<g id="BACKGROUND">
	<rect style="fill:#FFFFFF;" width="500" height="500"/>
</g>
<g id="OBJECTS">
	<path style="opacity:0.8;fill:#EBF3FF;" d="M453.019,338.391h-16.304c3.018-4.414,4.785-9.75,4.785-15.5
		c0-9.363-4.684-17.628-11.831-22.595c8.811-4.583,14.831-13.788,14.831-24.405c0-11.795-7.429-21.852-17.86-25.759
		c4.86-4.96,7.86-11.749,7.86-19.241c0-8.529-3.884-16.151-9.979-21.195c10.495-3.874,17.979-13.965,17.979-25.805
		c0-8.708-4.055-16.462-10.371-21.5H231c-1.381,0-2.5-1.119-2.5-2.5c0-1.381,1.119-2.5,2.5-2.5h205.154
		c3.908-3.808,6.346-9.111,6.346-15c0-11.599-9.402-21-21-21h-50.955c1.894-3.934,2.955-8.343,2.955-13c0-16.568-13.432-30-30-30
		h-176c-16.568,0-30,13.432-30,30c0,2.771,0.384,5.452,1.087,8H308c1.381,0,2.5,1.119,2.5,2.5c0,1.381-1.119,2.5-2.5,2.5H140.456
		H99.5c-11.598,0-21,9.401-21,21c0,5.386,2.045,10.282,5.379,14H79c-15.188,0-27.5,12.312-27.5,27.5
		c0,8.529,3.883,16.15,9.978,21.194C50.983,208.959,43.5,219.05,43.5,230.891c0,11.795,7.428,21.853,17.86,25.759
		c-4.86,4.96-7.86,11.749-7.86,19.241c0,9.363,4.683,17.628,11.831,22.595c-8.81,4.583-14.831,13.788-14.831,24.405
		c0,3.342,0.613,6.537,1.706,9.5H242c1.381,0,2.5,1.119,2.5,2.5c0,1.381-1.119,2.5-2.5,2.5H54.654c0.208,0.335,0.409,0.675,0.631,1
		H46.98c-14.625,0-26.48,11.855-26.48,26.482c0,14.624,11.856,26.479,26.48,26.479h14.368c-6.03,5.225-9.849,12.934-9.849,21.539
		c0,15.74,12.76,28.5,28.5,28.5h348.218c15.74,0,28.5-12.76,28.5-28.5c0-6.602-2.254-12.67-6.022-17.5H246
		c-1.381,0-2.5-1.119-2.5-2.5c0-1.381,1.119-2.5,2.5-2.5h213c0.243,0,0.474,0.046,0.696,0.11
		c11.393-2.96,19.804-13.311,19.804-25.629C479.5,350.246,467.645,338.391,453.019,338.391z"/>
	<g>
		<rect x="43.5" y="272.442" style="fill:#B8D0FF;" width="71.5" height="113.563"/>
		<path style="fill:#D2E3FF;" d="M109.36,303.869c0,4.541-3.68,8.22-8.217,8.22H57.352c-4.532,0-8.208-3.679-8.208-8.22l0,0
			c0-4.53,3.676-8.207,8.208-8.207h43.792C105.68,295.662,109.36,299.339,109.36,303.869L109.36,303.869z"/>
		<path style="fill:#D2E3FF;" d="M109.36,322.552c0,4.531-3.68,8.21-8.217,8.21H57.352c-4.532,0-8.208-3.679-8.208-8.21l0,0
			c0-4.536,3.676-8.211,8.208-8.211h43.792C105.68,314.341,109.36,318.016,109.36,322.552L109.36,322.552z"/>
		<path style="fill:#D2E3FF;" d="M109.36,341.225c0,4.532-3.68,8.215-8.217,8.215H57.352c-4.532,0-8.208-3.683-8.208-8.215l0,0
			c0-4.528,3.676-8.207,8.208-8.207h43.792C105.68,333.018,109.36,336.696,109.36,341.225L109.36,341.225z"/>
		<path style="fill:#D2E3FF;" d="M109.36,359.903c0,4.536-3.68,8.21-8.217,8.21H57.352c-4.532,0-8.208-3.674-8.208-8.21l0,0
			c0-4.538,3.676-8.211,8.208-8.211h43.792C105.68,351.692,109.36,355.365,109.36,359.903L109.36,359.903z"/>
		<rect x="54.136" y="298.56" style="fill:#B8D0FF;" width="50.229" height="10.468"/>
		<rect x="54.136" y="317.315" style="fill:#B8D0FF;" width="50.229" height="10.471"/>
		<rect x="54.136" y="335.994" style="fill:#B8D0FF;" width="50.229" height="10.468"/>
		<rect x="54.136" y="354.671" style="fill:#B8D0FF;" width="50.229" height="10.463"/>
		<rect x="65.93" y="301.177" style="fill:#4E73A8;" width="26.646" height="2.581"/>
		<path style="fill:#D2E3FF;" d="M109.362,284.832c0,4.539-3.682,8.21-8.214,8.21H57.354c-4.536,0-8.214-3.671-8.214-8.21l0,0
			c0-4.535,3.679-8.213,8.214-8.213h43.794C105.68,276.619,109.362,280.297,109.362,284.832L109.362,284.832z"/>
		<rect x="54.139" y="279.516" style="fill:#B8D0FF;" width="50.225" height="10.468"/>
		<rect x="65.926" y="282.134" style="fill:#4E73A8;" width="26.65" height="2.58"/>
		<rect x="65.93" y="319.857" style="fill:#4E73A8;" width="26.646" height="2.572"/>
		<rect x="65.93" y="338.533" style="fill:#4E73A8;" width="26.646" height="2.572"/>
		<rect x="65.93" y="357.209" style="fill:#4E73A8;" width="26.646" height="2.573"/>
		<rect x="43.5" y="378.317" style="fill:#D2E3FF;" width="71.5" height="10.022"/>
		
			<line style="fill:none;stroke:#26395E;stroke-width:0.5;stroke-linecap:round;stroke-miterlimit:10;" x1="55.776" y1="286.5" x2="101.513" y2="286.5"/>
		
			<line style="fill:none;stroke:#26395E;stroke-width:0.5;stroke-linecap:round;stroke-miterlimit:10;" x1="55.521" y1="306.065" x2="102.529" y2="306.065"/>
		
			<line style="fill:none;stroke:#26395E;stroke-width:0.5;stroke-linecap:round;stroke-miterlimit:10;" x1="56.03" y1="325.122" x2="104.054" y2="325.122"/>
		
			<line style="fill:none;stroke:#26395E;stroke-width:0.5;stroke-linecap:round;stroke-miterlimit:10;" x1="56.539" y1="344.179" x2="102.529" y2="344.179"/>
		
			<line style="fill:none;stroke:#26395E;stroke-width:0.5;stroke-linecap:round;stroke-miterlimit:10;" x1="56.284" y1="362.22" x2="102.529" y2="362.22"/>
	</g>
	<g>
		<path style="fill:#2D4C7F;" d="M408.369,399.21V225.186c0-9.314-7.559-16.865-16.875-16.865H107.642
			c-9.321,0-16.875,7.551-16.875,16.865V399.21H408.369z"/>
		<g>
			<path style="fill:#B8D0FF;" d="M395.466,398.605V235.032c0-8.563-6.939-15.503-15.5-15.503H119.166
				c-8.561,0-15.503,6.939-15.503,15.503v163.573H395.466z"/>
			<path style="opacity:0.5;fill:#B8D0FF;" d="M379.966,219.529H119.166c-3.164,0-6.107,0.953-8.561,2.583l284.86,175.292V235.032
				C395.466,226.469,388.527,219.529,379.966,219.529z"/>
		</g>
		<g>
			<rect x="127.213" y="245.391" style="fill:#FFFFFF;" width="235.292" height="152.67"/>
			<rect x="127.213" y="250.771" style="opacity:0.5;fill:#B8D0FF;" width="66.189" height="147.289"/>
			<rect x="127.329" y="245.391" style="fill:#5D81EC;" width="235.292" height="17.961"/>
			<g>
				<rect x="140.025" y="252.957" style="fill:#FFFFFF;" width="10.179" height="2.395"/>
				<rect x="156.641" y="252.957" style="fill:#FFFFFF;" width="10.178" height="2.395"/>
				<rect x="173.255" y="252.957" style="fill:#FFFFFF;" width="10.179" height="2.395"/>
			</g>
			<g>
				<path style="fill:#FFBF00;" d="M198.628,323.714c0-14.084,10.813-24.163,25.365-24.163c8.076,0,14.817,2.938,19.223,8.277
					l-6.941,6.408c-3.138-3.604-7.076-5.475-11.748-5.475c-8.744,0-14.952,6.141-14.952,14.952c0,8.811,6.208,14.952,14.952,14.952
					c4.672,0,8.61-1.869,11.748-5.54l6.941,6.407c-4.405,5.407-11.146,8.345-19.29,8.345
					C209.441,347.878,198.628,337.798,198.628,323.714z"/>
				<path style="fill:#FFBF00;" d="M280.255,347.076l-9.01-13.016h-0.535h-9.411v13.016h-10.814v-46.724h20.226
					c12.483,0,20.293,6.475,20.293,16.953c0,7.009-3.538,12.149-9.612,14.752l10.479,15.019H280.255z M270.109,309.163h-8.811
					v16.286h8.811c6.607,0,9.945-3.07,9.945-8.143C280.055,312.166,276.717,309.163,270.109,309.163z"/>
				<path style="fill:#FFBF00;" d="M342.059,347.076l-0.065-28.034l-13.751,23.095h-4.872l-13.684-22.494v27.434H299.54v-46.724
					h8.944l17.488,29.035l17.223-29.035h8.876l0.135,46.724H342.059z"/>
			</g>
			<rect x="197.537" y="266.391" style="fill:#B8D0FF;" width="48.344" height="17.5"/>
			<rect x="252.365" y="266.391" style="fill:#B8D0FF;" width="48.344" height="17.5"/>
			<rect x="307.193" y="266.391" style="fill:#B8D0FF;" width="48.344" height="17.5"/>
			<line style="fill:none;stroke:#B8D0FF;stroke-miterlimit:10;" x1="197.537" y1="294.891" x2="353.037" y2="294.891"/>
			<line style="fill:none;stroke:#B8D0FF;stroke-miterlimit:10;" x1="199.037" y1="354.391" x2="354.537" y2="354.391"/>
			<line style="fill:none;stroke:#B8D0FF;stroke-miterlimit:10;" x1="200.037" y1="364.891" x2="355.537" y2="364.891"/>
			<line style="fill:none;stroke:#B8D0FF;stroke-miterlimit:10;" x1="199.537" y1="376.891" x2="355.037" y2="376.891"/>
			<g>
				<polygon style="fill:#B8D0FF;" points="166.767,385.057 180.704,320.725 137.76,320.725 150.342,385.057 				"/>
				<polygon style="fill:#B8D0FF;" points="177.704,335.823 140.704,335.823 145.371,359.235 172.371,359.235 				"/>
			</g>
		</g>
		<g>
			<path style="fill:#4E73A8;" d="M62.164,396.006v14.298c0,9.019,7.31,16.327,16.329,16.327H420.64
				c9.023,0,16.332-7.309,16.332-16.327v-14.298H62.164z"/>
			<path style="fill:#2D4C7F;" d="M431.783,396.006v3.564c0,8.728-7.098,15.803-15.85,15.803H83.931
				c-8.75,0-15.846-7.074-15.846-15.803v-3.564h-6.056v14.298c0,9.019,7.331,16.327,16.374,16.327H421.46
				c9.048,0,16.376-7.309,16.376-16.327v-14.298H431.783z"/>
		</g>
	</g>
	<g>
		<g>
			<rect x="365.683" y="164.554" style="fill:#B8D0FF;" width="5.645" height="16.643"/>
			<rect x="379.678" y="153.844" style="fill:#B8D0FF;" width="5.654" height="27.353"/>
			<rect x="393.681" y="149.789" style="fill:#B8D0FF;" width="5.646" height="31.407"/>
			<rect x="407.674" y="153.584" style="fill:#B8D0FF;" width="5.652" height="27.612"/>
			<rect x="421.672" y="151.176" style="fill:#B8D0FF;" width="5.648" height="30.021"/>
		</g>
		<rect x="435.669" y="141.602" style="fill:#B8D0FF;" width="5.651" height="39.595"/>
		<rect x="373.936" y="158.94" style="fill:#B8D0FF;" width="2.909" height="22.256"/>
		<rect x="388.258" y="158.94" style="fill:#B8D0FF;" width="2.913" height="22.256"/>
		<rect x="402.346" y="158.94" style="fill:#B8D0FF;" width="2.912" height="22.256"/>
		<rect x="415.699" y="158.94" style="fill:#B8D0FF;" width="2.913" height="22.256"/>
		<rect x="430.755" y="158.94" style="fill:#B8D0FF;" width="2.916" height="22.256"/>
		<rect x="362.825" y="180.453" style="fill:#B8D0FF;" width="82.564" height="1.66"/>
	</g>
	<path style="fill:#B8D0FF;" d="M363.971,134.64v-4.941c0-1.147-0.934-2.074-2.07-2.074h-1.543c-0.973,0-1.856-0.619-2.172-1.545
		c-0.243-0.697-0.529-1.389-0.85-2.042c-0.434-0.887-0.246-1.94,0.443-2.635l1.093-1.086c0.809-0.806,0.809-2.121,0-2.937
		l-3.503-3.49c-0.806-0.808-2.121-0.808-2.932,0l-1.09,1.084c-0.689,0.69-1.747,0.872-2.625,0.441
		c-0.663-0.319-1.347-0.602-2.049-0.847c-0.928-0.322-1.545-1.191-1.545-2.172v-1.537c0-1.144-0.924-2.074-2.072-2.074h-4.939
		c-1.148,0-2.075,0.931-2.075,2.074v1.537c0,0.98-0.62,1.85-1.546,2.172c-0.698,0.245-1.384,0.527-2.047,0.847
		c-0.88,0.431-1.935,0.249-2.623-0.441l-1.091-1.084c-0.812-0.808-2.125-0.808-2.933,0l-3.499,3.49
		c-0.813,0.815-0.813,2.131,0,2.937l1.082,1.086c0.702,0.694,0.878,1.748,0.45,2.635c-0.328,0.653-0.606,1.345-0.848,2.042
		c-0.319,0.926-1.196,1.545-2.174,1.545h-1.536c-1.146,0-2.077,0.927-2.077,2.074v4.941c0,1.146,0.932,2.075,2.077,2.075h1.536
		c0.978,0,1.854,0.619,2.174,1.541c0.241,0.701,0.52,1.381,0.848,2.049c0.428,0.876,0.252,1.938-0.45,2.629l-1.082,1.084
		c-0.813,0.817-0.813,2.128,0,2.938l3.499,3.498c0.808,0.806,2.121,0.806,2.933,0l1.091-1.096c0.688-0.685,1.743-0.867,2.623-0.438
		c0.663,0.319,1.349,0.604,2.047,0.851c0.926,0.315,1.546,1.195,1.546,2.168v1.539c0,1.148,0.927,2.068,2.075,2.068h4.939
		c1.148,0,2.072-0.921,2.072-2.068v-1.539c0-0.973,0.617-1.854,1.545-2.168c0.702-0.246,1.386-0.531,2.049-0.851
		c0.878-0.43,1.936-0.247,2.625,0.438l1.09,1.096c0.81,0.806,2.126,0.806,2.932,0l3.503-3.498c0.809-0.81,0.809-2.12,0-2.938
		l-1.093-1.084c-0.69-0.69-0.877-1.753-0.443-2.629c0.32-0.668,0.607-1.348,0.85-2.049c0.316-0.922,1.199-1.541,2.172-1.541h1.543
		C363.037,136.715,363.971,135.786,363.971,134.64z M341.5,143.391c-6.936,0.554-12.686-5.198-12.137-12.133
		c0.434-5.461,4.847-9.883,10.316-10.313c6.932-0.542,12.673,5.202,12.125,12.136C351.381,138.537,346.956,142.964,341.5,143.391z"
		/>
	<g>
		<path style="fill:#B8D0FF;" d="M150.404,123.799V99.881c-12.099,0-21.908,9.813-21.908,21.913c0,12.1,9.81,21.898,21.908,21.898
			c11.415,0,20.79-8.732,21.811-19.893H150.404z"/>
		<path style="fill:#B8D0FF;" d="M179.491,120c0-0.037,0.005-0.086,0.005-0.127c0-12.972-10.512-23.48-23.481-23.48
			c-0.505,0-1,0.016-1.49,0.048V120H179.491z"/>
	</g>
	<g>
		<g>
			<path style="fill:#FFBF00;" d="M387.966,245.482c-9.606,6.363-21.285,9.706-34.354,11.019
				c3.918,28.358,16.357,46.676,34.354,58.439c18.002-11.764,30.438-30.081,34.357-58.439
				C409.257,255.189,397.575,251.846,387.966,245.482z"/>
			<path style="fill:#5D81EC;" d="M387.966,251.47c-7.951,5.267-17.615,8.032-28.431,9.119
				c3.241,23.468,13.537,38.627,28.431,48.364c14.897-9.737,25.191-24.896,28.434-48.364
				C405.586,259.502,395.92,256.736,387.966,251.47z"/>
			<path style="opacity:0.5;fill:#77A3E8;" d="M387.966,251.472c-7.951,5.265-17.615,8.03-28.431,9.117
				c3.241,23.467,13.537,38.627,28.431,48.364V251.472z"/>
		</g>
		<path style="fill:#FFFFFF;" d="M373.065,274.531l4.503-4.587l10.066,10.134l14.023-13.689l4.941,4.172
			c0,0-18.734,19.411-18.852,19.148C387.629,289.444,373.065,274.531,373.065,274.531z"/>
		<path style="opacity:0.5;fill:#BED1FA;" d="M387.966,279.753l-0.331,0.325l-10.066-10.134l-4.503,4.587
			c0,0,14.563,14.913,14.682,15.178c0.007,0.016,0.086-0.042,0.219-0.164V279.753z"/>
	</g>
	<g>
		<g>
			<path style="fill:#FFBF00;" d="M275.425,202.51c-2.474-6.258-8.569-10.69-15.708-10.69h-17.633
				c-7.137,0-13.236,4.433-15.707,10.69H275.425z"/>
			<g>
				<rect x="223.234" y="202.51" style="fill:#FFA607;" width="55.332" height="6.305"/>
				<g>
					<path style="fill:#FFC530;" d="M215.055,88.807c-4.488,0.017-8.98,0.03-13.473,0.045c-1.658,0.004-5.183-0.688-6.789,0.575
						c-3.846,3.018-1.922,13.131-1.604,17.143c0.947,11.971,13.074,26.234,24.414,30.937c3.145,1.308,3.576-5.409,0.466-6.698
						c-4.258-1.767-9.708-6.008-12.679-9.332c-7.218-9.251-8.379-25.24-5.305-27.328c2.306-1.564,11.922-0.033,14.969-0.043
						C218.466,94.099,218.473,88.795,215.055,88.807L215.055,88.807z"/>
				</g>
				<g>
					<path style="fill:#FFA607;" d="M287.348,88.807c4.492,0.017,8.986,0.03,13.48,0.045c1.654,0.004,5.179-0.688,6.787,0.575
						c3.842,3.018,1.923,13.131,1.602,17.143c-0.947,11.971-13.071,26.234-24.414,30.937c-3.143,1.308-3.572-5.409-0.464-6.698
						c4.257-1.767,9.706-6.008,12.68-9.332c7.219-9.251,8.378-25.24,5.303-27.328c-2.309-1.564-11.923-0.033-14.974-0.043
						C283.942,94.099,283.932,88.795,287.348,88.807L287.348,88.807z"/>
				</g>
				<path style="fill:#FFBF00;" d="M251.34,74.61h-1.161h-34.665v62.096c0,14.313,11.603,25.917,25.914,25.917h8.751h1.161h8.754
					c14.313,0,25.917-11.604,25.917-25.917V74.61H251.34z"/>
				<rect x="244.936" y="162.623" style="fill:#FFBF00;" width="11.932" height="33.27"/>
				<path style="fill:#FFA607;" d="M259.378,148.129c-12.703-3.535-17.918-17.394-19.544-29.213
					c-2.016-14.661,0.359-29.727-2.14-44.306h-22.18v62.096c0,14.313,11.603,25.917,25.914,25.917h18.666
					c13.724,0,24.949-10.669,25.852-24.164C278.838,144.535,269.06,150.824,259.378,148.129z"/>
				<polygon style="fill:#FFFFFF;" points="250.902,102.076 255.363,111.119 265.343,112.568 258.124,119.606 259.825,129.543 
					250.902,124.851 241.979,129.543 243.682,119.606 236.461,112.568 246.436,111.119 				"/>
			</g>
		</g>
		<line style="fill:none;stroke:#26395E;stroke-width:0.5;stroke-miterlimit:10;" x1="220" y1="78.391" x2="280.25" y2="78.391"/>
		<path style="fill:none;stroke:#26395E;stroke-width:0.5;stroke-miterlimit:10;" d="M282.75,137.391c-3,24.75-29.75,21-29.75,21"/>
	</g>
	<g>
		<rect x="284.739" y="172.229" style="fill:#EBF3FF;" width="89.261" height="66.518"/>
		<polygon style="fill:#FFFFFF;" points="284.739,238.746 328.745,172.229 284.739,172.229 		"/>
		<polygon style="fill:#FFFFFF;" points="374,238.746 374,172.229 328.745,172.229 		"/>
		<polygon style="fill:#2E6ADB;" points="284.739,172.229 329.369,215.554 374,172.229 		"/>
		<polygon style="fill:#FFFFFF;" points="284.739,172.229 329.369,212.785 374,172.229 		"/>
		
			<line style="fill:none;stroke:#26395E;stroke-width:0.5;stroke-miterlimit:10;" x1="284.739" y1="238.746" x2="311.91" y2="198.552"/>
		
			<line style="fill:none;stroke:#26395E;stroke-width:0.5;stroke-miterlimit:10;" x1="346.492" y1="199.076" x2="374" y2="238.746"/>
	</g>
	<g>
		<path style="fill:#2D4C7F;" d="M389.275,404.633c0.56,1.292-0.039,2.79-1.33,3.35l-9.652,4.152
			c-1.293,0.556-2.79-0.043-3.353-1.344l-15.782-36.696c-0.554-1.287,0.042-2.79,1.333-3.346l9.653-4.152
			c1.291-0.555,2.792,0.041,3.349,1.337L389.275,404.633z"/>
		<path style="fill:#2E6ADB;" d="M376.659,372.436c0.43,1.511-0.441,3.077-1.947,3.504l-14.315,4.078
			c-1.505,0.428-3.071-0.444-3.496-1.953l-8.551-29.981c-0.423-1.503,0.445-3.069,1.955-3.503l14.307-4.075
			c1.514-0.428,3.079,0.441,3.51,1.948L376.659,372.436z"/>
		<polygon style="fill:#D2E3FF;" points="468.893,373.815 376.574,372.864 367.727,341.802 443.42,284.415 		"/>
		<path style="fill:#B8D0FF;" d="M376.263,372.953l-3.237-12.857c9.635-7.028,20.985-11.186,31.448-13.49
			c14.34-3.152,34.421-5.776,40.046-21.828c1.788-5.098,3.239-11.132,5.648-15.501l18.413,64.635L376.263,372.953z"/>
		<path style="fill:#4E73A8;" d="M463.292,327.085c7.035,24.69,9.54,45.608,5.601,46.73c-3.946,1.126-12.84-17.977-19.873-42.663
			c-7.04-24.688-9.543-45.614-5.6-46.736C447.364,283.297,456.258,302.395,463.292,327.085z"/>
		<path style="fill:none;stroke:#26395E;stroke-width:0.5;stroke-linecap:round;stroke-miterlimit:10;" d="M375.403,358.634
			c0.492-1.224,12.551-6.87,15.357-7.904c6.588-2.428,11.856-3.638,17.74-4.902c5.601-1.202,11.318-2.293,16.824-4.017
			c6.127-1.919,11.978-5.303,15.543-10.24"/>
		<g>
			<path style="fill:#FFBF00;" d="M453.394,345.193c-2.439-7.181-5.393-16.785-6.157-20.595c-0.445-2.209-1.438-5.327-2.162-8.755
				c0.739-0.338,1.796-0.878,2.602-1.104c8.322-2.375,16.985,2.45,19.358,10.771c2.372,8.324-2.451,16.989-10.776,19.361
				C455.39,345.122,454.262,345.098,453.394,345.193z"/>
			<path style="fill:#FFA607;" d="M455.426,330.147c-3.294-0.763-5.893-2.212-7.89-4.215c1.06,4.399,3.665,12.804,5.857,19.262
				c0.868-0.096,1.996-0.071,2.864-0.321c7.351-2.095,11.963-9.095,11.311-16.435C464.027,330.551,459.23,331.028,455.426,330.147z"
				/>
		</g>
	</g>
	<g>
		<path style="fill:#4E73A8;" d="M178.008,160.39c-2.733-4.781-8.492-8.081-15.17-8.081H122.35v8.081v4.686v60.396h89.971V160.39
			H178.008z"/>
		<rect x="129.919" y="163.78" style="fill:#EBF3FF;" width="74.83" height="31.524"/>
		<rect x="129.919" y="166.113" style="fill:#FFFFFF;" width="74.83" height="31.527"/>
		<rect x="129.919" y="168.865" style="fill:#EBF3FF;" width="74.83" height="31.525"/>
		<rect x="129.919" y="171.762" style="fill:#FFFFFF;" width="74.83" height="31.527"/>
		<path style="fill:#CAE0FF;" d="M213.192,231.892v-46.436c0-5.946-4.819-10.769-10.769-10.769h-70.176
			c-5.948,0-10.77,4.822-10.77,10.769v46.436H213.192z"/>
		
			<line style="fill:none;stroke:#26395E;stroke-width:0.5;stroke-miterlimit:10;" x1="202.962" y1="179.211" x2="131.792" y2="179.211"/>
		<path style="opacity:0.2;fill:#B8D0FF;" d="M177.801,214.626c-12.669-9.214-33.226-23.051-36.811-39.939h-8.742
			c-5.948,0-10.77,4.822-10.77,10.769v46.436h91.714v-1.509C200.695,227.738,188.68,222.537,177.801,214.626z"/>
	</g>
	<g>
		<rect x="79.1" y="183.484" style="fill:#2E6ADB;" width="55.708" height="73.496"/>
		<rect x="80.995" y="181.984" style="fill:#FFFFFF;" width="55.708" height="73.497"/>
		<g>
			
				<line style="fill:none;stroke:#26395E;stroke-width:0.5;stroke-miterlimit:10;" x1="87.184" y1="193.723" x2="128.56" y2="193.723"/>
			
				<line style="fill:none;stroke:#26395E;stroke-width:0.5;stroke-miterlimit:10;" x1="87.184" y1="201.625" x2="128.56" y2="201.625"/>
			
				<line style="fill:none;stroke:#26395E;stroke-width:0.5;stroke-miterlimit:10;" x1="87.184" y1="209.526" x2="128.56" y2="209.526"/>
			
				<line style="fill:none;stroke:#26395E;stroke-width:0.5;stroke-miterlimit:10;" x1="87.184" y1="217.428" x2="128.56" y2="217.428"/>
			
				<line style="fill:none;stroke:#26395E;stroke-width:0.5;stroke-miterlimit:10;" x1="87.184" y1="225.329" x2="128.56" y2="225.329"/>
			
				<line style="fill:none;stroke:#26395E;stroke-width:0.5;stroke-miterlimit:10;" x1="87.184" y1="233.231" x2="128.56" y2="233.231"/>
		</g>
		<path style="opacity:0.2;fill:#B8D0FF;" d="M112.835,238.249c-17.794-12.497-24.341-34.989-24.704-56.265h-7.137v73.497h55.708
			v-9.009C128.417,245.391,119.776,243.124,112.835,238.249z"/>
	</g>
	<g>
		<g>
			<g>
				<path style="fill:#4E73A8;" d="M80.764,418.544c-2,2.892-5.966,3.624-8.862,1.622l0,0c-2.896-2-3.621-5.967-1.619-8.861
					l54.402-78.783c2.002-2.894,5.968-3.62,8.864-1.621l0,0c2.893,2,3.62,5.969,1.621,8.86L80.764,418.544z"/>
				<path style="fill:#2E6ADB;" d="M111.163,343.045l-45.704,66.188c-3.618,5.236-2.301,12.407,2.93,16.018
					c5.232,3.617,12.405,2.305,16.021-2.931l45.705-66.182L111.163,343.045z"/>
				<path style="opacity:0.3;fill:#0093CC;" d="M79.767,425.984c-5.228-3.611-6.547-10.781-2.93-16.02l42.373-61.358l-8.047-5.562
					l-45.704,66.188c-3.618,5.236-2.301,12.407,2.93,16.018c3.545,2.449,7.98,2.633,11.597,0.869
					C79.914,426.071,79.838,426.031,79.767,425.984z"/>
			</g>
			<path style="fill:#FFBF00;" d="M186.781,333.045c-12.874,20.355-39.813,26.417-60.166,13.54
				c-20.356-12.875-26.416-39.819-13.542-60.167c12.876-20.358,39.814-26.42,60.169-13.544
				C193.598,285.748,199.658,312.686,186.781,333.045z"/>
			<path style="fill:#2E6ADB;" d="M181.606,329.771c-11.069,17.492-34.225,22.709-51.719,11.636
				c-17.494-11.064-22.709-34.224-11.639-51.715c11.068-17.498,34.222-22.708,51.721-11.643
				C187.463,289.119,192.674,312.272,181.606,329.771z"/>
			<path style="fill:#B8D0FF;" d="M179.554,328.355c-10.363,16.372-32.032,21.254-48.407,10.89
				c-16.375-10.357-21.257-32.029-10.895-48.404c10.359-16.376,32.031-21.255,48.41-10.895
				C185.039,290.31,189.91,311.979,179.554,328.355z"/>
			<path style="opacity:0.4;fill:#FFFFFF;" d="M165.69,330.987c0.118,2.619,0.034,5.196-0.239,7.713
				c11.188-5.664,18.62-17.498,18.011-30.837c-0.827-18.136-16.198-32.168-34.336-31.341c-9.301,0.425-17.515,4.686-23.208,11.171
				C147.071,288.383,164.6,307.147,165.69,330.987z"/>
		</g>
		<g>
			<defs>
				<path id="SVGID_1_" d="M179.554,328.355c-10.363,16.372-32.032,21.254-48.407,10.89c-16.375-10.357-21.257-32.029-10.895-48.404
					c10.359-16.376,32.031-21.255,48.41-10.895C185.039,290.31,189.91,311.979,179.554,328.355z"/>
			</defs>
			<clipPath id="SVGID_00000052800813292944145090000007075463581443361207_">
				<use xlink:href="#SVGID_1_"  style="overflow:visible;"/>
			</clipPath>
			<g style="clip-path:url(#SVGID_00000052800813292944145090000007075463581443361207_);">
				<g>
					<path style="fill:#9FC4FF;" d="M152.67,303.739c4.297-1.509,7.521-6.395,7.664-12.272c0.175-7.183-4.319-13.12-10.038-13.259
						c-5.719-0.14-10.496,5.572-10.671,12.756c-0.143,5.876,2.84,10.914,7.058,12.63c-12.105,1.318-21.725,12.301-22.056,25.903
						l-0.432,17.753l48.813,1.186l0.432-17.752C173.771,317.082,164.697,305.644,152.67,303.739z"/>
					<path style="opacity:0.8;fill:#B8D0FF;" d="M146.439,303.634c-11.989,1.439-21.482,12.355-21.812,25.863l-0.432,17.753
						l48.813,1.186l0.147-6.056C156.789,337.973,149.001,321.46,146.439,303.634z"/>
					<path style="fill:#B8D0FF;" d="M146.417,303.469c-1.151-8.12-1.224-16.503-0.529-24.135c-3.577,1.989-6.135,6.414-6.261,11.63
						C139.486,296.714,142.341,301.65,146.417,303.469z"/>
					<g>
						<polyline style="fill:none;stroke:#26395E;stroke-width:0.5;stroke-miterlimit:10;" points="146.071,313.132 144.915,320.765 
							148.219,335.583 151.938,321.03 151.456,313.169 						"/>
						
							<rect x="146.245" y="307.83" transform="matrix(0.0243 -0.9997 0.9997 0.0243 -165.2182 451.7611)" style="fill:none;stroke:#26395E;stroke-width:0.5;stroke-miterlimit:10;" width="5.165" height="5.383"/>
					</g>
					<polyline style="fill:none;stroke:#26395E;stroke-width:0.5;stroke-miterlimit:10;" points="146.738,306.645 143.777,310.495 
						139.541,305.895 					"/>
					<polyline style="fill:none;stroke:#26395E;stroke-width:0.5;stroke-miterlimit:10;" points="150.993,306.651 153.211,310.534 
						158.412,305.875 					"/>
				</g>
				
					<line style="fill:none;stroke:#26395E;stroke-width:0.5;stroke-miterlimit:10;" x1="135.889" y1="307.719" x2="147.313" y2="347.62"/>
				
					<line style="fill:none;stroke:#26395E;stroke-width:0.5;stroke-miterlimit:10;" x1="161.252" y1="306.996" x2="149.537" y2="347.483"/>
			</g>
		</g>
	</g>
</g>
</svg>
